{"glyphs":{"0":{"ha":681,"x_min":106,"x_max":711,"o":"m 471 783 q 354 703 411 783 q 263 504 297 622 q 229 275 229 386 q 260 99 229 168 q 346 29 290 29 q 464 109 407 29 q 554 307 521 189 q 588 536 588 425 q 557 714 588 644 q 471 783 526 783 m 115 406 q 244 704 144 582 q 479 826 343 826 q 651 740 592 826 q 711 517 711 654 q 701 406 711 460 q 573 108 672 229 q 338 -14 474 -14 q 165 72 225 -14 q 106 294 106 157 q 115 406 106 353 z "},"1":{"ha":681,"x_min":149,"x_max":624,"o":"m 583 813 l 461 85 q 461 81 461 85 q 514 42 461 54 q 624 29 567 29 l 618 0 l 149 0 l 154 29 q 272 42 214 29 q 333 85 329 56 l 422 617 q 258 515 351 578 l 253 539 l 546 813 l 583 813 z "},"2":{"ha":681,"x_min":56,"x_max":690,"o":"m 56 0 q 110 63 58 17 q 235 169 163 108 q 378 299 307 229 q 500 453 450 369 q 550 610 550 536 q 523 704 550 665 q 439 743 496 743 q 317 722 369 743 q 242 676 264 701 q 203 631 219 651 q 182 610 188 610 q 174 624 172 610 q 187 657 175 635 q 224 709 199 679 q 281 765 249 739 q 363 808 314 790 q 468 826 413 826 q 636 774 582 826 q 690 639 690 722 q 621 475 690 567 q 468 313 551 383 q 313 179 385 242 q 239 97 242 117 l 532 97 q 581 128 553 106 q 628 185 610 151 l 656 185 l 572 0 l 56 0 z "},"3":{"ha":681,"x_min":83,"x_max":688,"o":"m 363 404 q 346 409 353 404 q 340 421 339 414 q 350 432 340 428 q 417 457 385 442 q 484 497 449 472 q 541 559 519 521 q 563 643 563 597 q 529 717 563 690 q 433 743 496 743 q 333 726 376 743 q 271 689 289 710 q 240 651 253 668 q 221 635 226 635 q 213 649 211 635 q 290 759 219 692 q 463 826 360 826 q 634 790 581 826 q 688 681 688 753 q 518 460 688 549 q 616 389 576 446 q 656 267 656 332 q 574 64 656 142 q 325 -14 493 -14 q 194 9 253 -14 q 110 57 136 32 q 83 99 83 82 q 146 175 83 175 q 171 152 163 175 q 186 101 179 129 q 228 51 193 74 q 324 28 263 28 q 426 47 383 28 q 493 101 469 67 q 527 172 517 135 q 538 253 538 210 q 513 363 538 315 q 432 411 489 411 q 396 408 415 411 q 363 404 376 404 z "},"4":{"ha":681,"x_min":94,"x_max":668,"o":"m 644 813 l 556 286 l 668 286 l 661 244 l 549 244 l 518 57 q 601 29 526 29 l 596 0 l 296 0 l 301 29 q 393 57 378 29 l 424 244 l 94 244 l 572 813 l 644 813 m 431 286 l 493 660 l 178 286 l 431 286 z "},"5":{"ha":681,"x_min":83,"x_max":711,"o":"m 288 538 q 576 475 489 538 q 663 315 663 413 q 581 83 663 181 q 342 -14 499 -14 q 195 9 258 -14 q 108 56 132 32 q 83 97 83 81 q 146 175 83 175 q 166 160 160 175 q 178 123 172 144 q 198 80 185 101 q 247 43 211 58 q 340 28 283 28 q 456 74 407 28 q 524 177 504 119 q 543 292 543 235 q 222 483 543 483 l 324 813 l 711 813 l 661 715 l 342 715 l 288 538 z "},"6":{"ha":681,"x_min":118,"x_max":658,"o":"m 424 467 q 279 435 332 467 q 240 204 240 310 q 272 73 240 115 q 354 31 304 31 q 476 122 421 31 q 532 331 532 213 q 424 467 532 467 m 294 481 q 429 514 357 514 q 606 468 554 514 q 658 336 658 422 q 572 82 658 178 q 346 -14 485 -14 q 176 52 233 -14 q 118 231 118 118 q 154 433 118 336 q 246 599 190 531 q 368 722 301 668 q 497 804 435 776 q 606 838 558 832 l 618 813 q 427 701 511 786 q 294 481 343 617 z "},"7":{"ha":681,"x_min":186,"x_max":736,"o":"m 614 715 l 310 715 q 260 684 289 707 q 214 628 232 661 l 186 628 l 269 813 l 736 813 q 646 641 733 792 q 465 305 558 490 q 354 15 372 119 q 297 -14 349 -14 q 254 11 254 -14 q 342 242 254 82 q 519 547 429 403 q 614 715 610 690 z "},"8":{"ha":681,"x_min":104,"x_max":701,"o":"m 457 450 q 563 535 517 479 q 610 675 610 590 q 578 754 610 726 q 499 782 547 782 q 370 740 419 782 q 321 624 321 699 q 343 564 321 596 q 388 510 365 532 q 457 450 411 489 m 701 672 q 494 418 701 515 q 598 310 561 360 q 635 200 635 260 q 549 46 635 106 q 338 -14 464 -14 q 165 30 225 -14 q 104 149 104 74 q 167 309 104 242 q 315 418 231 376 q 199 617 199 522 q 278 767 199 708 q 481 826 357 826 q 701 672 701 826 m 353 385 q 246 293 296 353 q 196 149 196 233 q 233 64 196 97 q 319 31 269 31 q 457 76 400 31 q 514 193 514 121 q 510 220 514 207 q 494 249 506 233 q 476 274 483 264 q 449 303 468 285 q 421 328 429 321 q 386 358 413 336 q 353 385 360 379 z "},"9":{"ha":681,"x_min":158,"x_max":699,"o":"m 393 346 q 538 378 485 346 q 576 608 576 503 q 544 740 576 697 q 463 782 513 782 q 340 690 396 782 q 283 482 283 599 q 393 346 283 346 m 522 332 q 388 299 460 299 q 210 344 263 299 q 158 476 158 390 q 245 731 158 635 q 471 826 332 826 q 641 760 583 826 q 699 582 699 694 q 663 379 699 476 q 571 213 626 282 q 449 90 515 144 q 320 8 382 36 q 211 -25 258 -19 l 199 0 q 390 111 306 26 q 522 332 474 196 z "}," ":{"ha":333,"x_min":0,"x_max":0,"o":""},"!":{"ha":329,"x_min":35,"x_max":311,"o":"m 35 58 q 64 128 35 97 q 132 158 93 158 q 183 138 161 158 q 204 88 204 117 q 174 18 204 50 q 104 -14 143 -14 q 56 7 76 -14 q 35 58 35 28 m 149 258 q 132 321 132 258 q 147 554 132 365 q 174 813 161 743 q 251 875 183 875 q 294 862 278 875 q 311 825 311 849 q 310 813 311 817 q 253 571 301 763 q 197 353 206 379 q 149 258 168 258 z "},"\"":{"ha":464,"x_min":128,"x_max":485,"o":"m 371 567 q 350 696 350 567 q 358 861 350 806 q 431 924 368 924 q 485 876 485 924 q 478 833 485 861 q 463 780 471 804 q 447 728 456 756 q 436 697 438 701 q 371 567 393 567 m 149 567 q 128 696 128 567 q 136 861 128 806 q 208 924 146 924 q 263 876 263 924 q 256 833 263 861 q 241 780 249 804 q 224 728 233 756 q 214 697 215 701 q 149 567 171 567 z "},"#":{"ha":676,"x_min":33,"x_max":661,"o":"m 603 319 l 596 272 l 436 272 l 353 0 l 304 0 l 388 272 l 214 272 l 131 0 l 82 0 l 165 272 l 33 272 l 40 319 l 179 319 l 235 494 l 92 494 l 99 542 l 249 542 l 332 813 l 381 813 l 297 542 l 471 542 l 554 813 l 603 813 l 519 542 l 661 542 l 654 494 l 506 494 l 450 319 l 603 319 m 228 319 l 401 319 l 457 494 l 283 494 l 228 319 z "},"$":{"ha":633,"x_min":21,"x_max":582,"o":"m 357 490 q 419 451 403 461 q 472 413 435 442 q 524 363 508 383 q 553 308 539 342 q 568 240 568 275 q 476 54 568 121 q 272 -14 385 -12 l 267 -50 l 225 -50 l 231 -12 q 120 12 172 -7 q 44 47 68 31 l 21 64 l 42 193 l 72 193 q 119 78 74 117 q 239 35 165 40 l 293 356 q 228 399 246 386 q 175 444 210 413 q 126 508 140 475 q 111 579 111 540 q 192 749 111 675 q 372 826 274 824 l 378 861 l 419 861 l 413 825 q 501 801 458 819 q 563 767 543 782 l 582 750 l 564 636 l 533 636 q 406 778 533 763 l 357 490 m 319 515 l 364 779 q 263 732 301 776 q 224 639 224 688 q 319 515 224 578 m 331 332 l 281 33 q 399 76 351 36 q 446 189 446 115 q 417 265 446 233 q 331 332 388 296 z "},"%":{"ha":753,"x_min":60,"x_max":711,"o":"m 711 785 l 115 28 l 60 28 l 656 785 l 711 785 m 260 769 q 201 719 231 769 q 172 615 172 669 q 185 551 172 578 q 218 525 199 525 q 276 576 247 525 q 306 679 306 626 q 292 743 306 717 q 260 769 279 769 m 88 617 q 144 758 88 699 q 267 817 201 817 q 354 777 318 817 q 390 678 390 738 q 333 537 390 596 q 211 478 276 478 q 124 517 160 478 q 88 617 88 557 m 551 288 q 493 238 522 288 q 464 133 464 188 q 477 69 464 96 q 510 43 490 43 q 568 93 539 43 q 597 197 597 143 q 584 261 597 235 q 551 288 571 288 m 379 135 q 436 276 379 217 q 558 335 493 335 q 646 295 610 335 q 682 196 682 256 q 624 55 682 114 q 501 -4 567 -4 q 415 35 450 -4 q 379 135 379 75 z "},"&":{"ha":840,"x_min":-1,"x_max":811,"o":"m 519 694 q 471 778 519 778 q 398 729 422 778 q 374 604 374 681 q 385 496 374 560 q 486 583 453 540 q 519 694 519 626 m 811 479 l 806 450 q 714 424 726 450 q 531 125 614 217 q 618 61 578 61 q 693 71 671 61 q 743 113 715 81 l 757 99 q 594 -14 696 -14 q 449 50 515 -14 q 254 -14 357 -14 q -1 139 -1 -14 q 20 235 -1 192 q 81 312 42 278 q 161 370 121 346 q 256 424 201 394 q 275 433 268 431 q 260 589 260 511 q 278 704 260 656 q 326 778 296 753 q 387 815 356 803 q 451 826 418 826 q 546 789 513 826 q 579 696 579 751 q 530 559 579 617 q 396 444 481 501 q 507 161 435 279 q 660 428 572 243 q 578 450 650 450 l 583 479 l 811 479 m 422 79 q 289 374 335 183 q 178 281 213 322 q 143 169 143 239 q 315 44 143 44 q 422 79 369 44 z "},"'":{"ha":242,"x_min":128,"x_max":263,"o":"m 149 567 q 128 696 128 567 q 136 861 128 806 q 208 924 146 924 q 263 876 263 924 q 256 833 263 861 q 241 780 249 804 q 224 728 233 756 q 214 697 215 701 q 149 567 171 567 z "},"(":{"ha":344,"x_min":64,"x_max":379,"o":"m 74 438 q 344 929 117 696 q 369 944 360 944 q 379 932 379 944 q 374 917 379 928 q 354 886 372 915 q 333 849 336 857 q 312 813 329 842 q 288 767 294 783 q 267 718 282 750 q 244 660 253 686 q 225 597 236 633 q 206 520 214 560 q 190 438 197 481 q 171 229 171 322 q 173 160 171 192 q 182 94 175 128 q 191 47 189 60 q 203 -4 193 33 l 214 -42 q 213 -61 217 -53 q 200 -69 208 -69 q 179 -54 189 -69 q 64 329 64 129 q 74 438 64 372 z "},")":{"ha":343,"x_min":-8,"x_max":307,"o":"m 299 438 q 26 -54 256 181 q 3 -69 11 -69 q -8 -57 -8 -69 q -3 -42 -8 -53 q 18 -7 -3 -42 q 44 35 39 28 q 68 78 49 43 q 94 133 88 114 q 117 191 101 151 q 142 264 133 231 q 163 343 151 297 q 182 438 174 389 q 200 646 200 544 q 198 715 200 683 q 189 781 196 747 q 180 828 182 815 q 167 879 178 842 l 157 917 q 159 936 154 928 q 172 944 164 944 q 192 929 182 944 q 307 546 307 746 q 299 438 307 494 z "},"*":{"ha":500,"x_min":114,"x_max":492,"o":"m 339 497 q 310 511 317 497 q 303 557 303 525 q 307 622 303 597 q 311 638 310 633 q 290 632 301 632 q 274 636 282 632 q 272 619 274 626 q 256 558 268 593 q 236 515 244 524 q 197 497 218 497 q 155 515 174 497 q 136 554 136 532 q 150 588 136 571 q 206 619 160 599 q 268 642 253 640 q 263 676 258 653 q 211 661 250 669 q 150 653 172 653 q 114 692 114 653 q 136 748 114 722 q 182 774 158 774 q 196 771 185 774 q 235 733 208 767 q 265 683 263 699 q 300 704 276 701 q 275 753 290 713 q 260 810 260 793 q 281 847 260 833 q 329 861 301 861 q 382 821 382 861 q 351 759 382 804 q 306 704 321 714 q 332 682 328 701 q 378 731 338 694 q 433 771 419 767 q 449 774 444 774 q 479 757 467 774 q 492 717 492 740 q 478 672 492 690 q 440 653 464 653 q 378 661 417 653 q 332 676 340 669 q 315 642 336 663 q 372 620 331 642 q 419 588 414 599 q 424 568 424 578 q 394 519 424 542 q 339 497 365 497 z "},"+":{"ha":561,"x_min":63,"x_max":525,"o":"m 319 411 l 286 215 l 225 215 l 258 411 l 63 411 l 72 472 l 268 472 l 300 668 l 361 668 l 329 472 l 525 472 l 515 411 l 319 411 z "},",":{"ha":318,"x_min":6,"x_max":210,"o":"m 25 46 q 58 114 25 89 q 119 139 90 139 q 185 106 161 139 q 210 24 210 72 q 6 -179 210 -117 l 13 -140 q 90 -102 49 -136 q 140 -25 132 -68 q 143 6 144 1 q 132 10 142 10 q 115 1 128 10 q 86 -8 101 -8 q 42 6 58 -8 q 25 46 25 21 z "},"-":{"ha":544,"x_min":97,"x_max":474,"o":"m 107 472 l 474 472 l 464 411 l 97 411 l 107 472 z "},".":{"ha":307,"x_min":28,"x_max":197,"o":"m 28 58 q 57 128 28 97 q 125 158 86 158 q 176 138 154 158 q 197 88 197 117 q 167 18 197 50 q 97 -14 136 -14 q 49 7 69 -14 q 28 58 28 28 z "},"/":{"ha":646,"x_min":-29,"x_max":692,"o":"m -29 -14 l 656 850 l 692 825 l 7 -39 l -29 -14 z "},":":{"ha":346,"x_min":42,"x_max":289,"o":"m 42 58 q 71 128 42 97 q 139 158 100 158 q 190 138 168 158 q 211 88 211 117 q 181 18 211 50 q 111 -14 150 -14 q 63 7 83 -14 q 42 58 42 28 m 119 517 q 149 586 119 556 q 217 617 178 617 q 267 596 246 617 q 289 546 289 575 q 258 476 289 508 q 189 444 228 444 q 140 465 161 444 q 119 517 119 486 z "},";":{"ha":363,"x_min":24,"x_max":293,"o":"m 124 517 q 153 586 124 556 q 221 617 182 617 q 272 596 250 617 q 293 546 293 575 q 263 476 293 508 q 193 444 232 444 q 144 465 165 444 q 124 517 124 486 m 43 46 q 76 114 43 89 q 138 139 108 139 q 203 106 179 139 q 228 24 228 72 q 24 -179 228 -117 l 31 -140 q 108 -102 67 -136 q 158 -25 150 -68 q 161 -1 161 -8 q 159 8 161 7 q 150 10 157 10 q 133 1 146 10 q 104 -8 119 -8 q 60 6 76 -8 q 43 46 43 21 z "},"<":{"ha":647,"x_min":51,"x_max":613,"o":"m 61 472 l 613 711 l 603 656 l 108 442 l 531 228 l 522 172 l 51 411 l 61 472 z "},"=":{"ha":681,"x_min":88,"x_max":618,"o":"m 99 389 l 590 389 l 579 328 l 88 328 l 99 389 m 126 556 l 618 556 l 608 494 l 117 494 l 126 556 z "},">":{"ha":647,"x_min":64,"x_max":625,"o":"m 615 411 l 64 172 l 72 228 l 567 442 l 144 656 l 154 711 l 625 472 l 615 411 z "},"?":{"ha":549,"x_min":93,"x_max":556,"o":"m 119 58 q 149 128 119 97 q 217 158 178 158 q 267 138 246 158 q 289 88 289 117 q 258 18 289 50 q 189 -14 228 -14 q 140 7 161 -14 q 119 58 119 28 m 196 675 q 179 634 196 650 q 140 618 163 618 q 107 631 121 618 q 93 671 93 644 q 164 812 93 749 q 344 875 235 875 q 506 824 457 875 q 556 699 556 772 q 511 567 556 632 q 413 460 467 503 q 309 367 358 418 q 253 278 260 317 q 244 265 251 271 q 232 258 238 258 q 221 265 226 258 q 217 278 215 271 q 250 369 225 325 q 306 449 275 414 q 365 524 336 485 q 414 615 394 563 q 433 728 433 667 q 407 808 433 783 q 324 833 381 833 q 226 799 267 833 q 185 724 185 764 q 190 699 185 713 q 196 675 196 685 z "},"@":{"ha":872,"x_min":65,"x_max":813,"o":"m 326 221 q 259 250 282 221 q 236 326 236 279 q 318 518 236 429 q 476 607 400 607 q 540 583 517 607 q 565 518 563 558 l 597 592 l 671 592 l 538 282 q 533 271 533 275 q 563 253 533 253 q 672 313 626 253 q 736 440 718 372 q 754 564 754 507 q 736 669 754 626 q 686 732 718 711 q 620 760 654 753 q 543 768 586 768 q 401 740 474 768 q 267 658 329 711 q 165 522 204 606 q 125 338 125 438 q 218 122 125 203 q 421 40 311 40 q 542 60 483 40 q 635 100 600 79 q 708 160 669 121 q 756 211 747 200 q 786 253 764 222 l 807 242 q 641 56 736 125 q 403 -14 546 -14 q 167 81 268 -14 q 65 325 65 175 q 110 535 65 438 q 227 695 156 633 q 383 792 299 757 q 547 826 467 826 q 738 758 664 826 q 813 561 813 690 q 782 404 813 483 q 682 264 751 325 q 521 203 613 203 q 481 216 499 203 q 463 258 463 229 q 469 296 463 275 q 326 221 394 221 m 301 349 q 358 281 301 281 q 474 349 415 281 q 532 496 532 417 q 475 565 532 565 q 360 497 419 565 q 301 349 301 428 z "},"A":{"ha":754,"x_min":-67,"x_max":721,"o":"m 411 0 l 417 29 q 500 46 481 29 l 457 258 l 190 258 l 85 54 q 167 29 94 29 l 161 0 l -67 0 l -61 29 q 31 58 17 29 l 426 813 l 493 813 l 636 58 q 721 29 642 29 l 715 0 l 411 0 m 385 628 l 215 304 l 449 304 l 385 628 z "},"B":{"ha":781,"x_min":3,"x_max":714,"o":"m 286 403 l 226 47 l 344 47 q 514 107 456 47 q 572 265 572 167 q 530 363 572 324 q 388 403 488 403 l 286 403 m 346 765 l 292 443 l 349 443 q 516 497 457 443 q 575 647 575 551 q 386 765 575 765 l 346 765 m 3 0 l 8 29 q 100 57 85 29 l 217 756 q 133 783 208 783 l 139 813 l 394 813 q 635 763 556 813 q 714 642 714 714 q 665 510 714 565 q 533 429 617 456 q 667 361 624 407 q 711 260 711 315 q 609 72 711 144 q 336 0 507 0 l 3 0 z "},"C":{"ha":783,"x_min":63,"x_max":763,"o":"m 556 779 q 313 646 415 779 q 210 321 210 513 q 274 108 210 183 q 436 33 339 33 q 581 81 506 33 q 686 183 657 129 l 717 167 q 400 -14 611 -14 q 150 81 238 -14 q 63 318 63 175 q 108 531 63 432 q 226 692 154 629 q 387 791 299 756 q 563 826 475 826 q 653 806 603 826 q 710 785 703 785 q 731 813 726 785 l 763 813 l 747 636 l 717 636 q 678 739 717 699 q 556 779 639 779 z "},"D":{"ha":856,"x_min":3,"x_max":807,"o":"m 3 0 l 8 29 q 100 57 85 29 l 217 756 q 133 783 208 783 l 139 813 l 458 813 q 714 724 621 813 q 807 489 807 636 q 669 138 807 275 q 339 0 531 0 l 3 0 m 347 772 l 226 47 l 347 47 q 452 78 397 47 q 556 164 507 108 q 638 310 606 219 q 669 506 669 400 q 606 705 669 638 q 451 772 542 772 l 347 772 z "},"E":{"ha":706,"x_min":3,"x_max":699,"o":"m 3 0 l 8 29 q 100 57 85 29 l 217 756 q 133 783 208 783 l 139 813 l 699 813 l 676 678 l 647 678 q 651 725 651 707 q 633 765 651 757 l 346 765 l 293 446 l 488 446 q 529 533 517 457 l 558 533 l 521 311 l 492 311 q 497 358 497 350 q 479 399 497 390 l 285 399 l 226 47 l 543 47 q 619 135 579 61 l 647 135 l 592 0 l 3 0 z "},"F":{"ha":663,"x_min":3,"x_max":699,"o":"m 3 0 l 8 29 q 100 57 85 29 l 217 756 q 133 783 208 783 l 139 813 l 699 813 l 676 678 l 647 678 q 651 725 651 707 q 633 765 651 757 l 346 765 l 293 446 l 488 446 q 529 533 517 457 l 558 533 l 521 311 l 492 311 q 497 358 497 350 q 479 399 497 390 l 285 399 l 228 57 q 311 29 236 29 l 306 0 l 3 0 z "},"G":{"ha":863,"x_min":61,"x_max":847,"o":"m 568 779 q 316 635 428 779 q 204 299 204 490 q 269 99 204 164 q 424 33 335 33 q 575 60 500 33 l 624 344 q 540 372 615 372 l 544 401 l 847 401 l 843 372 q 751 344 767 372 l 711 111 q 602 26 681 67 q 413 -14 524 -14 q 154 83 247 -14 q 61 324 61 181 q 109 533 61 436 q 233 693 157 631 q 398 791 308 756 q 575 826 488 826 q 672 806 617 826 q 736 785 728 785 q 757 813 753 785 l 789 813 l 774 636 l 743 636 q 697 736 743 693 q 568 779 651 779 z "},"H":{"ha":911,"x_min":3,"x_max":925,"o":"m 3 0 l 8 29 q 100 57 85 29 l 217 756 q 133 783 208 783 l 139 813 l 442 813 l 436 783 q 344 756 360 783 l 293 446 l 649 446 l 700 756 q 617 783 692 783 l 622 813 l 925 813 l 919 783 q 828 756 843 783 l 711 57 q 794 29 719 29 l 789 0 l 486 0 l 492 29 q 583 57 568 29 l 640 399 l 285 399 l 228 57 q 311 29 236 29 l 306 0 l 3 0 z "},"I":{"ha":428,"x_min":3,"x_max":442,"o":"m 3 0 l 8 29 q 100 57 85 29 l 217 756 q 133 783 208 783 l 139 813 l 442 813 l 436 783 q 344 756 360 783 l 228 57 q 311 29 236 29 l 306 0 l 3 0 z "},"J":{"ha":578,"x_min":-29,"x_max":615,"o":"m 97 140 q 53 74 97 89 q 153 36 85 36 q 220 52 193 36 q 265 105 247 68 q 292 181 282 142 q 313 289 301 219 l 390 756 q 307 783 382 783 l 313 813 l 615 813 l 610 783 q 518 756 533 783 l 432 239 q 349 60 415 133 q 158 -14 283 -14 q 19 21 67 -14 q -29 100 -29 56 q -8 158 -29 135 q 43 181 14 181 q 97 140 97 181 z "},"K":{"ha":804,"x_min":3,"x_max":846,"o":"m 3 0 l 8 29 q 100 57 85 29 l 217 756 q 133 783 208 783 l 139 813 l 439 813 l 433 783 q 342 756 357 783 l 225 57 q 308 29 233 29 l 303 0 l 3 0 m 488 0 l 493 29 q 544 33 525 29 l 296 436 l 692 774 q 622 783 674 783 l 628 813 l 846 813 l 840 783 q 750 751 786 783 l 424 475 l 679 51 q 764 29 697 29 l 758 0 l 488 0 z "},"L":{"ha":688,"x_min":3,"x_max":647,"o":"m 3 0 l 8 29 q 100 57 85 29 l 217 756 q 133 783 208 783 l 139 813 l 442 813 l 436 783 q 344 756 360 783 l 226 47 l 543 47 q 619 135 579 61 l 647 135 l 592 0 l 3 0 z "},"M":{"ha":1125,"x_min":3,"x_max":1139,"o":"m 3 0 l 8 29 q 100 57 85 29 l 217 756 q 133 783 208 783 l 139 813 l 342 813 l 529 167 l 933 813 l 1139 813 l 1133 783 q 1042 756 1057 783 l 925 57 q 1008 29 933 29 l 1003 0 l 700 0 l 706 29 q 797 57 782 29 l 901 681 l 476 0 l 456 0 l 253 689 l 147 57 q 231 29 156 29 l 225 0 l 3 0 z "},"N":{"ha":893,"x_min":3,"x_max":919,"o":"m 3 0 l 8 29 q 100 57 85 29 l 217 756 q 133 783 208 783 l 139 813 l 325 813 l 689 244 l 775 756 q 692 783 767 783 l 697 813 l 919 813 l 914 783 q 822 756 838 783 l 696 0 l 683 0 l 253 690 l 147 57 q 231 29 156 29 l 225 0 l 3 0 z "},"O":{"ha":894,"x_min":64,"x_max":847,"o":"m 203 318 q 251 115 203 197 q 399 33 300 33 q 565 106 492 33 q 672 281 638 178 q 707 490 707 383 q 688 631 707 568 q 624 736 669 693 q 513 779 579 779 q 347 706 419 779 q 238 530 274 633 q 203 318 203 426 m 526 826 q 760 730 674 826 q 847 486 847 633 q 708 134 847 282 q 385 -14 569 -14 q 150 82 236 -14 q 64 325 64 178 q 202 678 64 531 q 526 826 340 826 z "},"P":{"ha":756,"x_min":3,"x_max":769,"o":"m 3 0 l 8 29 q 100 57 85 29 l 217 756 q 133 783 208 783 l 139 813 l 453 813 q 690 756 611 813 q 769 624 769 700 q 668 440 769 510 q 396 369 567 369 l 281 369 l 228 57 q 311 29 236 29 l 306 0 l 3 0 m 346 765 l 288 417 l 403 417 q 632 636 632 417 q 444 765 632 765 l 346 765 z "},"Q":{"ha":894,"x_min":64,"x_max":864,"o":"m 526 826 q 760 730 674 826 q 847 486 847 633 q 783 237 847 349 q 617 57 719 125 q 630 21 621 46 q 643 -15 639 -4 q 656 -44 647 -26 q 674 -70 665 -62 q 695 -85 682 -78 q 724 -92 708 -92 q 788 -76 757 -92 q 832 -44 818 -60 l 846 -28 l 864 -43 q 845 -71 857 -54 q 794 -115 833 -87 q 715 -142 756 -142 q 578 -101 624 -142 q 508 6 533 -61 q 385 -14 446 -14 q 150 82 236 -14 q 64 325 64 178 q 202 678 64 531 q 526 826 340 826 m 276 85 q 399 33 324 33 q 493 54 450 33 q 463 119 479 97 q 418 142 447 142 q 276 85 340 142 m 582 126 q 707 490 707 271 q 688 631 707 568 q 624 736 669 693 q 513 779 579 779 q 347 706 419 779 q 238 530 274 633 q 203 318 203 426 q 257 108 203 186 q 436 203 335 203 q 582 126 532 203 z "},"R":{"ha":810,"x_min":3,"x_max":769,"o":"m 3 0 l 8 29 q 100 57 85 29 l 217 756 q 133 783 208 783 l 139 813 l 453 813 q 691 758 613 813 q 769 629 769 704 q 710 481 769 544 q 550 389 650 417 l 679 58 q 767 29 689 29 l 761 0 l 701 0 q 577 11 604 0 q 529 72 550 22 l 411 369 l 281 369 l 228 57 q 311 29 236 29 l 306 0 l 3 0 m 346 765 l 288 417 l 403 417 q 576 472 521 417 q 632 644 632 526 q 590 734 632 703 q 444 765 547 765 l 346 765 z "},"S":{"ha":665,"x_min":14,"x_max":611,"o":"m 286 -14 q 151 7 218 -14 q 81 28 83 28 q 60 19 72 28 q 46 0 47 11 l 14 0 l 46 193 l 76 193 q 139 72 78 110 q 286 33 200 33 q 422 72 365 33 q 478 186 478 110 q 466 235 478 213 q 431 276 454 257 q 387 310 408 296 q 332 343 365 324 q 281 375 299 363 q 221 417 238 404 q 173 460 204 431 q 128 519 142 489 q 115 583 115 549 q 206 752 115 678 q 397 826 297 826 q 494 806 439 826 q 558 785 550 785 q 579 813 575 785 l 611 813 l 596 636 l 565 636 q 520 738 565 697 q 390 779 475 779 q 275 734 322 779 q 228 640 228 689 q 239 597 228 617 q 273 558 250 576 q 317 526 296 539 q 371 493 338 513 q 422 461 404 474 q 476 424 463 433 q 521 389 489 415 q 565 344 553 363 q 588 298 576 326 q 600 239 600 269 q 548 98 600 158 q 426 12 496 38 q 286 -14 357 -14 z "},"T":{"ha":743,"x_min":75,"x_max":794,"o":"m 97 813 l 794 813 l 772 678 l 743 678 q 747 725 747 707 q 729 765 747 757 l 501 765 l 383 57 q 467 29 392 29 l 461 0 l 158 0 l 164 29 q 256 57 240 29 l 374 765 l 146 765 q 104 678 117 754 l 75 678 l 97 813 z "},"U":{"ha":860,"x_min":104,"x_max":899,"o":"m 414 33 q 583 111 507 33 q 681 317 660 189 l 754 756 q 671 783 746 783 l 676 813 l 899 813 l 893 783 q 801 756 817 783 l 733 344 q 608 75 703 164 q 392 -14 514 -14 q 110 244 110 -14 q 119 344 110 281 l 188 756 q 104 783 179 783 l 110 813 l 413 813 l 407 783 q 315 756 331 783 l 243 325 q 236 244 236 276 q 284 88 236 143 q 414 33 332 33 z "},"V":{"ha":754,"x_min":53,"x_max":840,"o":"m 363 813 l 357 783 q 274 767 292 783 l 389 185 l 689 758 q 607 783 679 783 l 613 813 l 840 813 l 835 783 q 747 761 760 783 l 347 0 l 281 0 l 138 754 q 53 783 131 783 l 58 813 l 363 813 z "},"W":{"ha":1167,"x_min":53,"x_max":1253,"o":"m 775 813 l 769 783 q 686 767 706 783 l 801 185 l 1101 758 q 1019 783 1092 783 l 1025 813 l 1253 813 l 1247 783 q 1156 754 1169 783 l 760 0 l 693 0 l 600 485 l 347 0 l 281 0 l 138 754 q 53 783 131 783 l 58 813 l 363 813 l 357 783 q 274 767 292 783 l 389 186 l 586 563 l 550 754 q 465 783 544 783 l 471 813 l 775 813 z "},"X":{"ha":722,"x_min":-47,"x_max":769,"o":"m 390 813 l 385 783 q 301 767 319 783 l 408 501 l 618 761 q 536 783 608 783 l 542 813 l 769 813 l 764 783 q 678 760 697 783 l 429 453 l 589 58 q 674 29 600 29 l 668 0 l 364 0 l 369 29 q 453 46 435 29 l 335 336 l 104 51 q 186 29 114 29 l 181 0 l -47 0 l -42 29 q 51 60 28 29 l 314 385 l 165 756 q 81 783 153 783 l 86 813 l 390 813 z "},"Y":{"ha":779,"x_min":56,"x_max":864,"o":"m 365 813 l 360 783 q 276 767 294 783 l 429 390 l 713 758 q 631 783 703 783 l 636 813 l 864 813 l 858 783 q 776 765 799 783 l 457 350 l 408 57 q 492 29 417 29 l 486 0 l 183 0 l 189 29 q 281 57 265 29 l 322 306 l 140 756 q 56 783 125 783 l 61 813 l 365 813 z "},"Z":{"ha":699,"x_min":-32,"x_max":711,"o":"m 568 0 l -32 0 l 539 771 l 201 771 q 158 683 171 758 l 129 683 l 151 813 l 711 813 l 140 42 l 518 42 q 597 133 564 60 l 626 133 l 568 0 z "},"[":{"ha":403,"x_min":10,"x_max":461,"o":"m 292 804 l 129 -167 l 290 -167 l 282 -217 l 10 -217 l 189 854 l 461 854 l 453 804 l 292 804 z "},"\\":{"ha":625,"x_min":101,"x_max":542,"o":"m 542 -14 l 497 -39 l 101 825 l 146 850 l 542 -14 z "},"]":{"ha":403,"x_min":-68,"x_max":383,"o":"m 101 -167 l 264 804 l 103 804 l 111 854 l 383 854 l 204 -217 l -68 -217 l -60 -167 l 101 -167 z "},"^":{"ha":633,"x_min":150,"x_max":644,"o":"m 460 750 l 644 478 l 590 439 l 431 678 l 190 439 l 150 478 l 422 750 l 460 750 z "},"_":{"ha":639,"x_min":-15,"x_max":501,"o":"m -4 -69 l 501 -69 l 490 -131 l -15 -131 l -4 -69 z "},"`":{"ha":417,"x_min":238,"x_max":450,"o":"m 385 919 l 450 694 l 414 694 l 238 919 l 385 919 z "},"a":{"ha":669,"x_min":8,"x_max":596,"o":"m 222 467 q 201 419 222 436 q 151 403 181 403 q 115 417 129 403 q 101 456 101 432 q 173 581 101 536 q 357 625 244 625 q 521 576 468 625 q 574 444 574 526 q 568 392 574 428 l 528 147 q 525 117 525 125 q 544 54 525 76 q 596 32 563 32 l 590 0 q 414 51 453 0 q 192 -14 317 -14 q 8 115 8 -14 q 23 181 8 151 q 65 231 38 211 q 124 267 93 251 q 199 294 156 282 q 278 314 242 306 q 360 332 314 322 q 436 350 407 342 q 446 451 446 418 q 415 543 446 511 q 335 575 385 575 q 182 508 211 575 q 222 467 222 508 m 431 319 q 369 303 413 314 q 301 284 325 292 q 241 260 276 276 q 186 226 206 244 q 152 179 167 208 q 138 113 138 150 q 224 33 138 33 q 400 81 319 33 q 397 104 397 94 q 400 133 397 114 l 431 319 z "},"b":{"ha":743,"x_min":42,"x_max":688,"o":"m 243 522 q 451 631 340 631 q 529 619 490 631 q 605 581 568 607 q 665 504 642 554 q 688 386 688 454 q 578 93 688 200 q 313 -14 469 -14 q 158 7 225 -14 q 67 49 90 28 l 42 69 l 161 776 q 74 783 75 783 l 79 815 q 188 845 106 815 q 301 875 269 875 l 243 522 m 231 451 l 164 53 q 313 33 229 33 q 481 136 404 33 q 557 393 557 239 q 523 532 557 481 q 429 583 489 583 q 231 451 324 583 z "},"c":{"ha":664,"x_min":43,"x_max":617,"o":"m 489 449 q 508 497 489 481 q 547 514 528 514 q 417 583 542 583 q 249 498 319 583 q 179 281 179 413 q 228 110 179 181 q 350 39 278 39 q 560 131 472 39 l 590 114 q 469 17 539 49 q 293 -14 400 -14 q 117 46 192 -14 q 43 243 43 106 q 143 517 43 408 q 410 625 243 625 q 617 503 617 625 q 597 435 617 461 q 543 408 576 408 q 489 449 489 408 z "},"d":{"ha":749,"x_min":42,"x_max":718,"o":"m 547 597 l 578 776 q 490 783 492 783 l 496 815 q 604 845 522 815 q 718 875 686 875 l 597 147 q 594 117 594 125 q 613 54 594 76 q 665 32 632 32 l 660 0 q 481 53 515 0 q 278 -14 400 -14 q 200 -2 239 -14 q 124 36 161 10 q 65 113 88 63 q 42 231 42 163 q 151 524 42 417 q 417 631 260 631 q 547 597 496 631 m 469 85 q 467 108 467 99 q 469 133 467 117 l 540 553 q 417 583 493 583 q 256 492 335 583 q 178 261 178 401 q 212 106 178 179 q 300 33 246 33 q 469 85 401 33 z "},"e":{"ha":681,"x_min":44,"x_max":639,"o":"m 639 439 q 603 369 639 396 q 450 325 568 342 l 182 289 q 230 112 182 185 q 351 39 278 39 q 561 131 474 39 l 592 114 q 471 17 540 49 q 294 -14 401 -14 q 119 46 193 -14 q 44 243 44 106 q 136 517 44 408 q 388 625 228 625 q 578 567 517 625 q 639 439 639 510 m 185 332 l 392 360 q 514 458 514 375 q 481 544 514 506 q 375 583 449 583 q 260 513 318 583 q 185 332 203 442 z "},"f":{"ha":347,"x_min":46,"x_max":525,"o":"m 525 800 q 505 758 525 774 q 458 742 485 742 q 425 756 435 742 q 417 788 415 771 q 410 819 418 804 q 379 833 401 833 q 329 794 353 833 q 293 678 306 754 l 282 611 l 346 611 l 339 569 l 275 569 l 179 0 l 108 -49 l 46 -49 l 150 569 l 81 569 l 88 611 l 157 611 l 164 658 q 372 875 201 875 q 487 853 449 875 q 525 800 525 831 z "},"g":{"ha":718,"x_min":14,"x_max":660,"o":"m 142 -124 q 96 -190 142 -174 q 250 -228 128 -228 q 367 -169 318 -228 q 449 28 417 -111 q 278 -14 378 -14 q 199 -2 238 -14 q 124 35 161 10 q 65 110 88 60 q 42 226 42 160 q 150 519 42 413 q 415 625 258 625 q 513 615 468 625 q 584 592 558 606 q 628 566 610 579 q 653 543 646 553 l 660 533 l 578 40 q 471 -190 554 -103 q 256 -278 388 -278 q 78 -241 143 -278 q 14 -161 14 -204 q 36 -106 14 -128 q 86 -83 58 -83 q 142 -124 142 -83 m 458 74 l 539 556 q 417 578 479 578 q 249 475 326 578 q 172 219 172 372 q 206 83 172 133 q 300 33 240 33 q 458 74 392 33 z "},"h":{"ha":740,"x_min":36,"x_max":664,"o":"m 596 147 q 593 117 593 125 q 612 54 593 76 q 664 32 631 32 l 658 0 q 513 25 561 0 q 465 106 465 50 q 468 133 465 114 l 519 443 q 524 482 524 464 q 415 578 524 578 q 231 414 321 578 l 161 0 l 36 0 l 167 776 q 79 783 81 783 l 85 815 q 193 845 111 815 q 307 875 275 875 l 247 514 q 431 625 331 625 q 597 593 546 625 q 649 486 649 561 q 643 433 649 472 l 596 147 z "},"i":{"ha":338,"x_min":60,"x_max":325,"o":"m 325 807 q 299 742 325 769 q 238 714 274 714 q 192 733 210 714 q 174 781 174 751 q 199 847 174 818 q 260 875 224 875 q 306 856 288 875 q 325 807 325 836 m 147 526 q 115 529 135 528 q 83 532 96 531 q 61 533 71 533 l 67 565 q 175 595 93 565 q 289 625 257 625 l 185 0 l 60 0 l 147 526 z "},"j":{"ha":335,"x_min":-211,"x_max":322,"o":"m 322 808 q 297 743 322 771 q 235 715 271 715 q 189 734 207 715 q 171 782 171 753 q 197 848 171 819 q 258 876 222 876 q 304 858 286 876 q 322 808 322 839 m 146 528 l 58 535 l 64 567 q 172 597 90 567 q 286 626 254 626 l 172 -60 q 92 -225 153 -174 q -47 -276 32 -276 q -211 -179 -211 -276 q -190 -122 -211 -143 q -140 -100 -169 -100 q -108 -112 -121 -100 q -94 -144 -94 -124 q -115 -187 -94 -169 l -115 -196 q -54 -235 -115 -235 q 2 -194 -26 -235 q 43 -79 31 -153 l 146 528 z "},"k":{"ha":672,"x_min":36,"x_max":669,"o":"m 669 611 l 664 582 q 586 564 610 582 l 360 388 l 543 56 q 626 29 558 29 l 621 0 l 481 0 q 389 67 424 0 l 231 353 l 513 574 q 446 582 494 582 l 451 611 l 669 611 m 167 776 q 79 783 81 783 l 85 815 q 193 845 111 815 q 307 875 275 875 l 161 0 l 36 0 l 167 776 z "},"l":{"ha":333,"x_min":56,"x_max":307,"o":"m 167 776 q 79 783 81 783 l 85 815 q 193 845 111 815 q 307 875 275 875 l 186 147 q 183 117 183 125 q 202 54 183 76 q 254 32 221 32 l 249 0 q 103 25 151 0 q 56 106 56 50 q 58 133 56 114 l 167 776 z "},"m":{"ha":1128,"x_min":58,"x_max":1051,"o":"m 571 0 l 446 0 l 515 415 q 522 482 522 460 q 499 556 522 533 q 426 578 476 578 q 260 454 339 578 l 183 0 l 58 0 l 146 526 q 114 529 133 528 q 82 532 94 531 q 60 533 69 533 l 65 565 q 174 595 92 565 q 288 625 256 625 l 272 533 q 442 625 346 625 q 650 519 633 625 q 829 625 726 625 q 1039 497 1039 625 q 1036 467 1039 489 l 983 147 q 981 117 981 125 q 999 54 981 76 q 1051 32 1018 32 l 1046 0 q 901 25 949 0 q 853 106 853 50 q 856 133 853 114 l 903 415 q 910 482 910 460 q 887 556 910 533 q 814 578 864 578 q 647 453 728 578 l 571 0 z "},"n":{"ha":763,"x_min":58,"x_max":686,"o":"m 271 524 q 492 626 354 626 q 669 479 669 626 q 665 428 669 456 l 618 147 q 615 117 615 125 q 634 54 615 76 q 686 32 653 32 l 681 0 q 535 25 583 0 q 488 106 488 50 q 490 133 488 114 l 542 438 q 544 478 544 451 q 438 578 544 578 q 258 446 339 578 l 183 0 l 58 0 l 146 526 q 114 529 133 528 q 82 532 94 531 q 60 533 69 533 l 65 565 q 174 595 92 565 q 288 625 256 625 l 271 524 z "},"o":{"ha":760,"x_min":44,"x_max":703,"o":"m 179 244 q 224 81 179 135 q 350 28 269 28 q 508 133 447 28 q 568 379 568 238 q 392 582 568 582 q 238 479 297 582 q 179 244 179 376 m 325 -14 q 117 56 189 -14 q 44 244 44 125 q 143 518 44 411 q 422 625 242 625 q 633 560 563 625 q 703 378 703 494 q 604 97 703 208 q 325 -14 506 -14 z "},"p":{"ha":747,"x_min":-74,"x_max":692,"o":"m -74 -267 l -69 -237 q 24 -210 8 -237 l 146 526 q 114 529 133 528 q 82 532 94 531 q 60 533 69 533 l 65 565 q 174 595 92 565 q 288 625 256 625 l 271 519 q 479 625 358 625 q 628 569 564 625 q 692 390 692 514 q 585 93 692 200 q 317 -14 478 -14 q 186 17 238 -14 l 149 -210 q 231 -237 157 -237 l 226 -267 l -74 -267 m 257 442 l 193 61 q 317 33 240 33 q 483 131 407 33 q 558 379 558 229 q 458 578 558 578 q 257 442 344 578 z "},"q":{"ha":721,"x_min":42,"x_max":656,"o":"m 318 -267 l 322 -237 q 415 -210 400 -237 l 456 32 q 278 -14 382 -14 q 199 -2 238 -14 q 124 35 161 10 q 65 110 88 60 q 42 226 42 160 q 150 519 42 413 q 415 625 258 625 q 509 610 465 625 q 578 574 553 596 q 623 531 604 553 q 649 494 642 510 l 656 481 l 540 -210 q 622 -237 549 -237 l 618 -267 l 318 -267 m 463 76 l 540 539 q 417 578 482 578 q 249 475 326 578 q 172 219 172 372 q 206 83 172 133 q 300 33 240 33 q 463 76 396 33 z "},"r":{"ha":535,"x_min":58,"x_max":560,"o":"m 496 499 q 465 511 476 499 q 450 538 454 524 q 434 565 446 553 q 403 578 422 578 q 249 392 358 578 l 183 0 l 58 0 l 146 526 q 114 529 133 528 q 82 532 94 531 q 60 533 69 533 l 65 565 q 174 595 92 565 q 288 625 256 625 l 265 489 q 425 625 361 625 q 522 603 483 625 q 560 554 560 582 q 540 513 560 528 q 496 499 521 499 z "},"s":{"ha":567,"x_min":17,"x_max":514,"o":"m 310 578 q 220 552 263 578 q 178 492 178 526 q 210 429 178 457 q 288 381 242 401 q 379 338 333 360 q 457 279 425 315 q 489 197 489 243 q 410 43 489 100 q 222 -14 331 -14 q 124 7 172 -14 q 71 28 76 28 q 50 0 54 28 l 17 0 l 32 176 l 63 176 q 122 81 63 121 q 243 42 181 42 q 294 47 268 42 q 348 77 321 53 q 375 142 375 101 q 345 201 375 175 q 272 247 315 228 q 185 286 228 265 q 112 343 142 307 q 82 428 82 379 q 148 573 82 521 q 313 625 214 625 q 406 604 360 625 q 460 583 453 583 q 482 611 478 583 l 514 611 l 497 435 l 467 435 q 419 535 467 492 q 310 578 372 578 z "},"t":{"ha":463,"x_min":57,"x_max":414,"o":"m 328 813 l 294 611 l 414 611 l 407 569 l 288 569 l 213 128 q 210 96 210 106 q 271 39 210 39 q 326 63 296 39 q 372 131 356 88 l 403 114 q 214 -14 351 -14 q 78 100 78 -14 q 82 139 78 118 l 154 569 l 57 569 l 64 611 q 205 672 144 611 q 278 813 265 732 l 328 813 z "},"u":{"ha":765,"x_min":63,"x_max":690,"o":"m 613 147 q 610 117 610 125 q 628 54 610 76 q 681 32 647 32 l 675 0 q 485 82 504 0 q 294 -14 389 -14 q 131 22 182 -14 q 79 133 79 58 q 83 183 79 156 l 146 554 q 63 582 138 582 l 68 611 l 281 611 l 207 174 q 203 133 203 153 q 311 33 203 33 q 483 121 406 33 l 565 611 l 690 611 l 613 147 z "},"v":{"ha":636,"x_min":15,"x_max":642,"o":"m 226 0 l 99 554 q 15 582 90 582 l 21 611 l 218 611 l 322 169 q 366 227 329 179 q 416 294 403 275 q 459 357 429 313 q 504 429 489 401 q 537 496 519 457 q 564 569 554 535 q 492 582 547 582 l 497 611 l 642 611 q 573 427 628 525 q 460 258 518 329 q 352 113 403 186 q 294 0 301 40 l 226 0 z "},"w":{"ha":986,"x_min":15,"x_max":992,"o":"m 592 511 l 672 169 q 716 227 679 179 q 766 294 753 275 q 809 357 779 313 q 854 429 839 401 q 887 496 869 457 q 914 569 904 535 q 842 582 897 582 l 847 611 l 992 611 q 923 427 978 525 q 810 258 868 329 q 702 113 753 186 q 644 0 651 40 l 576 0 l 496 353 l 294 0 l 226 0 l 99 554 q 15 582 90 582 l 21 611 l 218 611 l 322 169 l 517 511 l 592 511 z "},"x":{"ha":650,"x_min":-47,"x_max":654,"o":"m 654 611 l 649 582 q 551 556 574 582 l 382 353 l 519 49 q 599 29 528 29 l 593 0 l 454 0 q 399 15 415 0 q 360 83 383 31 l 288 242 l 85 0 l -47 0 l -42 29 q 57 58 32 29 l 260 300 l 142 563 q 64 582 133 582 l 69 611 l 188 611 q 258 599 242 611 q 301 528 275 586 l 354 411 l 522 611 l 654 611 z "},"y":{"ha":618,"x_min":-6,"x_max":640,"o":"m 225 0 l 97 554 q 14 582 89 582 l 19 611 l 217 611 l 321 169 l 546 567 q 471 582 528 582 l 476 611 l 640 611 l 213 -142 q 47 -256 146 -256 q 11 -243 28 -256 q -6 -212 -6 -231 q 11 -171 -6 -190 q 49 -151 28 -151 q 74 -163 60 -151 q 97 -175 88 -175 q 140 -150 126 -175 l 225 0 z "},"z":{"ha":594,"x_min":-32,"x_max":596,"o":"m 482 0 l -32 0 l 432 569 l 165 569 q 122 482 135 557 l 93 482 l 115 611 l 596 611 l 132 42 l 432 42 q 475 129 463 54 l 504 129 l 482 0 z "},"{":{"ha":369,"x_min":24,"x_max":407,"o":"m 53 -85 q 84 69 58 -49 q 114 208 110 186 q 117 231 117 225 q 94 277 117 264 q 24 290 71 290 l 29 322 q 111 340 83 322 q 147 406 139 358 q 165 545 151 429 q 183 697 178 661 q 407 825 206 825 l 403 793 q 319 775 349 793 q 282 710 290 757 q 265 570 278 686 q 247 418 253 454 q 146 307 235 336 q 213 219 213 282 q 211 196 213 204 q 178 42 206 160 q 146 -97 150 -75 q 144 -118 144 -106 q 168 -166 144 -153 q 239 -179 192 -179 l 233 -212 q 50 -108 50 -212 q 53 -85 50 -101 z "},"|":{"ha":265,"x_min":42,"x_max":250,"o":"m 200 903 l 250 903 l 92 -42 l 42 -42 l 200 903 z "},"}":{"ha":369,"x_min":-53,"x_max":332,"o":"m 303 697 q 272 544 297 661 q 242 404 246 426 q 239 382 239 388 q 262 335 239 349 q 332 322 285 322 l 326 290 q 244 272 272 290 q 208 207 217 254 q 191 67 204 183 q 172 -85 178 -49 q -53 -212 150 -212 l -47 -181 q 36 -162 7 -181 q 74 -97 65 -144 q 90 42 78 -74 q 107 194 101 158 q 210 306 119 275 q 143 393 143 331 q 144 417 143 408 q 178 570 150 453 q 210 710 206 688 q 211 731 211 718 q 115 792 211 792 l 121 825 q 306 721 306 825 q 303 697 306 714 z "},"~":{"ha":763,"x_min":75,"x_max":701,"o":"m 528 289 q 365 337 488 289 q 218 385 243 385 q 142 361 165 385 q 111 289 119 338 l 75 289 q 247 472 106 472 q 410 424 288 472 q 557 376 532 376 q 633 400 610 376 q 665 472 657 424 l 701 472 q 528 289 671 289 z "}," ":{"ha":333,"x_min":0,"x_max":0,"o":""},"¡":{"ha":325,"x_min":18,"x_max":294,"o":"m 294 664 q 265 594 294 625 q 197 564 236 564 q 147 585 168 564 q 125 635 125 606 q 156 704 125 672 q 225 736 186 736 q 274 715 253 736 q 294 664 294 694 m 181 464 q 197 401 197 464 q 183 168 197 357 q 156 -90 168 -21 q 78 -153 146 -153 q 35 -140 51 -153 q 18 -103 18 -126 q 19 -90 18 -94 q 76 150 28 -40 q 133 369 125 340 q 181 464 163 464 z "},"¢":{"ha":658,"x_min":33,"x_max":607,"o":"m 479 449 q 499 497 479 481 q 538 514 518 514 q 457 581 532 569 l 278 56 q 340 39 307 39 q 550 131 463 39 l 581 114 q 460 17 529 49 q 283 -14 390 -14 q 253 -12 263 -14 l 197 -178 l 147 -168 l 203 -4 q 33 242 33 40 q 133 517 33 408 q 400 625 233 625 l 419 625 l 479 796 l 528 786 l 471 621 q 607 503 607 601 q 587 435 607 461 q 533 408 567 408 q 479 449 479 408 m 406 583 q 240 497 310 582 q 171 281 171 411 q 236 89 171 161 l 406 583 z "},"£":{"ha":742,"x_min":0,"x_max":688,"o":"m 368 479 q 358 371 365 454 q 340 235 350 288 q 310 139 329 182 q 436 100 368 100 q 544 113 497 100 q 610 140 590 125 q 643 168 629 156 q 660 181 657 181 q 671 164 672 181 q 660 140 669 157 q 629 96 650 122 q 581 46 608 69 q 512 6 554 22 q 424 -11 469 -11 q 264 63 335 -11 q 119 -14 199 -14 q 30 15 60 -14 q 0 90 0 44 q 44 183 0 142 q 138 225 89 225 q 218 204 181 225 q 229 334 225 249 q 242 479 233 419 l 147 479 l 157 540 l 251 540 q 343 758 282 690 q 499 826 404 826 q 635 799 583 826 q 688 722 688 772 q 666 670 688 690 q 617 650 644 650 q 584 662 597 650 q 571 694 571 674 q 592 738 571 719 l 592 742 q 563 774 592 763 q 506 785 535 785 q 376 540 418 785 l 524 540 l 514 479 l 368 479 m 129 178 q 74 155 99 178 q 49 99 49 132 q 69 51 49 69 q 122 33 90 33 q 201 133 172 33 q 129 178 164 178 z "},"¤":{"ha":711,"x_min":38,"x_max":678,"o":"m 157 331 q 204 213 157 260 q 325 165 251 165 q 488 233 415 165 q 560 397 560 301 q 513 515 560 468 q 392 563 465 563 q 229 494 301 563 q 157 331 157 426 m 624 408 q 536 203 624 294 l 599 131 l 546 86 l 486 160 q 314 103 404 103 q 160 160 221 103 l 74 86 l 38 131 l 125 204 q 93 321 93 258 q 181 526 93 433 l 117 603 l 168 647 l 232 569 q 401 625 313 625 q 553 571 489 625 l 640 647 l 678 603 l 590 528 q 624 408 624 478 z "},"¥":{"ha":756,"x_min":101,"x_max":792,"o":"m 376 813 l 371 783 q 313 778 333 783 l 410 371 l 635 768 q 558 783 617 783 l 564 813 l 792 813 l 786 783 q 696 757 710 783 l 440 306 l 550 306 l 539 244 l 421 244 l 408 167 l 526 167 l 517 106 l 399 106 l 390 57 q 474 29 399 29 l 468 0 l 165 0 l 171 29 q 263 57 247 29 l 271 106 l 150 106 l 160 167 l 281 167 l 293 244 l 172 244 l 183 306 l 289 306 l 185 756 q 101 783 176 783 l 107 813 l 376 813 z "},"¦":{"ha":272,"x_min":44,"x_max":253,"o":"m 203 903 l 253 903 l 186 503 l 136 503 l 203 903 m 111 358 l 161 358 l 94 -42 l 44 -42 l 111 358 z "},"§":{"ha":571,"x_min":14,"x_max":538,"o":"m 538 699 q 521 655 538 674 q 481 636 504 636 q 450 649 463 636 q 438 679 438 663 q 439 694 438 683 q 440 710 440 704 q 424 773 440 746 q 375 800 407 800 q 260 710 260 800 q 298 628 260 682 q 382 523 336 575 q 466 406 428 471 q 504 294 504 342 q 452 141 504 201 q 331 58 400 81 q 403 -93 403 -26 q 331 -211 403 -161 q 160 -261 260 -261 q 57 -216 100 -261 q 14 -132 14 -171 q 31 -88 14 -107 q 71 -69 47 -69 q 100 -83 88 -69 q 113 -112 113 -96 q 111 -127 113 -117 q 110 -143 110 -137 q 126 -206 110 -179 q 175 -233 143 -233 q 290 -143 290 -233 q 252 -62 290 -115 q 168 44 214 -8 q 84 160 122 96 q 46 272 46 225 q 98 426 46 365 q 219 508 150 486 q 147 660 147 593 q 219 778 147 728 q 392 828 292 828 q 494 783 451 828 q 538 699 538 738 m 253 471 q 142 347 142 438 q 146 309 142 328 q 161 269 150 290 q 180 235 172 249 q 207 198 188 221 q 235 165 226 175 q 268 128 244 154 q 299 96 292 103 q 408 219 408 129 q 404 258 408 239 q 389 297 400 276 q 371 331 378 318 q 343 369 364 344 q 316 401 322 393 q 283 438 310 410 q 253 471 257 467 z "},"¨":{"ha":558,"x_min":210,"x_max":604,"o":"m 465 751 q 490 807 465 783 q 546 831 515 831 q 588 814 571 831 q 604 774 604 797 q 579 718 604 742 q 524 694 554 694 q 482 711 499 694 q 465 751 465 728 m 210 751 q 235 807 210 783 q 290 831 260 831 q 332 814 315 831 q 349 774 349 797 q 324 718 349 742 q 268 694 299 694 q 226 711 243 694 q 210 751 210 728 z "},"©":{"ha":897,"x_min":64,"x_max":842,"o":"m 101 315 q 184 109 101 192 q 394 26 267 26 q 656 128 538 26 q 799 372 775 229 q 803 429 803 401 q 721 635 803 553 q 511 718 639 718 q 228 599 356 718 q 101 315 101 481 m 517 756 q 749 664 657 756 q 842 436 842 572 q 836 372 842 401 q 678 101 810 214 q 389 -11 547 -11 q 156 81 249 -11 q 64 308 64 172 q 131 535 64 431 q 301 697 197 639 q 517 756 406 756 m 500 558 q 384 494 432 558 q 336 336 336 429 q 367 234 336 269 q 443 199 399 199 q 515 224 479 199 q 565 276 550 249 l 593 263 q 422 161 536 161 q 293 210 338 161 q 249 333 249 260 q 331 522 249 449 q 507 596 413 596 q 542 591 525 596 q 568 581 558 586 q 579 575 578 575 q 583 589 582 575 l 614 589 l 604 486 l 576 486 q 558 540 575 521 q 500 558 542 558 z "},"ª":{"ha":506,"x_min":64,"x_max":425,"o":"m 69 215 l 403 215 l 397 179 l 64 179 l 69 215 m 201 572 q 218 538 224 565 q 174 507 214 507 q 144 540 144 507 q 183 608 144 585 q 279 632 222 632 q 393 536 393 632 q 390 508 393 528 l 368 371 q 379 335 363 335 q 399 351 396 335 l 425 351 q 402 311 419 322 q 346 300 385 300 q 299 325 311 300 q 194 299 250 299 q 97 369 97 299 q 111 417 97 397 q 153 449 125 438 q 203 468 181 461 q 262 483 225 475 q 311 493 299 490 q 315 538 315 519 q 265 593 315 593 q 201 572 218 593 m 307 463 q 279 455 300 461 q 251 447 258 449 q 227 439 243 444 q 205 428 211 433 q 190 413 199 422 q 178 394 181 404 q 175 369 175 383 q 211 336 175 336 q 292 356 253 336 q 294 390 292 371 l 307 463 z "},"«":{"ha":610,"x_min":65,"x_max":558,"o":"m 311 450 l 558 581 l 553 544 l 410 415 l 508 286 l 503 250 l 300 381 q 288 415 283 392 q 311 450 293 440 m 89 450 l 336 581 l 331 544 l 188 415 l 286 286 l 281 250 l 78 381 q 65 415 61 392 q 89 450 71 440 z "},"¬":{"ha":596,"x_min":101,"x_max":517,"o":"m 449 411 l 101 411 l 111 472 l 517 472 l 486 289 l 428 289 l 449 411 z "},"­":{"ha":554,"x_min":96,"x_max":482,"o":"m 115 472 l 482 472 l 463 411 l 96 411 l 115 472 z "},"®":{"ha":899,"x_min":64,"x_max":842,"o":"m 101 315 q 184 109 101 192 q 394 26 267 26 q 676 144 550 26 q 803 429 803 263 q 721 635 803 553 q 511 718 639 718 q 228 599 354 718 q 101 315 101 481 m 517 756 q 749 664 657 756 q 842 436 842 572 q 775 210 842 314 q 604 47 708 106 q 389 -11 500 -11 q 156 81 249 -11 q 64 308 64 172 q 131 535 64 431 q 301 697 197 639 q 517 756 406 756 m 235 169 l 240 197 q 285 207 275 197 l 343 553 q 301 561 342 561 l 306 589 l 469 589 q 592 561 551 589 q 633 493 633 533 q 603 415 633 449 q 525 367 572 382 l 588 208 q 632 197 589 197 l 626 169 l 590 169 q 525 176 540 169 q 499 210 510 183 l 442 354 l 388 354 l 363 207 q 404 197 364 197 l 399 169 l 235 169 m 421 553 l 393 392 l 444 392 q 526 417 501 392 q 550 499 550 443 q 464 553 550 553 l 421 553 z "},"¯":{"ha":533,"x_min":203,"x_max":579,"o":"m 213 775 l 579 775 l 569 714 l 203 714 l 213 775 z "},"°":{"ha":435,"x_min":113,"x_max":433,"o":"m 290 818 q 207 783 244 818 q 169 700 169 749 q 194 640 169 664 q 256 617 218 617 q 338 651 301 617 q 375 733 375 685 q 351 794 375 769 q 290 818 328 818 m 113 692 q 170 821 113 767 q 299 875 228 875 q 395 837 357 875 q 433 742 433 799 q 375 613 433 667 q 246 560 317 560 q 150 598 188 560 q 113 692 113 636 z "},"±":{"ha":586,"x_min":67,"x_max":525,"o":"m 78 247 l 475 247 l 464 186 l 67 186 l 78 247 m 346 483 l 322 343 l 261 343 l 285 483 l 117 483 l 128 544 l 296 544 l 319 685 l 381 685 l 357 544 l 525 544 l 514 483 l 346 483 z "},"²":{"ha":503,"x_min":57,"x_max":496,"o":"m 385 467 q 447 526 422 481 l 478 526 l 417 389 l 57 389 l 58 396 q 113 455 61 413 q 226 544 165 497 q 338 656 288 590 q 389 779 389 721 q 314 847 389 847 q 232 833 265 847 q 185 803 199 819 q 161 772 172 786 q 142 758 150 758 q 131 774 126 758 q 193 863 136 810 q 336 917 250 917 q 496 803 496 917 q 455 701 496 757 q 365 603 414 644 q 263 521 315 563 q 199 467 210 479 l 385 467 z "},"³":{"ha":494,"x_min":69,"x_max":481,"o":"m 481 811 q 393 682 481 728 q 467 578 467 651 q 409 438 467 492 q 238 383 351 383 q 147 399 188 383 q 88 433 106 415 q 69 465 69 451 q 118 524 69 524 q 141 508 133 524 q 152 474 149 493 q 177 440 156 456 q 239 425 199 425 q 342 465 311 425 q 374 561 374 504 q 306 644 374 644 q 281 642 294 644 q 258 639 267 639 q 242 644 249 639 q 236 657 235 650 q 250 669 238 669 q 260 672 253 671 q 305 686 289 681 q 342 704 321 692 q 374 737 364 717 q 385 783 385 757 q 363 830 385 813 q 301 847 340 847 q 234 835 261 847 q 197 810 207 824 q 178 785 188 797 q 160 774 168 774 q 150 780 153 774 q 149 790 147 786 q 203 869 154 822 q 324 917 251 917 q 481 811 481 917 z "},"´":{"ha":417,"x_min":200,"x_max":488,"o":"m 340 919 l 488 919 l 236 694 l 200 694 l 340 919 z "},"µ":{"ha":808,"x_min":18,"x_max":728,"o":"m 167 -201 q 142 -258 167 -237 q 86 -278 118 -278 q 39 -261 60 -278 q 18 -208 18 -244 q 21 -186 18 -203 l 154 611 l 279 611 l 206 174 q 201 133 201 153 q 310 33 201 33 q 492 133 397 33 l 572 611 l 697 611 l 614 115 q 611 85 611 93 q 649 28 611 28 q 684 38 667 28 q 703 63 701 49 l 728 63 q 689 5 721 24 q 586 -14 657 -14 q 490 85 496 -14 q 282 -14 392 -14 q 115 33 164 -14 l 101 -46 q 100 -76 100 -57 q 133 -147 100 -119 q 167 -201 167 -175 z "},"¶":{"ha":740,"x_min":76,"x_max":753,"o":"m 115 0 l 121 29 q 213 57 197 29 l 265 372 q 125 429 174 382 q 76 551 76 476 q 163 735 76 658 q 419 813 250 813 l 753 813 l 747 783 q 656 756 671 783 l 539 57 q 622 29 547 29 l 617 0 l 401 0 l 529 765 l 458 765 l 331 0 l 115 0 z "},"·":{"ha":318,"x_min":83,"x_max":253,"o":"m 83 406 q 113 475 83 444 q 181 506 142 506 q 231 485 210 506 q 253 435 253 464 q 222 365 253 397 q 153 333 192 333 q 104 354 125 333 q 83 406 83 375 z "},"¸":{"ha":422,"x_min":39,"x_max":311,"o":"m 76 -246 q 162 -224 135 -246 q 189 -168 189 -201 q 114 -119 189 -119 l 175 17 l 228 17 l 188 -76 q 269 -97 228 -76 q 311 -157 311 -117 q 270 -242 311 -207 q 140 -276 229 -276 q 39 -267 93 -276 l 43 -243 q 76 -246 68 -246 z "},"¹":{"ha":339,"x_min":68,"x_max":313,"o":"m 113 706 q 145 750 121 717 q 187 806 169 783 q 226 855 204 828 q 263 896 247 882 q 288 910 279 910 l 313 910 l 232 435 q 290 421 238 421 l 285 389 l 68 389 l 74 421 q 133 435 122 421 l 185 736 q 135 693 176 731 l 113 706 z "},"º":{"ha":515,"x_min":61,"x_max":449,"o":"m 67 215 l 404 215 l 399 179 l 61 179 l 67 215 m 286 596 q 215 546 243 596 q 188 433 188 496 q 267 333 188 333 q 340 383 313 333 q 367 501 367 433 q 286 596 367 596 m 253 299 q 143 336 181 299 q 106 435 106 374 q 158 576 106 521 q 303 632 211 632 q 449 503 449 632 q 397 356 449 414 q 253 299 346 299 z "},"»":{"ha":610,"x_min":71,"x_max":564,"o":"m 540 381 l 293 250 l 299 286 l 442 415 l 343 544 l 349 581 l 551 450 q 564 415 568 439 q 540 381 558 390 m 318 381 l 71 250 l 76 286 l 219 415 l 121 544 l 126 581 l 329 450 q 342 415 346 439 q 318 381 336 390 z "},"¼":{"ha":967,"x_min":63,"x_max":900,"o":"m 107 706 q 140 750 115 717 q 181 806 164 783 q 220 855 199 828 q 258 896 242 882 q 282 910 274 910 l 307 910 l 226 435 q 285 421 232 421 l 279 389 l 63 389 l 68 421 q 128 435 117 421 l 179 736 q 129 693 171 731 l 107 706 m 881 521 l 824 186 l 900 186 l 893 146 l 817 146 l 800 46 q 857 32 806 32 l 851 0 l 638 0 l 643 32 q 703 46 693 32 l 719 146 l 496 146 l 822 521 l 881 521 m 726 186 l 761 394 l 581 186 l 726 186 m 97 -14 l 782 850 l 818 825 l 133 -39 l 97 -14 z "},"½":{"ha":1003,"x_min":63,"x_max":946,"o":"m 107 706 q 140 750 115 717 q 181 806 164 783 q 220 855 199 828 q 258 896 242 882 q 282 910 274 910 l 307 910 l 226 435 q 285 421 232 421 l 279 389 l 63 389 l 68 421 q 128 435 117 421 l 179 736 q 129 693 171 731 l 107 706 m 835 78 q 897 138 872 92 l 928 138 l 867 0 l 507 0 l 508 7 q 563 66 511 24 q 676 155 615 108 q 788 267 738 201 q 839 390 839 332 q 764 458 839 458 q 682 444 715 458 q 635 414 649 431 q 611 383 622 397 q 592 369 600 369 q 581 385 576 369 q 643 474 586 421 q 786 528 700 528 q 946 414 946 528 q 905 312 946 368 q 815 215 864 256 q 713 132 765 174 q 649 78 660 90 l 835 78 m 64 -14 l 749 850 l 785 825 l 100 -39 l 64 -14 z "},"¾":{"ha":1017,"x_min":60,"x_max":950,"o":"m 471 811 q 383 682 471 728 q 457 578 457 651 q 399 438 457 492 q 228 383 342 383 q 137 399 178 383 q 78 433 96 415 q 60 465 60 451 q 108 524 60 524 q 131 508 124 524 q 142 474 139 493 q 167 440 146 456 q 229 425 189 425 q 333 465 301 425 q 364 561 364 504 q 296 644 364 644 q 271 642 285 644 q 249 639 257 639 q 232 644 239 639 q 226 657 225 650 q 240 669 228 669 q 250 672 243 671 q 295 686 279 681 q 333 704 311 692 q 365 737 354 717 q 375 783 375 757 q 353 830 375 813 q 292 847 331 847 q 224 835 251 847 q 188 810 197 824 q 168 785 178 797 q 150 774 158 774 q 140 780 143 774 q 139 790 138 786 q 193 869 144 822 q 314 917 242 917 q 471 811 471 917 m 931 521 l 874 186 l 950 186 l 943 146 l 867 146 l 850 46 q 907 32 856 32 l 901 0 l 688 0 l 693 32 q 753 46 743 32 l 769 146 l 546 146 l 872 521 l 931 521 m 776 186 l 811 394 l 631 186 l 776 186 m 161 -14 l 846 850 l 882 825 l 197 -39 l 161 -14 z "},"¿":{"ha":549,"x_min":-4,"x_max":458,"o":"m 432 664 q 403 594 432 625 q 335 564 374 564 q 284 585 306 564 q 263 635 263 606 q 293 704 263 672 q 363 736 324 736 q 411 715 390 736 q 432 664 432 694 m 356 47 q 372 88 356 72 q 411 104 389 104 q 444 91 431 104 q 458 51 458 78 q 388 -90 458 -26 q 207 -153 317 -153 q 45 -101 94 -153 q -4 24 -4 -50 q 40 155 -4 90 q 139 262 85 219 q 242 355 193 304 q 299 444 292 406 q 307 458 300 451 q 319 464 314 464 q 331 458 325 464 q 335 444 336 451 q 301 353 326 397 q 246 273 276 308 q 186 199 215 238 q 138 108 157 160 q 118 -6 118 56 q 144 -86 118 -61 q 228 -111 171 -111 q 326 -76 285 -111 q 367 -1 367 -42 q 361 24 367 10 q 356 47 356 38 z "},"À":{"ha":754,"x_min":-67,"x_max":721,"o":"m 443 1086 l 508 861 l 472 861 l 296 1086 l 443 1086 m 411 0 l 417 29 q 500 46 481 29 l 457 258 l 190 258 l 85 54 q 167 29 94 29 l 161 0 l -67 0 l -61 29 q 31 58 17 29 l 426 813 l 493 813 l 636 58 q 721 29 642 29 l 715 0 l 411 0 m 385 628 l 215 304 l 449 304 l 385 628 z "},"Á":{"ha":754,"x_min":-67,"x_max":742,"o":"m 594 1086 l 742 1086 l 490 861 l 454 861 l 594 1086 m 411 0 l 417 29 q 500 46 481 29 l 457 258 l 190 258 l 85 54 q 167 29 94 29 l 161 0 l -67 0 l -61 29 q 31 58 17 29 l 426 813 l 493 813 l 636 58 q 721 29 642 29 l 715 0 l 411 0 m 385 628 l 215 304 l 449 304 l 385 628 z "},"Â":{"ha":754,"x_min":-67,"x_max":721,"o":"m 544 1086 l 638 861 l 601 861 l 492 982 l 343 861 l 307 861 l 475 1086 l 544 1086 m 411 0 l 417 29 q 500 46 481 29 l 457 258 l 190 258 l 85 54 q 167 29 94 29 l 161 0 l -67 0 l -61 29 q 31 58 17 29 l 426 813 l 493 813 l 636 58 q 721 29 642 29 l 715 0 l 411 0 m 385 628 l 215 304 l 449 304 l 385 628 z "},"Ã":{"ha":754,"x_min":-67,"x_max":721,"o":"m 576 861 q 470 902 546 861 q 375 943 394 943 q 317 923 336 943 q 292 861 299 903 l 265 861 q 396 1017 290 1017 q 503 976 426 1017 q 600 935 581 935 q 657 955 639 935 q 682 1017 675 975 l 708 1017 q 576 861 683 861 m 411 0 l 417 29 q 500 46 481 29 l 457 258 l 190 258 l 85 54 q 167 29 94 29 l 161 0 l -67 0 l -61 29 q 31 58 17 29 l 426 813 l 493 813 l 636 58 q 721 29 642 29 l 715 0 l 411 0 m 385 628 l 215 304 l 449 304 l 385 628 z "},"Ä":{"ha":754,"x_min":-67,"x_max":721,"o":"m 542 918 q 567 974 542 950 q 622 997 592 997 q 664 981 647 997 q 681 940 681 964 q 656 885 681 908 q 600 861 631 861 q 558 878 575 861 q 542 918 542 894 m 286 918 q 311 974 286 950 q 367 997 336 997 q 408 981 392 997 q 425 940 425 964 q 400 885 425 908 q 344 861 375 861 q 303 878 319 861 q 286 918 286 894 m 411 0 l 417 29 q 500 46 481 29 l 457 258 l 190 258 l 85 54 q 167 29 94 29 l 161 0 l -67 0 l -61 29 q 31 58 17 29 l 426 813 l 493 813 l 636 58 q 721 29 642 29 l 715 0 l 411 0 m 385 628 l 215 304 l 449 304 l 385 628 z "},"Å":{"ha":754,"x_min":-67,"x_max":721,"o":"m 499 1022 q 446 1000 469 1022 q 422 946 422 978 q 438 907 422 922 q 476 892 453 892 q 530 914 506 892 q 554 968 554 936 q 538 1007 554 992 q 499 1022 522 1022 m 383 939 q 420 1025 383 990 q 506 1060 457 1060 q 568 1035 544 1060 q 592 975 592 1011 q 556 889 592 924 q 471 854 519 854 q 408 878 432 854 q 383 939 383 903 m 411 0 l 417 29 q 500 46 481 29 l 457 258 l 190 258 l 85 54 q 167 29 94 29 l 161 0 l -67 0 l -61 29 q 31 58 17 29 l 426 813 l 493 813 l 636 58 q 721 29 642 29 l 715 0 l 411 0 m 385 628 l 215 304 l 449 304 l 385 628 z "},"Æ":{"ha":1056,"x_min":-83,"x_max":1049,"o":"m -83 0 l -78 29 q 14 58 -6 29 l 14 57 l 531 768 q 454 783 517 783 l 460 813 l 1049 813 l 1026 678 l 997 678 q 1001 725 1001 707 q 983 765 1001 757 l 696 765 l 643 446 l 838 446 q 879 533 867 457 l 908 533 l 871 311 l 842 311 q 847 358 847 350 q 829 399 847 390 l 635 399 l 576 47 l 893 47 q 969 135 929 61 l 997 135 l 942 0 l 353 0 l 358 29 q 450 57 435 29 l 483 258 l 215 258 l 67 54 q 150 29 75 29 l 144 0 l 39 0 l 60 44 l 28 0 l -83 0 m 249 304 l 492 304 l 564 736 l 249 304 z "},"Ç":{"ha":785,"x_min":64,"x_max":764,"o":"m 278 -246 l 278 -247 q 363 -225 336 -247 q 390 -169 390 -203 q 315 -121 390 -121 l 364 -14 q 142 90 219 -3 q 64 317 64 182 q 110 529 64 431 q 228 691 156 628 q 388 790 300 754 q 564 825 476 825 q 654 804 606 825 q 711 783 703 783 q 732 811 728 783 l 764 811 l 749 635 l 718 635 q 679 738 718 697 q 557 778 640 778 q 314 644 417 778 q 211 319 211 511 q 276 107 211 182 q 438 32 340 32 q 583 80 507 32 q 688 182 658 128 l 718 165 q 417 -14 617 -7 l 389 -76 q 471 -97 429 -76 q 513 -157 513 -117 q 472 -242 513 -207 q 342 -276 431 -276 q 240 -267 294 -276 l 244 -243 q 278 -246 269 -246 z "},"È":{"ha":706,"x_min":3,"x_max":699,"o":"m 432 1086 l 497 861 l 461 861 l 285 1086 l 432 1086 m 3 0 l 8 29 q 100 57 85 29 l 217 756 q 133 783 208 783 l 139 813 l 699 813 l 676 678 l 647 678 q 651 725 651 707 q 633 765 651 757 l 346 765 l 293 446 l 488 446 q 529 533 517 457 l 558 533 l 521 311 l 492 311 q 497 358 497 350 q 479 399 497 390 l 285 399 l 226 47 l 543 47 q 619 135 579 61 l 647 135 l 592 0 l 3 0 z "},"É":{"ha":706,"x_min":3,"x_max":731,"o":"m 583 1086 l 731 1086 l 479 861 l 443 861 l 583 1086 m 3 0 l 8 29 q 100 57 85 29 l 217 756 q 133 783 208 783 l 139 813 l 699 813 l 676 678 l 647 678 q 651 725 651 707 q 633 765 651 757 l 346 765 l 293 446 l 488 446 q 529 533 517 457 l 558 533 l 521 311 l 492 311 q 497 358 497 350 q 479 399 497 390 l 285 399 l 226 47 l 543 47 q 619 135 579 61 l 647 135 l 592 0 l 3 0 z "},"Ê":{"ha":706,"x_min":3,"x_max":699,"o":"m 533 1086 l 626 861 l 590 861 l 481 982 l 332 861 l 296 861 l 464 1086 l 533 1086 m 3 0 l 8 29 q 100 57 85 29 l 217 756 q 133 783 208 783 l 139 813 l 699 813 l 676 678 l 647 678 q 651 725 651 707 q 633 765 651 757 l 346 765 l 293 446 l 488 446 q 529 533 517 457 l 558 533 l 521 311 l 492 311 q 497 358 497 350 q 479 399 497 390 l 285 399 l 226 47 l 543 47 q 619 135 579 61 l 647 135 l 592 0 l 3 0 z "},"Ë":{"ha":706,"x_min":3,"x_max":699,"o":"m 531 918 q 556 974 531 950 q 611 997 581 997 q 653 981 636 997 q 669 940 669 964 q 644 885 669 908 q 589 861 619 861 q 547 878 564 861 q 531 918 531 894 m 275 918 q 300 974 275 950 q 356 997 325 997 q 397 981 381 997 q 414 940 414 964 q 389 885 414 908 q 333 861 364 861 q 292 878 308 861 q 275 918 275 894 m 3 0 l 8 29 q 100 57 85 29 l 217 756 q 133 783 208 783 l 139 813 l 699 813 l 676 678 l 647 678 q 651 725 651 707 q 633 765 651 757 l 346 765 l 293 446 l 488 446 q 529 533 517 457 l 558 533 l 521 311 l 492 311 q 497 358 497 350 q 479 399 497 390 l 285 399 l 226 47 l 543 47 q 619 135 579 61 l 647 135 l 592 0 l 3 0 z "},"Ì":{"ha":428,"x_min":3,"x_max":442,"o":"m 267 1086 l 332 861 l 296 861 l 119 1086 l 267 1086 m 3 0 l 8 29 q 100 57 85 29 l 217 756 q 133 783 208 783 l 139 813 l 442 813 l 436 783 q 344 756 360 783 l 228 57 q 311 29 236 29 l 306 0 l 3 0 z "},"Í":{"ha":428,"x_min":3,"x_max":565,"o":"m 418 1086 l 565 1086 l 314 861 l 278 861 l 418 1086 m 3 0 l 8 29 q 100 57 85 29 l 217 756 q 133 783 208 783 l 139 813 l 442 813 l 436 783 q 344 756 360 783 l 228 57 q 311 29 236 29 l 306 0 l 3 0 z "},"Î":{"ha":428,"x_min":3,"x_max":461,"o":"m 368 1086 l 461 861 l 425 861 l 315 982 l 167 861 l 131 861 l 299 1086 l 368 1086 m 3 0 l 8 29 q 100 57 85 29 l 217 756 q 133 783 208 783 l 139 813 l 442 813 l 436 783 q 344 756 360 783 l 228 57 q 311 29 236 29 l 306 0 l 3 0 z "},"Ï":{"ha":428,"x_min":3,"x_max":504,"o":"m 365 918 q 390 974 365 950 q 446 997 415 997 q 488 981 471 997 q 504 940 504 964 q 479 885 504 908 q 424 861 454 861 q 382 878 399 861 q 365 918 365 894 m 110 918 q 135 974 110 950 q 190 997 160 997 q 232 981 215 997 q 249 940 249 964 q 224 885 249 908 q 168 861 199 861 q 126 878 143 861 q 110 918 110 894 m 3 0 l 8 29 q 100 57 85 29 l 217 756 q 133 783 208 783 l 139 813 l 442 813 l 436 783 q 344 756 360 783 l 228 57 q 311 29 236 29 l 306 0 l 3 0 z "},"Ð":{"ha":849,"x_min":-4,"x_max":800,"o":"m -4 -1 l 0 28 q 93 56 78 28 l 119 214 q 274 513 151 404 q 640 635 397 621 q 561 737 614 703 q 444 771 508 771 l 340 771 l 321 653 l 265 653 l 285 771 l 149 771 q 106 683 118 758 l 76 683 l 99 813 l 292 813 l 308 910 l 364 910 l 347 813 l 451 813 q 707 724 614 813 q 800 488 800 635 q 662 136 800 274 q 332 -1 524 -1 l -4 -1 m 653 593 q 375 492 472 582 q 256 267 278 403 l 219 46 l 340 46 q 445 76 390 46 q 549 163 500 107 q 631 308 599 218 q 663 504 663 399 q 653 593 663 547 z "},"Ñ":{"ha":893,"x_min":3,"x_max":919,"o":"m 635 861 q 528 902 604 861 q 433 943 453 943 q 376 923 394 943 q 350 861 357 903 l 324 861 q 454 1017 349 1017 q 562 976 485 1017 q 658 935 639 935 q 715 955 697 935 q 740 1017 733 975 l 767 1017 q 635 861 742 861 m 3 0 l 8 29 q 100 57 85 29 l 217 756 q 133 783 208 783 l 139 813 l 325 813 l 689 244 l 775 756 q 692 783 767 783 l 697 813 l 919 813 l 914 783 q 822 756 838 783 l 696 0 l 683 0 l 253 690 l 147 57 q 231 29 156 29 l 225 0 l 3 0 z "},"Ò":{"ha":894,"x_min":64,"x_max":847,"o":"m 503 1086 l 568 861 l 532 861 l 356 1086 l 503 1086 m 203 318 q 251 115 203 197 q 399 33 300 33 q 565 106 492 33 q 672 281 638 178 q 707 490 707 383 q 688 631 707 568 q 624 736 669 693 q 513 779 579 779 q 347 706 419 779 q 238 530 274 633 q 203 318 203 426 m 526 826 q 760 730 674 826 q 847 486 847 633 q 708 134 847 282 q 385 -14 569 -14 q 150 82 236 -14 q 64 325 64 178 q 202 678 64 531 q 526 826 340 826 z "},"Ó":{"ha":894,"x_min":64,"x_max":847,"o":"m 654 1086 l 801 1086 l 550 861 l 514 861 l 654 1086 m 203 318 q 251 115 203 197 q 399 33 300 33 q 565 106 492 33 q 672 281 638 178 q 707 490 707 383 q 688 631 707 568 q 624 736 669 693 q 513 779 579 779 q 347 706 419 779 q 238 530 274 633 q 203 318 203 426 m 526 826 q 760 730 674 826 q 847 486 847 633 q 708 134 847 282 q 385 -14 569 -14 q 150 82 236 -14 q 64 325 64 178 q 202 678 64 531 q 526 826 340 826 z "},"Ô":{"ha":894,"x_min":64,"x_max":847,"o":"m 604 1086 l 697 861 l 661 861 l 551 982 l 403 861 l 367 861 l 535 1086 l 604 1086 m 203 318 q 251 115 203 197 q 399 33 300 33 q 565 106 492 33 q 672 281 638 178 q 707 490 707 383 q 688 631 707 568 q 624 736 669 693 q 513 779 579 779 q 347 706 419 779 q 238 530 274 633 q 203 318 203 426 m 526 826 q 760 730 674 826 q 847 486 847 633 q 708 134 847 282 q 385 -14 569 -14 q 150 82 236 -14 q 64 325 64 178 q 202 678 64 531 q 526 826 340 826 z "},"Õ":{"ha":894,"x_min":64,"x_max":847,"o":"m 636 861 q 530 902 606 861 q 435 943 454 943 q 377 923 396 943 q 351 861 358 903 l 325 861 q 456 1017 350 1017 q 563 976 486 1017 q 660 935 640 935 q 717 955 699 935 q 742 1017 735 975 l 768 1017 q 636 861 743 861 m 203 318 q 251 115 203 197 q 399 33 300 33 q 565 106 492 33 q 672 281 638 178 q 707 490 707 383 q 688 631 707 568 q 624 736 669 693 q 513 779 579 779 q 347 706 419 779 q 238 530 274 633 q 203 318 203 426 m 526 826 q 760 730 674 826 q 847 486 847 633 q 708 134 847 282 q 385 -14 569 -14 q 150 82 236 -14 q 64 325 64 178 q 202 678 64 531 q 526 826 340 826 z "},"Ö":{"ha":894,"x_min":64,"x_max":847,"o":"m 601 918 q 626 974 601 950 q 682 997 651 997 q 724 981 707 997 q 740 940 740 964 q 715 885 740 908 q 660 861 690 861 q 618 878 635 861 q 601 918 601 894 m 346 918 q 371 974 346 950 q 426 997 396 997 q 468 981 451 997 q 485 940 485 964 q 460 885 485 908 q 404 861 435 861 q 363 878 379 861 q 346 918 346 894 m 203 318 q 251 115 203 197 q 399 33 300 33 q 565 106 492 33 q 672 281 638 178 q 707 490 707 383 q 688 631 707 568 q 624 736 669 693 q 513 779 579 779 q 347 706 419 779 q 238 530 274 633 q 203 318 203 426 m 526 826 q 760 730 674 826 q 847 486 847 633 q 708 134 847 282 q 385 -14 569 -14 q 150 82 236 -14 q 64 325 64 178 q 202 678 64 531 q 526 826 340 826 z "},"×":{"ha":583,"x_min":54,"x_max":556,"o":"m 347 442 l 496 264 l 446 221 l 297 399 l 90 221 l 54 264 l 261 442 l 114 619 l 164 663 l 311 485 l 519 663 l 556 619 l 347 442 z "},"Ø":{"ha":894,"x_min":64,"x_max":847,"o":"m 221 -39 l 181 -14 l 210 32 q 101 152 139 75 q 64 325 64 229 q 202 678 64 531 q 526 826 340 826 q 683 790 615 826 l 721 850 l 761 825 l 724 764 q 847 486 847 669 q 708 134 847 282 q 385 -14 569 -14 q 251 11 310 -14 l 221 -39 m 669 678 l 289 71 q 399 33 333 33 q 565 106 492 33 q 672 281 638 178 q 707 490 707 383 q 669 678 707 603 m 640 721 q 513 779 590 779 q 347 706 419 779 q 238 530 274 633 q 203 318 203 426 q 257 107 203 185 l 640 721 z "},"Ù":{"ha":860,"x_min":104,"x_max":899,"o":"m 521 1086 l 586 861 l 550 861 l 374 1086 l 521 1086 m 414 33 q 583 111 507 33 q 681 317 660 189 l 754 756 q 671 783 746 783 l 676 813 l 899 813 l 893 783 q 801 756 817 783 l 733 344 q 608 75 703 164 q 392 -14 514 -14 q 110 244 110 -14 q 119 344 110 281 l 188 756 q 104 783 179 783 l 110 813 l 413 813 l 407 783 q 315 756 331 783 l 243 325 q 236 244 236 276 q 284 88 236 143 q 414 33 332 33 z "},"Ú":{"ha":860,"x_min":104,"x_max":899,"o":"m 672 1086 l 819 1086 l 568 861 l 532 861 l 672 1086 m 414 33 q 583 111 507 33 q 681 317 660 189 l 754 756 q 671 783 746 783 l 676 813 l 899 813 l 893 783 q 801 756 817 783 l 733 344 q 608 75 703 164 q 392 -14 514 -14 q 110 244 110 -14 q 119 344 110 281 l 188 756 q 104 783 179 783 l 110 813 l 413 813 l 407 783 q 315 756 331 783 l 243 325 q 236 244 236 276 q 284 88 236 143 q 414 33 332 33 z "},"Û":{"ha":860,"x_min":104,"x_max":899,"o":"m 622 1086 l 715 861 l 679 861 l 569 982 l 421 861 l 385 861 l 553 1086 l 622 1086 m 414 33 q 583 111 507 33 q 681 317 660 189 l 754 756 q 671 783 746 783 l 676 813 l 899 813 l 893 783 q 801 756 817 783 l 733 344 q 608 75 703 164 q 392 -14 514 -14 q 110 244 110 -14 q 119 344 110 281 l 188 756 q 104 783 179 783 l 110 813 l 413 813 l 407 783 q 315 756 331 783 l 243 325 q 236 244 236 276 q 284 88 236 143 q 414 33 332 33 z "},"Ü":{"ha":860,"x_min":104,"x_max":899,"o":"m 619 918 q 644 974 619 950 q 700 997 669 997 q 742 981 725 997 q 758 940 758 964 q 733 885 758 908 q 678 861 708 861 q 636 878 653 861 q 619 918 619 894 m 364 918 q 389 974 364 950 q 444 997 414 997 q 486 981 469 997 q 503 940 503 964 q 478 885 503 908 q 422 861 453 861 q 381 878 397 861 q 364 918 364 894 m 414 33 q 583 111 507 33 q 681 317 660 189 l 754 756 q 671 783 746 783 l 676 813 l 899 813 l 893 783 q 801 756 817 783 l 733 344 q 608 75 703 164 q 392 -14 514 -14 q 110 244 110 -14 q 119 344 110 281 l 188 756 q 104 783 179 783 l 110 813 l 413 813 l 407 783 q 315 756 331 783 l 243 325 q 236 244 236 276 q 284 88 236 143 q 414 33 332 33 z "},"Ý":{"ha":779,"x_min":56,"x_max":864,"o":"m 633 1086 l 781 1086 l 529 861 l 493 861 l 633 1086 m 365 813 l 360 783 q 276 767 294 783 l 429 390 l 713 758 q 631 783 703 783 l 636 813 l 864 813 l 858 783 q 776 765 799 783 l 457 350 l 408 57 q 492 29 417 29 l 486 0 l 183 0 l 189 29 q 281 57 265 29 l 322 306 l 140 756 q 56 783 125 783 l 61 813 l 365 813 z "},"Þ":{"ha":731,"x_min":3,"x_max":714,"o":"m 3 0 l 8 29 q 100 57 85 29 l 217 756 q 133 783 208 783 l 139 813 l 442 813 l 436 783 q 344 756 360 783 l 325 639 l 397 639 q 636 588 558 639 q 714 457 714 538 q 614 267 714 338 q 340 196 514 196 l 251 196 l 228 57 q 311 29 236 29 l 306 0 l 3 0 m 317 592 l 258 243 l 347 243 q 576 471 576 243 q 534 561 576 531 q 389 592 492 592 l 317 592 z "},"ß":{"ha":696,"x_min":-83,"x_max":639,"o":"m 151 -61 q 82 -163 139 -132 q -83 -194 25 -194 l -79 -162 q -11 -131 -40 -162 q 28 -47 18 -100 l 146 658 q 234 823 165 771 q 385 875 303 875 q 544 840 496 875 q 592 739 592 806 q 544 595 592 658 q 419 499 496 532 q 575 419 511 482 q 639 286 639 357 q 556 72 639 157 q 365 -14 472 -14 q 253 23 288 -14 q 218 94 218 60 q 281 175 218 175 q 302 152 297 175 q 306 101 307 129 q 318 51 304 74 q 364 28 332 28 q 466 101 413 28 q 519 268 519 174 q 464 413 519 349 q 329 478 408 478 q 313 482 318 478 q 308 492 307 486 q 335 511 311 504 q 429 592 381 528 q 478 718 478 657 q 460 798 478 763 q 397 833 442 833 q 324 792 360 833 q 275 678 288 751 l 151 -61 z "},"à":{"ha":669,"x_min":8,"x_max":596,"o":"m 340 940 l 406 715 l 369 715 l 193 940 l 340 940 m 222 467 q 201 419 222 436 q 151 403 181 403 q 115 417 129 403 q 101 456 101 432 q 173 581 101 536 q 357 625 244 625 q 521 576 468 625 q 574 444 574 526 q 568 392 574 428 l 528 147 q 525 117 525 125 q 544 54 525 76 q 596 32 563 32 l 590 0 q 414 51 453 0 q 192 -14 317 -14 q 8 115 8 -14 q 23 181 8 151 q 65 231 38 211 q 124 267 93 251 q 199 294 156 282 q 278 314 242 306 q 360 332 314 322 q 436 350 407 342 q 446 451 446 418 q 415 543 446 511 q 335 575 385 575 q 182 508 211 575 q 222 467 222 508 m 431 319 q 369 303 413 314 q 301 284 325 292 q 241 260 276 276 q 186 226 206 244 q 152 179 167 208 q 138 113 138 150 q 224 33 138 33 q 400 81 319 33 q 397 104 397 94 q 400 133 397 114 l 431 319 z "},"á":{"ha":669,"x_min":8,"x_max":639,"o":"m 492 940 l 639 940 l 388 715 l 351 715 l 492 940 m 222 467 q 201 419 222 436 q 151 403 181 403 q 115 417 129 403 q 101 456 101 432 q 173 581 101 536 q 357 625 244 625 q 521 576 468 625 q 574 444 574 526 q 568 392 574 428 l 528 147 q 525 117 525 125 q 544 54 525 76 q 596 32 563 32 l 590 0 q 414 51 453 0 q 192 -14 317 -14 q 8 115 8 -14 q 23 181 8 151 q 65 231 38 211 q 124 267 93 251 q 199 294 156 282 q 278 314 242 306 q 360 332 314 322 q 436 350 407 342 q 446 451 446 418 q 415 543 446 511 q 335 575 385 575 q 182 508 211 575 q 222 467 222 508 m 431 319 q 369 303 413 314 q 301 284 325 292 q 241 260 276 276 q 186 226 206 244 q 152 179 167 208 q 138 113 138 150 q 224 33 138 33 q 400 81 319 33 q 397 104 397 94 q 400 133 397 114 l 431 319 z "},"â":{"ha":669,"x_min":8,"x_max":596,"o":"m 442 940 l 535 715 l 499 715 l 389 836 l 240 715 l 204 715 l 372 940 l 442 940 m 222 467 q 201 419 222 436 q 151 403 181 403 q 115 417 129 403 q 101 456 101 432 q 173 581 101 536 q 357 625 244 625 q 521 576 468 625 q 574 444 574 526 q 568 392 574 428 l 528 147 q 525 117 525 125 q 544 54 525 76 q 596 32 563 32 l 590 0 q 414 51 453 0 q 192 -14 317 -14 q 8 115 8 -14 q 23 181 8 151 q 65 231 38 211 q 124 267 93 251 q 199 294 156 282 q 278 314 242 306 q 360 332 314 322 q 436 350 407 342 q 446 451 446 418 q 415 543 446 511 q 335 575 385 575 q 182 508 211 575 q 222 467 222 508 m 431 319 q 369 303 413 314 q 301 284 325 292 q 241 260 276 276 q 186 226 206 244 q 152 179 167 208 q 138 113 138 150 q 224 33 138 33 q 400 81 319 33 q 397 104 397 94 q 400 133 397 114 l 431 319 z "},"ã":{"ha":669,"x_min":8,"x_max":606,"o":"m 474 715 q 367 756 443 715 q 272 797 292 797 q 215 777 233 797 q 189 715 196 757 l 163 715 q 293 871 188 871 q 401 830 324 871 q 497 789 478 789 q 554 809 536 789 q 579 871 572 829 l 606 871 q 474 715 581 715 m 222 467 q 201 419 222 436 q 151 403 181 403 q 115 417 129 403 q 101 456 101 432 q 173 581 101 536 q 357 625 244 625 q 521 576 468 625 q 574 444 574 526 q 568 392 574 428 l 528 147 q 525 117 525 125 q 544 54 525 76 q 596 32 563 32 l 590 0 q 414 51 453 0 q 192 -14 317 -14 q 8 115 8 -14 q 23 181 8 151 q 65 231 38 211 q 124 267 93 251 q 199 294 156 282 q 278 314 242 306 q 360 332 314 322 q 436 350 407 342 q 446 451 446 418 q 415 543 446 511 q 335 575 385 575 q 182 508 211 575 q 222 467 222 508 m 431 319 q 369 303 413 314 q 301 284 325 292 q 241 260 276 276 q 186 226 206 244 q 152 179 167 208 q 138 113 138 150 q 224 33 138 33 q 400 81 319 33 q 397 104 397 94 q 400 133 397 114 l 431 319 z "},"ä":{"ha":669,"x_min":8,"x_max":596,"o":"m 439 772 q 464 828 439 804 q 519 851 489 851 q 561 835 544 851 q 578 794 578 818 q 553 739 578 763 q 497 715 528 715 q 456 732 472 715 q 439 772 439 749 m 183 772 q 208 828 183 804 q 264 851 233 851 q 306 835 289 851 q 322 794 322 818 q 297 739 322 763 q 242 715 272 715 q 200 732 217 715 q 183 772 183 749 m 222 467 q 201 419 222 436 q 151 403 181 403 q 115 417 129 403 q 101 456 101 432 q 173 581 101 536 q 357 625 244 625 q 521 576 468 625 q 574 444 574 526 q 568 392 574 428 l 528 147 q 525 117 525 125 q 544 54 525 76 q 596 32 563 32 l 590 0 q 414 51 453 0 q 192 -14 317 -14 q 8 115 8 -14 q 23 181 8 151 q 65 231 38 211 q 124 267 93 251 q 199 294 156 282 q 278 314 242 306 q 360 332 314 322 q 436 350 407 342 q 446 451 446 418 q 415 543 446 511 q 335 575 385 575 q 182 508 211 575 q 222 467 222 508 m 431 319 q 369 303 413 314 q 301 284 325 292 q 241 260 276 276 q 186 226 206 244 q 152 179 167 208 q 138 113 138 150 q 224 33 138 33 q 400 81 319 33 q 397 104 397 94 q 400 133 397 114 l 431 319 z "},"å":{"ha":669,"x_min":8,"x_max":596,"o":"m 396 876 q 343 854 367 876 q 319 800 319 832 q 335 761 319 776 q 374 746 350 746 q 427 768 403 746 q 451 822 451 790 q 435 861 451 846 q 396 876 419 876 m 281 793 q 317 879 281 844 q 403 914 354 914 q 465 890 442 914 q 489 829 489 865 q 453 743 489 778 q 368 708 417 708 q 305 733 329 708 q 281 793 281 757 m 222 467 q 201 419 222 436 q 151 403 181 403 q 115 417 129 403 q 101 456 101 432 q 173 581 101 536 q 357 625 244 625 q 521 576 468 625 q 574 444 574 526 q 568 392 574 428 l 528 147 q 525 117 525 125 q 544 54 525 76 q 596 32 563 32 l 590 0 q 414 51 453 0 q 192 -14 317 -14 q 8 115 8 -14 q 23 181 8 151 q 65 231 38 211 q 124 267 93 251 q 199 294 156 282 q 278 314 242 306 q 360 332 314 322 q 436 350 407 342 q 446 451 446 418 q 415 543 446 511 q 335 575 385 575 q 182 508 211 575 q 222 467 222 508 m 431 319 q 369 303 413 314 q 301 284 325 292 q 241 260 276 276 q 186 226 206 244 q 152 179 167 208 q 138 113 138 150 q 224 33 138 33 q 400 81 319 33 q 397 104 397 94 q 400 133 397 114 l 431 319 z "},"æ":{"ha":1060,"x_min":8,"x_max":1018,"o":"m 564 332 l 771 360 q 862 392 831 369 q 893 458 893 414 q 860 544 893 506 q 754 583 828 583 q 640 513 697 583 q 564 332 582 442 m 222 465 q 201 419 222 435 q 150 403 179 403 q 115 417 128 403 q 101 456 101 432 q 173 581 101 538 q 357 625 244 625 q 546 547 496 625 q 767 625 635 625 q 957 567 896 625 q 1018 439 1018 510 q 983 369 1018 396 q 829 325 947 342 l 561 289 q 609 112 561 185 q 731 39 657 39 q 940 131 853 39 l 971 114 q 850 17 919 49 q 674 -14 781 -14 q 471 76 538 -14 q 192 -14 385 -14 q 8 115 8 -14 q 35 202 8 165 q 113 261 61 239 q 211 297 165 283 q 329 324 257 310 q 435 349 401 339 q 446 451 446 397 q 420 545 446 515 q 335 575 394 575 q 182 508 211 575 q 222 465 222 508 m 429 319 q 351 304 382 311 q 276 281 321 297 q 203 245 231 265 q 156 191 176 225 q 136 114 136 157 q 224 33 136 33 q 454 101 375 33 q 424 243 424 158 q 429 319 424 286 z "},"ç":{"ha":665,"x_min":44,"x_max":618,"o":"m 190 -246 l 190 -243 q 276 -221 249 -243 q 303 -165 303 -199 q 228 -117 303 -117 l 275 -11 q 112 54 179 -6 q 44 244 44 114 q 144 518 44 410 q 411 626 244 626 q 618 504 618 626 q 598 436 618 463 q 544 410 578 410 q 490 450 490 410 q 510 499 490 482 q 549 515 529 515 q 418 585 543 585 q 251 499 321 585 q 181 282 181 414 q 230 111 181 182 q 351 40 279 40 q 561 132 474 40 l 592 115 q 329 -12 500 -3 l 301 -76 q 383 -97 342 -76 q 425 -157 425 -117 q 384 -242 425 -207 q 254 -276 343 -276 q 153 -267 207 -276 l 157 -243 q 190 -246 182 -246 z "},"è":{"ha":681,"x_min":44,"x_max":639,"o":"m 374 940 l 439 715 l 403 715 l 226 940 l 374 940 m 639 439 q 603 369 639 396 q 450 325 568 342 l 182 289 q 230 112 182 185 q 351 39 278 39 q 561 131 474 39 l 592 114 q 471 17 540 49 q 294 -14 401 -14 q 119 46 193 -14 q 44 243 44 106 q 136 517 44 408 q 388 625 228 625 q 578 567 517 625 q 639 439 639 510 m 185 332 l 392 360 q 514 458 514 375 q 481 544 514 506 q 375 583 449 583 q 260 513 318 583 q 185 332 203 442 z "},"é":{"ha":681,"x_min":44,"x_max":672,"o":"m 525 940 l 672 940 l 421 715 l 385 715 l 525 940 m 639 439 q 603 369 639 396 q 450 325 568 342 l 182 289 q 230 112 182 185 q 351 39 278 39 q 561 131 474 39 l 592 114 q 471 17 540 49 q 294 -14 401 -14 q 119 46 193 -14 q 44 243 44 106 q 136 517 44 408 q 388 625 228 625 q 578 567 517 625 q 639 439 639 510 m 185 332 l 392 360 q 514 458 514 375 q 481 544 514 506 q 375 583 449 583 q 260 513 318 583 q 185 332 203 442 z "},"ê":{"ha":681,"x_min":44,"x_max":639,"o":"m 475 940 l 568 715 l 532 715 l 422 836 l 274 715 l 238 715 l 406 940 l 475 940 m 639 439 q 603 369 639 396 q 450 325 568 342 l 182 289 q 230 112 182 185 q 351 39 278 39 q 561 131 474 39 l 592 114 q 471 17 540 49 q 294 -14 401 -14 q 119 46 193 -14 q 44 243 44 106 q 136 517 44 408 q 388 625 228 625 q 578 567 517 625 q 639 439 639 510 m 185 332 l 392 360 q 514 458 514 375 q 481 544 514 506 q 375 583 449 583 q 260 513 318 583 q 185 332 203 442 z "},"ë":{"ha":681,"x_min":44,"x_max":639,"o":"m 471 772 q 496 828 471 804 q 551 851 521 851 q 593 835 576 851 q 610 794 610 818 q 585 739 610 763 q 529 715 560 715 q 488 732 504 715 q 471 772 471 749 m 215 772 q 240 828 215 804 q 296 851 265 851 q 338 835 321 851 q 354 794 354 818 q 329 739 354 763 q 274 715 304 715 q 232 732 249 715 q 215 772 215 749 m 639 439 q 603 369 639 396 q 450 325 568 342 l 182 289 q 230 112 182 185 q 351 39 278 39 q 561 131 474 39 l 592 114 q 471 17 540 49 q 294 -14 401 -14 q 119 46 193 -14 q 44 243 44 106 q 136 517 44 408 q 388 625 228 625 q 578 567 517 625 q 639 439 639 510 m 185 332 l 392 360 q 514 458 514 375 q 481 544 514 506 q 375 583 449 583 q 260 513 318 583 q 185 332 203 442 z "},"ì":{"ha":336,"x_min":58,"x_max":288,"o":"m 211 940 l 276 715 l 240 715 l 64 940 l 211 940 m 146 526 q 114 529 133 528 q 82 532 94 531 q 60 533 69 533 l 65 565 q 174 595 92 565 q 288 625 256 625 l 183 0 l 58 0 l 146 526 z "},"í":{"ha":336,"x_min":58,"x_max":510,"o":"m 363 940 l 510 940 l 258 715 l 222 715 l 363 940 m 146 526 q 114 529 133 528 q 82 532 94 531 q 60 533 69 533 l 65 565 q 174 595 92 565 q 288 625 256 625 l 183 0 l 58 0 l 146 526 z "},"î":{"ha":336,"x_min":58,"x_max":406,"o":"m 313 940 l 406 715 l 369 715 l 260 836 l 111 715 l 75 715 l 243 940 l 313 940 m 146 526 q 114 529 133 528 q 82 532 94 531 q 60 533 69 533 l 65 565 q 174 595 92 565 q 288 625 256 625 l 183 0 l 58 0 l 146 526 z "},"ï":{"ha":336,"x_min":54,"x_max":449,"o":"m 310 772 q 335 828 310 804 q 390 851 360 851 q 432 835 415 851 q 449 794 449 818 q 424 739 449 763 q 368 715 399 715 q 326 732 343 715 q 310 772 310 749 m 54 772 q 79 828 54 804 q 135 851 104 851 q 176 835 160 851 q 193 794 193 818 q 168 739 193 763 q 113 715 143 715 q 71 732 88 715 q 54 772 54 749 m 146 526 q 114 529 133 528 q 82 532 94 531 q 60 533 69 533 l 65 565 q 174 595 92 565 q 288 625 256 625 l 183 0 l 58 0 l 146 526 z "},"ð":{"ha":738,"x_min":44,"x_max":678,"o":"m 313 -14 q 112 53 179 -14 q 44 238 44 121 q 137 517 44 408 q 410 625 229 625 q 500 617 461 625 q 422 739 471 681 l 294 672 l 278 713 l 392 772 q 344 815 368 796 q 307 842 319 835 l 294 850 l 314 875 q 447 801 375 851 l 581 872 l 597 832 l 486 772 q 678 390 678 617 q 587 99 678 213 q 313 -14 496 -14 m 379 582 q 233 475 286 582 q 179 233 179 368 q 221 78 179 129 q 338 28 263 28 q 450 83 401 28 q 521 219 499 138 q 543 392 543 300 q 503 536 543 490 q 379 582 463 582 z "},"ñ":{"ha":763,"x_min":58,"x_max":686,"o":"m 549 715 q 442 756 518 715 q 347 797 367 797 q 290 777 308 797 q 264 715 271 757 l 238 715 q 368 871 263 871 q 476 830 399 871 q 572 789 553 789 q 629 809 611 789 q 654 871 647 829 l 681 871 q 549 715 656 715 m 271 524 q 492 626 354 626 q 669 479 669 626 q 665 428 669 456 l 618 147 q 615 117 615 125 q 634 54 615 76 q 686 32 653 32 l 681 0 q 535 25 583 0 q 488 106 488 50 q 490 133 488 114 l 542 438 q 544 478 544 451 q 438 578 544 578 q 258 446 339 578 l 183 0 l 58 0 l 146 526 q 114 529 133 528 q 82 532 94 531 q 60 533 69 533 l 65 565 q 174 595 92 565 q 288 625 256 625 l 271 524 z "},"ò":{"ha":760,"x_min":44,"x_max":703,"o":"m 414 940 l 479 715 l 443 715 l 267 940 l 414 940 m 179 244 q 224 81 179 135 q 350 28 269 28 q 508 133 447 28 q 568 379 568 238 q 392 582 568 582 q 238 479 297 582 q 179 244 179 376 m 325 -14 q 117 56 189 -14 q 44 244 44 125 q 143 518 44 411 q 422 625 242 625 q 633 560 563 625 q 703 378 703 494 q 604 97 703 208 q 325 -14 506 -14 z "},"ó":{"ha":760,"x_min":44,"x_max":713,"o":"m 565 940 l 713 940 l 461 715 l 425 715 l 565 940 m 179 244 q 224 81 179 135 q 350 28 269 28 q 508 133 447 28 q 568 379 568 238 q 392 582 568 582 q 238 479 297 582 q 179 244 179 376 m 325 -14 q 117 56 189 -14 q 44 244 44 125 q 143 518 44 411 q 422 625 242 625 q 633 560 563 625 q 703 378 703 494 q 604 97 703 208 q 325 -14 506 -14 z "},"ô":{"ha":760,"x_min":44,"x_max":703,"o":"m 515 940 l 608 715 l 572 715 l 463 836 l 314 715 l 278 715 l 446 940 l 515 940 m 179 244 q 224 81 179 135 q 350 28 269 28 q 508 133 447 28 q 568 379 568 238 q 392 582 568 582 q 238 479 297 582 q 179 244 179 376 m 325 -14 q 117 56 189 -14 q 44 244 44 125 q 143 518 44 411 q 422 625 242 625 q 633 560 563 625 q 703 378 703 494 q 604 97 703 208 q 325 -14 506 -14 z "},"õ":{"ha":760,"x_min":44,"x_max":703,"o":"m 547 715 q 441 756 517 715 q 346 797 365 797 q 288 777 307 797 q 263 715 269 757 l 236 715 q 367 871 261 871 q 474 830 397 871 q 571 789 551 789 q 628 809 610 789 q 653 871 646 829 l 679 871 q 547 715 654 715 m 179 244 q 224 81 179 135 q 350 28 269 28 q 508 133 447 28 q 568 379 568 238 q 392 582 568 582 q 238 479 297 582 q 179 244 179 376 m 325 -14 q 117 56 189 -14 q 44 244 44 125 q 143 518 44 411 q 422 625 242 625 q 633 560 563 625 q 703 378 703 494 q 604 97 703 208 q 325 -14 506 -14 z "},"ö":{"ha":760,"x_min":44,"x_max":703,"o":"m 513 772 q 538 828 513 804 q 593 851 563 851 q 635 835 618 851 q 651 794 651 818 q 626 739 651 763 q 571 715 601 715 q 529 732 546 715 q 513 772 513 749 m 257 772 q 282 828 257 804 q 338 851 307 851 q 379 835 363 851 q 396 794 396 818 q 371 739 396 763 q 315 715 346 715 q 274 732 290 715 q 257 772 257 749 m 179 244 q 224 81 179 135 q 350 28 269 28 q 508 133 447 28 q 568 379 568 238 q 392 582 568 582 q 238 479 297 582 q 179 244 179 376 m 325 -14 q 117 56 189 -14 q 44 244 44 125 q 143 518 44 411 q 422 625 242 625 q 633 560 563 625 q 703 378 703 494 q 604 97 703 208 q 325 -14 506 -14 z "},"÷":{"ha":668,"x_min":69,"x_max":626,"o":"m 300 624 q 328 689 300 660 q 393 718 356 718 q 441 698 421 718 q 461 650 461 678 q 432 585 461 615 q 367 554 403 554 q 320 575 340 554 q 300 624 300 596 m 235 235 q 263 300 235 271 q 328 329 290 329 q 376 309 356 329 q 396 261 396 289 q 367 196 396 226 q 301 165 338 165 q 255 186 275 165 q 235 235 235 207 m 79 472 l 626 472 l 617 411 l 69 411 l 79 472 z "},"ø":{"ha":760,"x_min":44,"x_max":703,"o":"m 161 -49 l 124 -21 l 157 26 q 44 244 44 92 q 143 518 44 411 q 422 625 242 625 q 560 603 500 625 l 600 660 l 638 632 l 603 582 q 703 378 703 521 q 604 97 703 208 q 325 -14 506 -14 q 200 6 256 -14 l 161 -49 m 544 500 l 240 65 q 350 28 282 28 q 508 133 447 28 q 568 379 568 238 q 544 500 568 453 m 517 540 q 392 582 475 582 q 238 479 297 582 q 179 244 179 376 q 210 103 179 157 l 517 540 z "},"ù":{"ha":765,"x_min":63,"x_max":690,"o":"m 408 940 l 474 715 l 438 715 l 261 940 l 408 940 m 613 147 q 610 117 610 125 q 628 54 610 76 q 681 32 647 32 l 675 0 q 485 82 504 0 q 294 -14 389 -14 q 131 22 182 -14 q 79 133 79 58 q 83 183 79 156 l 146 554 q 63 582 138 582 l 68 611 l 281 611 l 207 174 q 203 133 203 153 q 311 33 203 33 q 483 121 406 33 l 565 611 l 690 611 l 613 147 z "},"ú":{"ha":765,"x_min":63,"x_max":707,"o":"m 560 940 l 707 940 l 456 715 l 419 715 l 560 940 m 613 147 q 610 117 610 125 q 628 54 610 76 q 681 32 647 32 l 675 0 q 485 82 504 0 q 294 -14 389 -14 q 131 22 182 -14 q 79 133 79 58 q 83 183 79 156 l 146 554 q 63 582 138 582 l 68 611 l 281 611 l 207 174 q 203 133 203 153 q 311 33 203 33 q 483 121 406 33 l 565 611 l 690 611 l 613 147 z "},"û":{"ha":765,"x_min":63,"x_max":690,"o":"m 510 940 l 603 715 l 567 715 l 457 836 l 308 715 l 272 715 l 440 940 l 510 940 m 613 147 q 610 117 610 125 q 628 54 610 76 q 681 32 647 32 l 675 0 q 485 82 504 0 q 294 -14 389 -14 q 131 22 182 -14 q 79 133 79 58 q 83 183 79 156 l 146 554 q 63 582 138 582 l 68 611 l 281 611 l 207 174 q 203 133 203 153 q 311 33 203 33 q 483 121 406 33 l 565 611 l 690 611 l 613 147 z "},"ü":{"ha":765,"x_min":63,"x_max":690,"o":"m 507 772 q 532 828 507 804 q 588 851 557 851 q 629 835 613 851 q 646 794 646 818 q 621 739 646 763 q 565 715 596 715 q 524 732 540 715 q 507 772 507 749 m 251 772 q 276 828 251 804 q 332 851 301 851 q 374 835 357 851 q 390 794 390 818 q 365 739 390 763 q 310 715 340 715 q 268 732 285 715 q 251 772 251 749 m 613 147 q 610 117 610 125 q 628 54 610 76 q 681 32 647 32 l 675 0 q 485 82 504 0 q 294 -14 389 -14 q 131 22 182 -14 q 79 133 79 58 q 83 183 79 156 l 146 554 q 63 582 138 582 l 68 611 l 281 611 l 207 174 q 203 133 203 153 q 311 33 203 33 q 483 121 406 33 l 565 611 l 690 611 l 613 147 z "},"ý":{"ha":618,"x_min":-6,"x_max":674,"o":"m 526 940 l 674 940 l 422 715 l 386 715 l 526 940 m 225 0 l 97 554 q 14 582 89 582 l 19 611 l 217 611 l 321 169 l 546 567 q 471 582 528 582 l 476 611 l 640 611 l 213 -142 q 47 -256 146 -256 q 11 -243 28 -256 q -6 -212 -6 -231 q 11 -171 -6 -190 q 49 -151 28 -151 q 74 -163 60 -151 q 97 -175 88 -175 q 140 -150 126 -175 l 225 0 z "},"þ":{"ha":726,"x_min":-96,"x_max":676,"o":"m -96 -267 l -92 -237 q 1 -210 -14 -237 l 165 776 q 79 783 82 783 l 85 815 q 193 845 111 815 q 307 875 275 875 l 243 494 q 490 625 343 625 q 633 573 590 625 q 676 438 676 521 q 531 98 676 213 q 158 -17 385 -17 l 126 -210 q 208 -237 135 -237 l 204 -267 l -96 -267 m 228 396 l 165 24 q 435 128 329 26 q 542 432 542 229 q 522 539 542 500 q 469 578 503 578 q 330 524 392 578 q 228 396 268 471 z "},"ÿ":{"ha":618,"x_min":-6,"x_max":640,"o":"m 474 772 q 499 828 474 804 q 554 851 524 851 q 596 835 579 851 q 613 794 613 818 q 588 739 613 763 q 532 715 563 715 q 490 732 507 715 q 474 772 474 749 m 218 772 q 243 828 218 804 q 299 851 268 851 q 340 835 324 851 q 357 794 357 818 q 332 739 357 763 q 276 715 307 715 q 235 732 251 715 q 218 772 218 749 m 225 0 l 97 554 q 14 582 89 582 l 19 611 l 217 611 l 321 169 l 546 567 q 471 582 528 582 l 476 611 l 640 611 l 213 -142 q 47 -256 146 -256 q 11 -243 28 -256 q -6 -212 -6 -231 q 11 -171 -6 -190 q 49 -151 28 -151 q 74 -163 60 -151 q 97 -175 88 -175 q 140 -150 126 -175 l 225 0 z "},"Ā":{"ha":754,"x_min":-67,"x_max":721,"o":"m 293 942 l 660 942 l 650 881 l 283 881 l 293 942 m 411 0 l 417 29 q 500 46 481 29 l 457 258 l 190 258 l 85 54 q 167 29 94 29 l 161 0 l -67 0 l -61 29 q 31 58 17 29 l 426 813 l 493 813 l 636 58 q 721 29 642 29 l 715 0 l 411 0 m 385 628 l 215 304 l 449 304 l 385 628 z "},"ā":{"ha":669,"x_min":8,"x_max":596,"o":"m 190 796 l 557 796 l 547 735 l 181 735 l 190 796 m 222 467 q 201 419 222 436 q 151 403 181 403 q 115 417 129 403 q 101 456 101 432 q 173 581 101 536 q 357 625 244 625 q 521 576 468 625 q 574 444 574 526 q 568 392 574 428 l 528 147 q 525 117 525 125 q 544 54 525 76 q 596 32 563 32 l 590 0 q 414 51 453 0 q 192 -14 317 -14 q 8 115 8 -14 q 23 181 8 151 q 65 231 38 211 q 124 267 93 251 q 199 294 156 282 q 278 314 242 306 q 360 332 314 322 q 436 350 407 342 q 446 451 446 418 q 415 543 446 511 q 335 575 385 575 q 182 508 211 575 q 222 467 222 508 m 431 319 q 369 303 413 314 q 301 284 325 292 q 241 260 276 276 q 186 226 206 244 q 152 179 167 208 q 138 113 138 150 q 224 33 138 33 q 400 81 319 33 q 397 104 397 94 q 400 133 397 114 l 431 319 z "},"Ă":{"ha":754,"x_min":-67,"x_max":721,"o":"m 474 875 q 363 920 399 875 q 326 1022 326 965 q 328 1047 326 1039 l 367 1047 l 367 1040 q 398 994 367 1014 q 490 975 429 975 q 595 997 556 975 q 639 1047 635 1018 l 678 1047 q 614 931 668 986 q 474 875 560 875 m 411 0 l 417 29 q 500 46 481 29 l 457 258 l 190 258 l 85 54 q 167 29 94 29 l 161 0 l -67 0 l -61 29 q 31 58 17 29 l 426 813 l 493 813 l 636 58 q 721 29 642 29 l 715 0 l 411 0 m 385 628 l 215 304 l 449 304 l 385 628 z "},"ă":{"ha":669,"x_min":8,"x_max":596,"o":"m 371 729 q 260 774 296 729 q 224 876 224 819 q 225 901 224 893 l 264 901 l 264 894 q 295 849 264 868 q 388 829 326 829 q 492 851 453 829 q 536 901 532 872 l 575 901 q 511 785 565 840 q 371 729 457 729 m 222 467 q 201 419 222 436 q 151 403 181 403 q 115 417 129 403 q 101 456 101 432 q 173 581 101 536 q 357 625 244 625 q 521 576 468 625 q 574 444 574 526 q 568 392 574 428 l 528 147 q 525 117 525 125 q 544 54 525 76 q 596 32 563 32 l 590 0 q 414 51 453 0 q 192 -14 317 -14 q 8 115 8 -14 q 23 181 8 151 q 65 231 38 211 q 124 267 93 251 q 199 294 156 282 q 278 314 242 306 q 360 332 314 322 q 436 350 407 342 q 446 451 446 418 q 415 543 446 511 q 335 575 385 575 q 182 508 211 575 q 222 467 222 508 m 431 319 q 369 303 413 314 q 301 284 325 292 q 241 260 276 276 q 186 226 206 244 q 152 179 167 208 q 138 113 138 150 q 224 33 138 33 q 400 81 319 33 q 397 104 397 94 q 400 133 397 114 l 431 319 z "},"Ą":{"ha":754,"x_min":-67,"x_max":746,"o":"m 386 628 l 217 304 l 450 304 l 386 628 m 413 0 l 417 31 q 500 47 481 31 l 457 260 l 190 260 l 85 56 q 167 31 94 31 l 161 1 l -67 1 l -61 31 q 31 60 17 31 l 426 814 l 493 814 l 636 60 q 721 31 642 31 l 715 1 l 643 1 q 588 -114 588 -61 q 688 -231 588 -231 q 708 -225 696 -231 q 728 -214 719 -219 l 735 -208 l 746 -233 q 629 -278 711 -278 q 510 -175 510 -278 q 607 0 510 -81 l 413 0 z "},"ą":{"ha":669,"x_min":10,"x_max":636,"o":"m 432 319 q 370 303 414 314 q 302 284 326 292 q 242 260 278 276 q 188 226 207 244 q 153 179 168 208 q 139 113 139 150 q 225 33 139 33 q 401 81 321 33 q 399 104 399 94 q 401 133 399 114 l 432 319 m 224 467 l 222 467 q 201 419 222 436 q 151 403 181 403 q 115 417 129 403 q 101 456 101 432 q 173 581 101 536 q 357 625 244 625 q 521 576 468 625 q 574 444 574 526 q 568 392 574 428 l 528 147 q 525 117 525 125 q 544 54 525 76 q 596 32 563 32 l 590 0 q 535 3 568 0 q 478 -114 478 -62 q 578 -231 478 -231 q 598 -225 586 -231 q 617 -214 610 -219 l 625 -208 l 636 -233 q 519 -278 601 -278 q 400 -175 400 -278 q 504 8 400 -76 q 415 51 442 18 q 193 -14 317 -14 q 10 115 10 -14 q 24 181 10 151 q 67 231 39 211 q 126 267 94 251 q 200 294 157 282 q 279 314 243 306 q 362 332 315 322 q 438 350 408 342 q 447 451 447 418 q 417 543 447 511 q 336 575 386 575 q 183 508 213 575 q 224 467 224 508 z "},"Ć":{"ha":783,"x_min":63,"x_max":836,"o":"m 689 1086 l 836 1086 l 585 861 l 549 861 l 689 1086 m 556 779 q 313 646 415 779 q 210 321 210 513 q 274 108 210 183 q 436 33 339 33 q 581 81 506 33 q 686 183 657 129 l 717 167 q 400 -14 611 -14 q 150 81 238 -14 q 63 318 63 175 q 108 531 63 432 q 226 692 154 629 q 387 791 299 756 q 563 826 475 826 q 653 806 603 826 q 710 785 703 785 q 731 813 726 785 l 763 813 l 747 636 l 717 636 q 678 739 717 699 q 556 779 639 779 z "},"ć":{"ha":664,"x_min":43,"x_max":701,"o":"m 554 940 l 701 940 l 450 715 l 414 715 l 554 940 m 489 449 q 508 497 489 481 q 547 514 528 514 q 417 583 542 583 q 249 498 319 583 q 179 281 179 413 q 228 110 179 181 q 350 39 278 39 q 560 131 472 39 l 590 114 q 469 17 539 49 q 293 -14 400 -14 q 117 46 192 -14 q 43 243 43 106 q 143 517 43 408 q 410 625 243 625 q 617 503 617 625 q 597 435 617 461 q 543 408 576 408 q 489 449 489 408 z "},"Ĉ":{"ha":783,"x_min":63,"x_max":763,"o":"m 639 1086 l 732 861 l 696 861 l 586 982 l 438 861 l 401 861 l 569 1086 l 639 1086 m 556 779 q 313 646 415 779 q 210 321 210 513 q 274 108 210 183 q 436 33 339 33 q 581 81 506 33 q 686 183 657 129 l 717 167 q 400 -14 611 -14 q 150 81 238 -14 q 63 318 63 175 q 108 531 63 432 q 226 692 154 629 q 387 791 299 756 q 563 826 475 826 q 653 806 603 826 q 710 785 703 785 q 731 813 726 785 l 763 813 l 747 636 l 717 636 q 678 739 717 699 q 556 779 639 779 z "},"ĉ":{"ha":664,"x_min":43,"x_max":617,"o":"m 504 940 l 597 715 l 561 715 l 451 836 l 303 715 l 267 715 l 435 940 l 504 940 m 489 449 q 508 497 489 481 q 547 514 528 514 q 417 583 542 583 q 249 498 319 583 q 179 281 179 413 q 228 110 179 181 q 350 39 278 39 q 560 131 472 39 l 590 114 q 469 17 539 49 q 293 -14 400 -14 q 117 46 192 -14 q 43 243 43 106 q 143 517 43 408 q 410 625 243 625 q 617 503 617 625 q 597 435 617 461 q 543 408 576 408 q 489 449 489 408 z "},"Ċ":{"ha":783,"x_min":63,"x_max":763,"o":"m 507 922 q 533 981 507 957 q 590 1004 558 1004 q 633 987 617 1004 q 650 944 650 969 q 624 886 650 910 q 567 863 599 863 q 524 880 540 863 q 507 922 507 897 m 556 779 q 313 646 415 779 q 210 321 210 513 q 274 108 210 183 q 436 33 339 33 q 581 81 506 33 q 686 183 657 129 l 717 167 q 400 -14 611 -14 q 150 81 238 -14 q 63 318 63 175 q 108 531 63 432 q 226 692 154 629 q 387 791 299 756 q 563 826 475 826 q 653 806 603 826 q 710 785 703 785 q 731 813 726 785 l 763 813 l 747 636 l 717 636 q 678 739 717 699 q 556 779 639 779 z "},"ċ":{"ha":664,"x_min":43,"x_max":617,"o":"m 372 776 q 398 835 372 811 q 456 858 424 858 q 499 841 482 858 q 515 799 515 824 q 490 740 515 764 q 432 717 464 717 q 389 734 406 717 q 372 776 372 751 m 489 449 q 508 497 489 481 q 547 514 528 514 q 417 583 542 583 q 249 498 319 583 q 179 281 179 413 q 228 110 179 181 q 350 39 278 39 q 560 131 472 39 l 590 114 q 469 17 539 49 q 293 -14 400 -14 q 117 46 192 -14 q 43 243 43 106 q 143 517 43 408 q 410 625 243 625 q 617 503 617 625 q 597 435 617 461 q 543 408 576 408 q 489 449 489 408 z "},"Č":{"ha":783,"x_min":63,"x_max":771,"o":"m 533 861 l 440 1086 l 476 1086 l 585 965 l 735 1086 l 771 1086 l 603 861 l 533 861 m 556 779 q 313 646 415 779 q 210 321 210 513 q 274 108 210 183 q 436 33 339 33 q 581 81 506 33 q 686 183 657 129 l 717 167 q 400 -14 611 -14 q 150 81 238 -14 q 63 318 63 175 q 108 531 63 432 q 226 692 154 629 q 387 791 299 756 q 563 826 475 826 q 653 806 603 826 q 710 785 703 785 q 731 813 726 785 l 763 813 l 747 636 l 717 636 q 678 739 717 699 q 556 779 639 779 z "},"č":{"ha":664,"x_min":43,"x_max":636,"o":"m 399 715 l 306 940 l 342 940 l 450 819 l 600 940 l 636 940 l 468 715 l 399 715 m 489 449 q 508 497 489 481 q 547 514 528 514 q 417 583 542 583 q 249 498 319 583 q 179 281 179 413 q 228 110 179 181 q 350 39 278 39 q 560 131 472 39 l 590 114 q 469 17 539 49 q 293 -14 400 -14 q 117 46 192 -14 q 43 243 43 106 q 143 517 43 408 q 410 625 243 625 q 617 503 617 625 q 597 435 617 461 q 543 408 576 408 q 489 449 489 408 z "},"Ď":{"ha":856,"x_min":3,"x_max":807,"o":"m 428 861 l 335 1086 l 371 1086 l 479 965 l 629 1086 l 665 1086 l 497 861 l 428 861 m 3 0 l 8 29 q 100 57 85 29 l 217 756 q 133 783 208 783 l 139 813 l 458 813 q 714 724 621 813 q 807 489 807 636 q 669 138 807 275 q 339 0 531 0 l 3 0 m 347 772 l 226 47 l 347 47 q 452 78 397 47 q 556 164 507 108 q 638 310 606 219 q 669 506 669 400 q 606 705 669 638 q 451 772 542 772 l 347 772 z "},"ď":{"ha":786,"x_min":42,"x_max":947,"o":"m 763 803 q 790 859 763 843 q 839 875 817 875 q 917 849 886 875 q 947 776 947 822 q 924 695 947 732 q 862 636 900 658 q 798 603 824 614 q 744 583 772 592 l 751 622 q 829 660 788 626 q 879 738 871 694 q 882 768 883 764 q 871 772 881 772 q 853 763 867 772 q 825 754 840 754 q 763 803 763 754 m 547 597 l 578 776 q 490 783 492 783 l 496 815 q 604 845 522 815 q 718 875 686 875 l 597 147 q 594 117 594 125 q 613 54 594 76 q 665 32 632 32 l 660 0 q 481 53 515 0 q 278 -14 400 -14 q 200 -2 239 -14 q 124 36 161 10 q 65 113 88 63 q 42 231 42 163 q 151 524 42 417 q 417 631 260 631 q 547 597 496 631 m 469 85 q 467 108 467 99 q 469 133 467 117 l 540 553 q 417 583 493 583 q 256 492 335 583 q 178 261 178 401 q 212 106 178 179 q 300 33 246 33 q 469 85 401 33 z "},"Đ":{"ha":856,"x_min":3,"x_max":807,"o":"m 226 47 l 347 47 q 452 78 397 47 q 556 164 507 108 q 638 310 606 219 q 669 506 669 400 q 606 705 669 638 q 451 772 542 772 l 347 772 l 297 471 l 465 471 l 454 410 l 286 410 l 226 47 m 217 756 q 133 783 208 783 l 139 813 l 458 813 q 714 724 621 813 q 807 489 807 636 q 669 138 807 275 q 339 0 531 0 l 3 0 l 8 29 q 100 57 85 29 l 158 410 l 88 410 l 99 471 l 169 471 l 217 756 z "},"đ":{"ha":749,"x_min":42,"x_max":757,"o":"m 469 85 q 467 108 467 99 q 469 133 467 117 l 540 553 q 417 583 493 583 q 256 492 335 583 q 178 261 178 401 q 212 106 178 179 q 300 33 246 33 q 469 85 401 33 m 683 667 l 597 147 q 594 117 594 125 q 613 54 594 76 q 665 32 632 32 l 660 0 q 481 53 515 0 q 278 -14 400 -14 q 200 -2 239 -14 q 124 36 161 10 q 65 113 88 63 q 42 231 42 163 q 151 524 42 417 q 417 631 260 631 q 547 597 496 631 l 560 667 l 381 667 l 390 728 l 569 728 l 578 776 q 490 783 492 783 l 496 815 q 604 845 522 815 q 718 875 686 875 l 693 728 l 757 728 l 747 667 l 683 667 z "},"Ē":{"ha":706,"x_min":3,"x_max":699,"o":"m 282 942 l 649 942 l 639 881 l 272 881 l 282 942 m 3 0 l 8 29 q 100 57 85 29 l 217 756 q 133 783 208 783 l 139 813 l 699 813 l 676 678 l 647 678 q 651 725 651 707 q 633 765 651 757 l 346 765 l 293 446 l 488 446 q 529 533 517 457 l 558 533 l 521 311 l 492 311 q 497 358 497 350 q 479 399 497 390 l 285 399 l 226 47 l 543 47 q 619 135 579 61 l 647 135 l 592 0 l 3 0 z "},"ē":{"ha":681,"x_min":44,"x_max":639,"o":"m 224 796 l 590 796 l 581 735 l 214 735 l 224 796 m 639 439 q 603 369 639 396 q 450 325 568 342 l 182 289 q 230 112 182 185 q 351 39 278 39 q 561 131 474 39 l 592 114 q 471 17 540 49 q 294 -14 401 -14 q 119 46 193 -14 q 44 243 44 106 q 136 517 44 408 q 388 625 228 625 q 578 567 517 625 q 639 439 639 510 m 185 332 l 392 360 q 483 392 451 369 q 514 458 514 414 q 481 544 514 506 q 375 583 449 583 q 260 513 318 583 q 185 332 203 442 z "},"Ĕ":{"ha":706,"x_min":3,"x_max":699,"o":"m 463 875 q 351 920 388 875 q 315 1022 315 965 q 317 1047 315 1039 l 356 1047 l 356 1040 q 387 994 356 1014 q 479 975 418 975 q 584 997 544 975 q 628 1047 624 1018 l 667 1047 q 603 931 657 986 q 463 875 549 875 m 3 0 l 8 29 q 100 57 85 29 l 217 756 q 133 783 208 783 l 139 813 l 699 813 l 676 678 l 647 678 q 651 725 651 707 q 633 765 651 757 l 346 765 l 293 446 l 488 446 q 529 533 517 457 l 558 533 l 521 311 l 492 311 q 497 358 497 350 q 479 399 497 390 l 285 399 l 226 47 l 543 47 q 619 135 579 61 l 647 135 l 592 0 l 3 0 z "},"ĕ":{"ha":681,"x_min":44,"x_max":639,"o":"m 403 729 q 292 774 328 729 q 256 876 256 819 q 257 901 256 893 l 296 901 l 296 894 q 327 849 296 868 q 419 829 358 829 q 524 851 485 829 q 568 901 564 872 l 607 901 q 543 785 597 840 q 403 729 489 729 m 639 439 q 603 369 639 396 q 450 325 568 342 l 182 289 q 230 112 182 185 q 351 39 278 39 q 561 131 474 39 l 592 114 q 471 17 540 49 q 294 -14 401 -14 q 119 46 193 -14 q 44 243 44 106 q 136 517 44 408 q 388 625 228 625 q 578 567 517 625 q 639 439 639 510 m 185 332 l 392 360 q 483 392 451 369 q 514 458 514 414 q 481 544 514 506 q 375 583 449 583 q 260 513 318 583 q 185 332 203 442 z "},"Ė":{"ha":706,"x_min":3,"x_max":699,"o":"m 401 922 q 427 981 401 957 q 485 1004 453 1004 q 528 987 511 1004 q 544 944 544 969 q 519 886 544 910 q 461 863 493 863 q 418 880 435 863 q 401 922 401 897 m 3 0 l 8 29 q 100 57 85 29 l 217 756 q 133 783 208 783 l 139 813 l 699 813 l 676 678 l 647 678 q 651 725 651 707 q 633 765 651 757 l 346 765 l 293 446 l 488 446 q 529 533 517 457 l 558 533 l 521 311 l 492 311 q 497 358 497 350 q 479 399 497 390 l 285 399 l 226 47 l 543 47 q 619 135 579 61 l 647 135 l 592 0 l 3 0 z "},"ė":{"ha":681,"x_min":44,"x_max":639,"o":"m 342 776 q 367 835 342 811 q 425 858 393 858 q 468 841 451 858 q 485 799 485 824 q 459 740 485 764 q 401 717 433 717 q 358 734 375 717 q 342 776 342 751 m 639 439 q 603 369 639 396 q 450 325 568 342 l 182 289 q 230 112 182 185 q 351 39 278 39 q 561 131 474 39 l 592 114 q 471 17 540 49 q 294 -14 401 -14 q 119 46 193 -14 q 44 243 44 106 q 136 517 44 408 q 388 625 228 625 q 578 567 517 625 q 639 439 639 510 m 185 332 l 392 360 q 483 392 451 369 q 514 458 514 414 q 481 544 514 506 q 375 583 449 583 q 260 513 318 583 q 185 332 203 442 z "},"Ę":{"ha":704,"x_min":4,"x_max":699,"o":"m 4 0 l 8 31 q 100 58 85 31 l 217 757 q 133 785 208 785 l 139 814 l 699 814 l 676 679 l 647 679 q 651 726 651 708 q 633 767 651 758 l 346 767 l 293 447 l 488 447 q 529 535 517 458 l 558 535 l 521 313 l 492 313 q 497 360 497 351 q 479 400 497 392 l 285 400 l 226 49 l 543 49 q 619 136 579 63 l 647 136 l 592 1 l 526 1 q 471 -114 471 -61 q 571 -231 471 -231 q 591 -225 579 -231 q 611 -214 603 -219 l 618 -208 l 629 -233 q 513 -278 594 -278 q 393 -175 393 -278 q 490 0 393 -81 l 4 0 z "},"ę":{"ha":682,"x_min":46,"x_max":642,"o":"m 186 332 l 393 360 q 484 392 453 369 q 515 458 515 414 q 483 544 515 506 q 376 583 450 583 q 262 513 319 583 q 186 332 204 442 m 640 439 l 642 440 q 606 370 642 397 q 453 326 571 343 l 185 290 q 233 113 185 186 q 354 40 281 40 q 564 132 476 40 l 594 115 q 369 -8 514 10 q 322 -114 322 -65 q 422 -231 322 -231 q 442 -225 431 -231 q 461 -214 454 -219 l 469 -208 l 481 -233 q 364 -278 446 -278 q 244 -175 244 -278 q 325 -14 244 -92 l 296 -14 q 120 46 194 -14 q 46 243 46 106 q 138 517 46 408 q 389 625 229 625 q 579 567 518 625 q 640 439 640 510 z "},"Ě":{"ha":706,"x_min":3,"x_max":699,"o":"m 428 861 l 335 1086 l 371 1086 l 479 965 l 629 1086 l 665 1086 l 497 861 l 428 861 m 3 0 l 8 29 q 100 57 85 29 l 217 756 q 133 783 208 783 l 139 813 l 699 813 l 676 678 l 647 678 q 651 725 651 707 q 633 765 651 757 l 346 765 l 293 446 l 488 446 q 529 533 517 457 l 558 533 l 521 311 l 492 311 q 497 358 497 350 q 479 399 497 390 l 285 399 l 226 47 l 543 47 q 619 135 579 61 l 647 135 l 592 0 l 3 0 z "},"ě":{"ha":681,"x_min":44,"x_max":639,"o":"m 368 715 l 275 940 l 311 940 l 419 819 l 569 940 l 606 940 l 438 715 l 368 715 m 639 439 q 603 369 639 396 q 450 325 568 342 l 182 289 q 230 112 182 185 q 351 39 278 39 q 561 131 474 39 l 592 114 q 471 17 540 49 q 294 -14 401 -14 q 119 46 193 -14 q 44 243 44 106 q 136 517 44 408 q 388 625 228 625 q 578 567 517 625 q 639 439 639 510 m 185 332 l 392 360 q 483 392 451 369 q 514 458 514 414 q 481 544 514 506 q 375 583 449 583 q 260 513 318 583 q 185 332 203 442 z "},"Ĝ":{"ha":863,"x_min":61,"x_max":847,"o":"m 638 1086 l 731 861 l 694 861 l 585 982 l 436 861 l 400 861 l 568 1086 l 638 1086 m 568 779 q 316 635 428 779 q 204 299 204 490 q 269 99 204 164 q 424 33 335 33 q 575 60 500 33 l 624 344 q 540 372 615 372 l 544 401 l 847 401 l 843 372 q 751 344 767 372 l 711 111 q 602 26 681 67 q 413 -14 524 -14 q 154 83 247 -14 q 61 324 61 181 q 109 533 61 436 q 233 693 157 631 q 398 791 308 756 q 575 826 488 826 q 672 806 617 826 q 736 785 728 785 q 757 813 753 785 l 789 813 l 774 636 l 743 636 q 697 736 743 693 q 568 779 651 779 z "},"ĝ":{"ha":718,"x_min":14,"x_max":660,"o":"m 510 940 l 603 715 l 567 715 l 457 836 l 308 715 l 272 715 l 440 940 l 510 940 m 142 -124 q 96 -190 142 -174 q 250 -228 128 -228 q 367 -169 318 -228 q 449 28 417 -111 q 278 -14 378 -14 q 199 -2 238 -14 q 124 35 161 10 q 65 110 88 60 q 42 226 42 160 q 150 519 42 413 q 415 625 258 625 q 513 615 468 625 q 584 592 558 606 q 628 566 610 579 q 653 543 646 553 l 660 533 l 578 40 q 471 -190 554 -103 q 256 -278 388 -278 q 78 -241 143 -278 q 14 -161 14 -204 q 36 -106 14 -128 q 86 -83 58 -83 q 142 -124 142 -83 m 458 74 l 539 556 q 417 578 479 578 q 249 475 326 578 q 172 219 172 372 q 206 83 172 133 q 300 33 240 33 q 458 74 392 33 z "},"Ğ":{"ha":863,"x_min":61,"x_max":847,"o":"m 567 875 q 456 920 492 875 q 419 1022 419 965 q 421 1047 419 1039 l 460 1047 l 460 1040 q 491 994 460 1014 q 583 975 522 975 q 688 997 649 975 q 732 1047 728 1018 l 771 1047 q 707 931 761 986 q 567 875 653 875 m 568 779 q 316 635 428 779 q 204 299 204 490 q 269 99 204 164 q 424 33 335 33 q 575 60 500 33 l 624 344 q 540 372 615 372 l 544 401 l 847 401 l 843 372 q 751 344 767 372 l 711 111 q 602 26 681 67 q 413 -14 524 -14 q 154 83 247 -14 q 61 324 61 181 q 109 533 61 436 q 233 693 157 631 q 398 791 308 756 q 575 826 488 826 q 672 806 617 826 q 736 785 728 785 q 757 813 753 785 l 789 813 l 774 636 l 743 636 q 697 736 743 693 q 568 779 651 779 z "},"ğ":{"ha":718,"x_min":14,"x_max":660,"o":"m 439 729 q 328 774 364 729 q 292 876 292 819 q 293 901 292 893 l 332 901 l 332 894 q 363 849 332 868 q 456 829 394 829 q 560 851 521 829 q 604 901 600 872 l 643 901 q 579 785 633 840 q 439 729 525 729 m 142 -124 q 96 -190 142 -174 q 250 -228 128 -228 q 367 -169 318 -228 q 449 28 417 -111 q 278 -14 378 -14 q 199 -2 238 -14 q 124 35 161 10 q 65 110 88 60 q 42 226 42 160 q 150 519 42 413 q 415 625 258 625 q 513 615 468 625 q 584 592 558 606 q 628 566 610 579 q 653 543 646 553 l 660 533 l 578 40 q 471 -190 554 -103 q 256 -278 388 -278 q 78 -241 143 -278 q 14 -161 14 -204 q 36 -106 14 -128 q 86 -83 58 -83 q 142 -124 142 -83 m 458 74 l 539 556 q 417 578 479 578 q 249 475 326 578 q 172 219 172 372 q 206 83 172 133 q 300 33 240 33 q 458 74 392 33 z "},"Ġ":{"ha":863,"x_min":61,"x_max":847,"o":"m 506 922 q 531 981 506 957 q 589 1004 557 1004 q 632 987 615 1004 q 649 944 649 969 q 623 886 649 910 q 565 863 597 863 q 522 880 539 863 q 506 922 506 897 m 568 779 q 316 635 428 779 q 204 299 204 490 q 269 99 204 164 q 424 33 335 33 q 575 60 500 33 l 624 344 q 540 372 615 372 l 544 401 l 847 401 l 843 372 q 751 344 767 372 l 711 111 q 602 26 681 67 q 413 -14 524 -14 q 154 83 247 -14 q 61 324 61 181 q 109 533 61 436 q 233 693 157 631 q 398 791 308 756 q 575 826 488 826 q 672 806 617 826 q 736 785 728 785 q 757 813 753 785 l 789 813 l 774 636 l 743 636 q 697 736 743 693 q 568 779 651 779 z "},"ġ":{"ha":718,"x_min":14,"x_max":660,"o":"m 378 776 q 403 835 378 811 q 461 858 429 858 q 504 841 488 858 q 521 799 521 824 q 495 740 521 764 q 438 717 469 717 q 394 734 411 717 q 378 776 378 751 m 142 -124 q 96 -190 142 -174 q 250 -228 128 -228 q 367 -169 318 -228 q 449 28 417 -111 q 278 -14 378 -14 q 199 -2 238 -14 q 124 35 161 10 q 65 110 88 60 q 42 226 42 160 q 150 519 42 413 q 415 625 258 625 q 513 615 468 625 q 584 592 558 606 q 628 566 610 579 q 653 543 646 553 l 660 533 l 578 40 q 471 -190 554 -103 q 256 -278 388 -278 q 78 -241 143 -278 q 14 -161 14 -204 q 36 -106 14 -128 q 86 -83 58 -83 q 142 -124 142 -83 m 458 74 l 539 556 q 417 578 479 578 q 249 475 326 578 q 172 219 172 372 q 206 83 172 133 q 300 33 240 33 q 458 74 392 33 z "},"Ģ":{"ha":863,"x_min":61,"x_max":847,"o":"m 299 -125 q 326 -69 299 -85 q 375 -53 353 -53 q 453 -79 422 -53 q 483 -151 483 -106 q 460 -233 483 -196 q 398 -292 436 -269 q 334 -325 360 -314 q 281 -344 308 -336 l 288 -306 q 365 -267 324 -301 q 415 -190 407 -233 q 418 -160 419 -164 q 407 -156 417 -156 q 390 -165 403 -156 q 361 -174 376 -174 q 299 -125 299 -174 m 568 779 q 316 635 428 779 q 204 299 204 490 q 269 99 204 164 q 424 33 335 33 q 575 60 500 33 l 624 344 q 540 372 615 372 l 544 401 l 847 401 l 843 372 q 751 344 767 372 l 711 111 q 602 26 681 67 q 413 -14 524 -14 q 154 83 247 -14 q 61 324 61 181 q 109 533 61 436 q 233 693 157 631 q 398 791 308 756 q 575 826 488 826 q 672 806 617 826 q 736 785 728 785 q 757 813 753 785 l 789 813 l 774 636 l 743 636 q 697 736 743 693 q 568 779 651 779 z "},"ģ":{"ha":718,"x_min":14,"x_max":660,"o":"m 513 789 q 486 733 513 749 q 438 717 460 717 q 359 743 390 717 q 328 815 328 769 q 351 897 328 860 q 413 956 375 933 q 477 989 451 978 q 531 1008 503 1000 l 524 969 q 446 931 488 965 q 396 854 404 897 q 393 824 392 828 q 404 819 394 819 q 422 828 408 819 q 450 838 435 838 q 513 789 513 838 m 142 -124 q 96 -190 142 -174 q 250 -228 128 -228 q 367 -169 318 -228 q 449 28 417 -111 q 278 -14 378 -14 q 199 -2 238 -14 q 124 35 161 10 q 65 110 88 60 q 42 226 42 160 q 150 519 42 413 q 415 625 258 625 q 513 615 468 625 q 584 592 558 606 q 628 566 610 579 q 653 543 646 553 l 660 533 l 578 40 q 471 -190 554 -103 q 256 -278 388 -278 q 78 -241 143 -278 q 14 -161 14 -204 q 36 -106 14 -128 q 86 -83 58 -83 q 142 -124 142 -83 m 458 74 l 539 556 q 417 578 479 578 q 249 475 326 578 q 172 219 172 372 q 206 83 172 133 q 300 33 240 33 q 458 74 392 33 z "},"Ĥ":{"ha":911,"x_min":3,"x_max":925,"o":"m 614 1086 l 707 861 l 671 861 l 561 982 l 413 861 l 376 861 l 544 1086 l 614 1086 m 3 0 l 8 29 q 100 57 85 29 l 217 756 q 133 783 208 783 l 139 813 l 442 813 l 436 783 q 344 756 360 783 l 293 446 l 649 446 l 700 756 q 617 783 692 783 l 622 813 l 925 813 l 919 783 q 828 756 843 783 l 711 57 q 794 29 719 29 l 789 0 l 486 0 l 492 29 q 583 57 568 29 l 640 399 l 285 399 l 228 57 q 311 29 236 29 l 306 0 l 3 0 z "},"ĥ":{"ha":740,"x_min":36,"x_max":664,"o":"m 326 1135 l 419 910 l 383 910 l 274 1031 l 125 910 l 89 910 l 257 1135 l 326 1135 m 596 147 q 593 117 593 125 q 612 54 593 76 q 664 32 631 32 l 658 0 q 513 25 561 0 q 465 106 465 50 q 468 133 465 114 l 519 443 q 524 482 524 464 q 415 578 524 578 q 231 414 321 578 l 161 0 l 36 0 l 167 776 q 79 783 81 783 l 85 815 q 193 845 111 815 q 307 875 275 875 l 247 514 q 431 625 331 625 q 597 593 546 625 q 649 486 649 561 q 643 433 649 472 l 596 147 z "},"Ħ":{"ha":911,"x_min":4,"x_max":926,"o":"m 118 583 l 129 644 l 200 644 l 218 756 q 135 783 210 783 l 140 813 l 443 813 l 438 783 q 346 756 361 783 l 328 644 l 683 644 l 701 756 q 618 783 693 783 l 624 813 l 926 813 l 921 783 q 829 756 844 783 l 811 644 l 886 644 l 875 583 l 800 583 l 713 57 q 796 29 721 29 l 790 0 l 488 0 l 493 29 q 585 57 569 29 l 642 399 l 286 399 l 229 57 q 313 29 238 29 l 307 0 l 4 0 l 10 29 q 101 57 86 29 l 189 583 l 118 583 m 672 583 l 317 583 l 294 446 l 650 446 l 672 583 z "},"ħ":{"ha":740,"x_min":36,"x_max":664,"o":"m 74 672 l 85 733 l 160 733 l 167 776 q 79 783 81 783 l 85 815 q 193 845 111 815 q 307 875 275 875 l 283 733 l 489 733 l 478 672 l 274 672 l 247 514 q 431 625 331 625 q 597 593 546 625 q 649 486 649 561 q 643 433 649 472 l 596 147 q 593 117 593 125 q 612 54 593 76 q 664 32 631 32 l 658 0 q 513 25 561 0 q 465 106 465 50 q 468 133 465 114 l 519 443 q 524 482 524 464 q 415 578 524 578 q 231 414 321 578 l 161 0 l 36 0 l 149 672 l 74 672 z "},"Ĩ":{"ha":428,"x_min":3,"x_max":532,"o":"m 400 861 q 294 902 369 861 q 199 943 218 943 q 141 923 160 943 q 115 861 122 903 l 89 861 q 219 1017 114 1017 q 327 976 250 1017 q 424 935 404 935 q 481 955 463 935 q 506 1017 499 975 l 532 1017 q 400 861 507 861 m 3 0 l 8 29 q 100 57 85 29 l 217 756 q 133 783 208 783 l 139 813 l 442 813 l 436 783 q 344 756 360 783 l 228 57 q 311 29 236 29 l 306 0 l 3 0 z "},"ĩ":{"ha":338,"x_min":33,"x_max":476,"o":"m 344 715 q 238 756 314 715 q 143 797 163 797 q 85 777 104 797 q 60 715 67 757 l 33 715 q 164 871 58 871 q 272 830 194 871 q 368 789 349 789 q 425 809 407 789 q 450 871 443 829 l 476 871 q 344 715 451 715 m 147 526 q 115 529 135 528 q 83 532 96 531 q 61 533 71 533 l 67 565 q 175 595 93 565 q 289 625 257 625 l 185 0 l 60 0 l 147 526 z "},"Ī":{"ha":428,"x_min":3,"x_max":483,"o":"m 117 942 l 483 942 l 474 881 l 107 881 l 117 942 m 3 0 l 8 29 q 100 57 85 29 l 217 756 q 133 783 208 783 l 139 813 l 442 813 l 436 783 q 344 756 360 783 l 228 57 q 311 29 236 29 l 306 0 l 3 0 z "},"ī":{"ha":338,"x_min":51,"x_max":428,"o":"m 61 796 l 428 796 l 418 735 l 51 735 l 61 796 m 147 526 q 115 529 135 528 q 83 532 96 531 q 61 533 71 533 l 67 565 q 175 595 93 565 q 289 625 257 625 l 185 0 l 60 0 l 147 526 z "},"Ĭ":{"ha":428,"x_min":3,"x_max":501,"o":"m 297 875 q 186 920 222 875 q 150 1022 150 965 q 151 1047 150 1039 l 190 1047 l 190 1040 q 222 994 190 1014 q 314 975 253 975 q 419 997 379 975 q 463 1047 458 1018 l 501 1047 q 438 931 492 986 q 297 875 383 875 m 3 0 l 8 29 q 100 57 85 29 l 217 756 q 133 783 208 783 l 139 813 l 442 813 l 436 783 q 344 756 360 783 l 228 57 q 311 29 236 29 l 306 0 l 3 0 z "},"ĭ":{"ha":338,"x_min":60,"x_max":446,"o":"m 242 729 q 131 774 167 729 q 94 876 94 819 q 96 901 94 893 l 135 901 l 135 894 q 166 849 135 868 q 258 829 197 829 q 363 851 324 829 q 407 901 403 872 l 446 901 q 382 785 436 840 q 242 729 328 729 m 147 526 q 115 529 135 528 q 83 532 96 531 q 61 533 71 533 l 67 565 q 175 595 93 565 q 289 625 257 625 l 185 0 l 60 0 l 147 526 z "},"Į":{"ha":425,"x_min":4,"x_max":442,"o":"m 4 0 l 8 31 q 100 58 85 31 l 217 757 q 133 785 208 785 l 139 814 l 442 814 l 436 785 q 344 757 360 785 l 228 58 q 311 31 236 31 l 306 1 l 242 1 q 186 -114 186 -61 q 286 -231 186 -231 q 306 -225 294 -231 q 325 -214 318 -219 l 333 -208 l 344 -233 q 228 -278 310 -278 q 108 -175 108 -278 q 206 0 108 -81 l 4 0 z "},"į":{"ha":333,"x_min":36,"x_max":322,"o":"m 146 526 l 144 528 q 113 531 132 529 q 81 533 93 532 q 58 535 68 535 l 64 567 q 172 597 90 567 q 286 626 254 626 l 182 1 l 169 1 q 114 -114 114 -61 q 214 -231 114 -231 q 234 -225 222 -231 q 253 -214 246 -219 l 261 -208 l 272 -233 q 156 -278 238 -278 q 36 -175 36 -278 q 133 0 36 -81 l 58 0 l 146 526 m 322 808 q 297 743 322 771 q 235 715 271 715 q 189 734 207 715 q 171 782 171 753 q 196 848 171 819 q 257 876 221 876 q 303 857 285 876 q 322 808 322 838 z "},"İ":{"ha":428,"x_min":3,"x_max":442,"o":"m 236 922 q 262 981 236 957 q 319 1004 288 1004 q 363 987 346 1004 q 379 944 379 969 q 353 886 379 910 q 296 863 328 863 q 253 880 269 863 q 236 922 236 897 m 3 0 l 8 29 q 100 57 85 29 l 217 756 q 133 783 208 783 l 139 813 l 442 813 l 436 783 q 344 756 360 783 l 228 57 q 311 29 236 29 l 306 0 l 3 0 z "},"ı":{"ha":336,"x_min":58,"x_max":288,"o":"m 146 526 q 114 529 133 528 q 82 532 94 531 q 60 533 69 533 l 65 565 q 174 595 92 565 q 288 625 256 625 l 183 0 l 58 0 l 146 526 z "},"Ĳ":{"ha":994,"x_min":3,"x_max":1032,"o":"m 3 0 l 8 29 q 100 57 85 29 l 217 756 q 133 783 208 783 l 139 813 l 442 813 l 436 783 q 344 756 360 783 l 228 57 q 311 29 236 29 l 306 0 l 3 0 m 514 140 q 469 74 514 89 q 569 36 501 36 q 637 52 610 36 q 681 105 664 68 q 708 181 699 142 q 729 289 718 219 l 807 756 q 724 783 799 783 l 729 813 l 1032 813 l 1026 783 q 935 756 950 783 l 849 239 q 766 60 832 133 q 575 -14 700 -14 q 435 21 483 -14 q 388 100 388 56 q 409 158 388 135 q 460 181 431 181 q 514 140 514 181 z "},"ĳ":{"ha":731,"x_min":60,"x_max":718,"o":"m 325 807 q 299 742 325 769 q 238 714 274 714 q 192 733 210 714 q 174 781 174 751 q 199 847 174 818 q 260 875 224 875 q 306 856 288 875 q 325 807 325 836 m 147 526 q 115 529 135 528 q 83 532 96 531 q 61 533 71 533 l 67 565 q 175 595 93 565 q 289 625 257 625 l 185 0 l 60 0 l 147 526 m 718 808 q 692 743 718 771 q 631 715 667 715 q 585 734 603 715 q 567 782 567 753 q 592 848 567 819 q 654 876 618 876 q 700 858 682 876 q 718 808 718 839 m 542 528 q 454 535 456 535 l 460 567 q 568 597 486 567 q 682 626 650 626 l 568 -60 q 488 -225 549 -174 q 349 -276 428 -276 q 185 -179 185 -276 q 206 -122 185 -143 q 256 -100 226 -100 q 288 -112 275 -100 q 301 -144 301 -124 q 281 -187 301 -169 l 281 -196 q 342 -235 281 -235 q 398 -194 369 -235 q 439 -79 426 -153 l 542 528 z "},"Ĵ":{"ha":578,"x_min":-29,"x_max":639,"o":"m 546 1086 l 639 861 l 603 861 l 493 982 l 344 861 l 308 861 l 476 1086 l 546 1086 m 97 140 q 53 74 97 89 q 153 36 85 36 q 220 52 193 36 q 265 105 247 68 q 292 181 282 142 q 313 289 301 219 l 390 756 q 307 783 382 783 l 313 813 l 615 813 l 610 783 q 518 756 533 783 l 432 239 q 349 60 415 133 q 158 -14 283 -14 q 19 21 67 -14 q -29 100 -29 56 q -8 158 -29 135 q 43 181 14 181 q 97 140 97 181 z "},"ĵ":{"ha":335,"x_min":-211,"x_max":397,"o":"m 304 940 l 397 715 l 361 715 l 251 836 l 103 715 l 67 715 l 235 940 l 304 940 m 146 528 q 58 535 146 528 l 64 567 q 172 597 90 567 q 286 626 254 626 l 172 -60 q 92 -225 153 -174 q -47 -276 32 -276 q -211 -179 -211 -276 q -190 -122 -211 -143 q -140 -100 -169 -100 q -108 -112 -121 -100 q -94 -144 -94 -124 q -115 -187 -94 -169 l -115 -196 q -54 -235 -115 -235 q 2 -194 -26 -235 q 43 -79 31 -153 l 146 528 z "},"Ķ":{"ha":807,"x_min":3,"x_max":846,"o":"m 282 -125 q 309 -69 282 -85 q 358 -53 336 -53 q 436 -79 406 -53 q 467 -151 467 -106 q 443 -233 467 -196 q 381 -292 419 -269 q 317 -325 343 -314 q 264 -344 292 -336 l 271 -306 q 349 -267 307 -301 q 399 -190 390 -233 q 401 -160 403 -164 q 390 -156 400 -156 q 373 -165 386 -156 q 344 -174 360 -174 q 282 -125 282 -174 m 3 0 l 8 29 q 100 57 85 29 l 217 756 q 133 783 208 783 l 139 813 l 439 813 l 433 783 q 342 756 357 783 l 225 57 q 308 29 233 29 l 303 0 l 3 0 m 488 0 l 493 29 q 544 33 525 29 l 296 436 l 692 774 q 622 783 674 783 l 628 813 l 846 813 l 840 783 q 750 751 786 783 l 424 475 l 679 51 q 764 29 697 29 l 758 0 l 488 0 z "},"ķ":{"ha":675,"x_min":36,"x_max":669,"o":"m 199 -125 q 226 -69 199 -85 q 275 -53 253 -53 q 353 -79 322 -53 q 383 -151 383 -106 q 360 -233 383 -196 q 298 -292 336 -269 q 234 -325 260 -314 q 181 -344 208 -336 l 188 -306 q 265 -267 224 -301 q 315 -190 307 -233 q 318 -160 319 -164 q 307 -156 317 -156 q 290 -165 303 -156 q 261 -174 276 -174 q 199 -125 199 -174 m 669 611 l 664 582 q 586 564 610 582 l 360 388 l 543 56 q 626 29 558 29 l 621 0 l 481 0 q 389 67 424 0 l 231 353 l 513 574 q 446 582 494 582 l 451 611 l 669 611 m 167 776 q 79 783 81 783 l 85 815 q 193 845 111 815 q 307 875 275 875 l 161 0 l 36 0 l 167 776 z "},"Ĺ":{"ha":688,"x_min":3,"x_max":647,"o":"m 421 1086 l 568 1086 l 317 861 l 281 861 l 421 1086 m 3 0 l 8 29 q 100 57 85 29 l 217 756 q 133 783 208 783 l 139 813 l 442 813 l 436 783 q 344 756 360 783 l 226 47 l 543 47 q 619 135 579 61 l 647 135 l 592 0 l 3 0 z "},"ĺ":{"ha":333,"x_min":56,"x_max":524,"o":"m 376 1135 l 524 1135 l 272 910 l 236 910 l 376 1135 m 167 776 q 79 783 81 783 l 85 815 q 193 845 111 815 q 307 875 275 875 l 186 147 q 183 117 183 125 q 202 54 183 76 q 254 32 221 32 l 249 0 q 103 25 151 0 q 56 106 56 50 q 58 133 56 114 l 167 776 z "},"Ļ":{"ha":685,"x_min":3,"x_max":647,"o":"m 218 -125 q 245 -69 218 -85 q 294 -53 272 -53 q 372 -79 342 -53 q 403 -151 403 -106 q 379 -233 403 -196 q 317 -292 356 -269 q 253 -325 279 -314 q 200 -344 228 -336 l 207 -306 q 285 -267 243 -301 q 335 -190 326 -233 q 338 -160 339 -164 q 326 -156 336 -156 q 309 -165 322 -156 q 281 -174 296 -174 q 218 -125 218 -174 m 3 0 l 8 29 q 100 57 85 29 l 217 756 q 133 783 208 783 l 139 813 l 442 813 l 436 783 q 344 756 360 783 l 226 47 l 543 47 q 619 135 579 61 l 647 135 l 592 0 l 3 0 z "},"ļ":{"ha":333,"x_min":14,"x_max":307,"o":"m 32 -125 q 59 -69 32 -85 q 108 -53 86 -53 q 186 -79 156 -53 q 217 -151 217 -106 q 193 -233 217 -196 q 131 -292 169 -269 q 67 -325 93 -314 q 14 -344 42 -336 l 21 -306 q 99 -267 57 -301 q 149 -190 140 -233 q 151 -160 153 -164 q 140 -156 150 -156 q 123 -165 136 -156 q 94 -174 110 -174 q 32 -125 32 -174 m 167 776 q 79 783 81 783 l 85 815 q 193 845 111 815 q 307 875 275 875 l 186 147 q 183 117 183 125 q 202 54 183 76 q 254 32 221 32 l 249 0 q 103 25 151 0 q 56 106 56 50 q 58 133 56 114 l 167 776 z "},"Ľ":{"ha":694,"x_min":3,"x_max":681,"o":"m 496 756 q 523 812 496 796 q 572 828 550 828 q 650 801 619 828 q 681 729 681 775 q 657 648 681 685 q 595 589 633 611 q 531 556 557 567 q 478 536 506 544 l 485 575 q 563 613 521 579 q 613 690 604 647 q 615 721 617 717 q 604 725 614 725 q 587 716 600 725 q 558 707 574 707 q 496 756 496 707 m 3 0 l 8 29 q 100 57 85 29 l 217 756 q 133 783 208 783 l 139 813 l 442 813 l 436 783 q 344 756 360 783 l 226 47 l 543 47 q 619 135 579 61 l 647 135 l 592 0 l 3 0 z "},"ľ":{"ha":365,"x_min":56,"x_max":531,"o":"m 346 806 q 373 862 346 846 q 422 878 400 878 q 500 851 469 878 q 531 779 531 825 q 507 698 531 735 q 445 639 483 661 q 381 606 407 617 q 328 586 356 594 l 335 625 q 413 663 371 629 q 463 740 454 697 q 465 771 467 767 q 454 775 464 775 q 437 766 450 775 q 408 757 424 757 q 346 806 346 757 m 167 776 q 79 783 81 783 l 85 815 q 193 845 111 815 q 307 875 275 875 l 186 147 q 183 117 183 125 q 202 54 183 76 q 254 32 221 32 l 249 0 q 103 25 151 0 q 56 106 56 50 q 58 133 56 114 l 167 776 z "},"Ŀ":{"ha":690,"x_min":3,"x_max":647,"o":"m 3 0 l 8 29 q 100 57 85 29 l 217 756 q 133 783 208 783 l 139 813 l 442 813 l 436 783 q 344 756 360 783 l 226 47 l 543 47 q 619 135 579 61 l 647 135 l 592 0 l 3 0 m 496 417 q 522 475 496 451 q 579 499 547 499 q 622 481 606 499 q 639 439 639 464 q 613 381 639 404 q 556 357 588 357 q 513 374 529 357 q 496 417 496 392 z "},"ŀ":{"ha":456,"x_min":56,"x_max":469,"o":"m 167 776 q 79 783 81 783 l 85 815 q 193 845 111 815 q 307 875 275 875 l 186 147 q 183 117 183 125 q 202 54 183 76 q 254 32 221 32 l 249 0 q 103 25 151 0 q 56 106 56 50 q 58 133 56 114 l 167 776 m 326 417 q 352 475 326 451 q 410 499 378 499 q 453 481 436 499 q 469 439 469 464 q 444 381 469 404 q 386 357 418 357 q 343 374 360 357 q 326 417 326 392 z "},"Ł":{"ha":686,"x_min":3,"x_max":647,"o":"m 3 0 l 8 29 q 100 57 85 29 l 154 385 l 90 338 l 67 374 l 165 446 l 217 756 q 133 783 208 783 l 139 813 l 442 813 l 436 783 q 344 756 360 783 l 311 554 l 386 610 l 411 574 l 300 492 l 226 47 l 543 47 q 619 135 579 61 l 647 135 l 592 0 l 3 0 z "},"ł":{"ha":336,"x_min":11,"x_max":356,"o":"m 169 776 q 82 783 83 783 l 88 815 q 196 845 114 815 q 310 875 278 875 l 257 556 l 331 610 l 356 574 l 246 493 l 189 147 q 186 117 186 125 q 205 54 186 76 q 257 32 224 32 l 251 0 q 106 25 154 0 q 58 106 58 50 q 61 133 58 114 l 104 389 l 35 338 l 11 374 l 114 450 l 169 776 z "},"Ń":{"ha":893,"x_min":3,"x_max":919,"o":"m 653 1086 l 800 1086 l 549 861 l 513 861 l 653 1086 m 3 0 l 8 29 q 100 57 85 29 l 217 756 q 133 783 208 783 l 139 813 l 325 813 l 689 244 l 775 756 q 692 783 767 783 l 697 813 l 919 813 l 914 783 q 822 756 838 783 l 696 0 l 683 0 l 253 690 l 147 57 q 231 29 156 29 l 225 0 l 3 0 z "},"ń":{"ha":764,"x_min":60,"x_max":715,"o":"m 568 935 l 715 935 l 464 710 l 428 710 l 568 935 m 272 524 q 493 626 356 626 q 671 479 671 626 q 667 428 671 456 l 619 147 q 617 117 617 125 q 635 54 617 76 q 688 32 654 32 l 682 0 q 537 25 585 0 q 489 106 489 50 q 492 133 489 114 l 543 438 q 546 478 546 451 q 439 578 546 578 q 260 446 340 578 l 185 0 l 60 0 l 147 526 q 115 529 135 528 q 83 532 96 531 q 61 533 71 533 l 67 565 q 175 595 93 565 q 289 625 257 625 l 272 524 z "},"Ņ":{"ha":893,"x_min":3,"x_max":919,"o":"m 290 -125 q 317 -69 290 -85 q 367 -53 344 -53 q 444 -79 414 -53 q 475 -151 475 -106 q 451 -233 475 -196 q 390 -292 428 -269 q 326 -325 351 -314 q 272 -344 300 -336 l 279 -306 q 357 -267 315 -301 q 407 -190 399 -233 q 410 -160 411 -164 q 399 -156 408 -156 q 381 -165 394 -156 q 353 -174 368 -174 q 290 -125 290 -174 m 3 0 l 8 29 q 100 57 85 29 l 217 756 q 133 783 208 783 l 139 813 l 325 813 l 689 244 l 775 756 q 692 783 767 783 l 697 813 l 919 813 l 914 783 q 822 756 838 783 l 696 0 l 683 0 l 253 690 l 147 57 q 231 29 156 29 l 225 0 l 3 0 z "},"ņ":{"ha":763,"x_min":58,"x_max":686,"o":"m 249 -156 q 276 -99 249 -115 q 325 -83 303 -83 q 403 -110 372 -83 q 433 -182 433 -136 q 410 -263 433 -226 q 348 -322 386 -300 q 284 -356 310 -344 q 231 -375 258 -367 l 238 -336 q 315 -298 274 -332 q 365 -221 357 -264 q 368 -190 369 -194 q 357 -186 367 -186 q 340 -195 353 -186 q 311 -204 326 -204 q 249 -156 249 -204 m 271 524 q 492 626 354 626 q 669 479 669 626 q 665 428 669 456 l 618 147 q 615 117 615 125 q 634 54 615 76 q 686 32 653 32 l 681 0 q 535 25 583 0 q 488 106 488 50 q 490 133 488 114 l 542 438 q 544 478 544 451 q 438 578 544 578 q 258 446 339 578 l 183 0 l 58 0 l 146 526 q 114 529 133 528 q 82 532 94 531 q 60 533 69 533 l 65 565 q 174 595 92 565 q 288 625 256 625 l 271 524 z "},"Ň":{"ha":893,"x_min":3,"x_max":919,"o":"m 497 861 l 404 1086 l 440 1086 l 549 965 l 699 1086 l 735 1086 l 567 861 l 497 861 m 3 0 l 8 29 q 100 57 85 29 l 217 756 q 133 783 208 783 l 139 813 l 325 813 l 689 244 l 775 756 q 692 783 767 783 l 697 813 l 919 813 l 914 783 q 822 756 838 783 l 696 0 l 683 0 l 253 690 l 147 57 q 231 29 156 29 l 225 0 l 3 0 z "},"ň":{"ha":764,"x_min":60,"x_max":688,"o":"m 411 710 l 318 935 l 354 935 l 463 814 l 613 935 l 649 935 l 481 710 l 411 710 m 272 524 q 493 626 356 626 q 671 479 671 626 q 667 428 671 456 l 619 147 q 617 117 617 125 q 635 54 617 76 q 688 32 654 32 l 682 0 q 537 25 585 0 q 489 106 489 50 q 492 133 489 114 l 543 438 q 546 478 546 451 q 439 578 546 578 q 260 446 340 578 l 185 0 l 60 0 l 147 526 q 115 529 135 528 q 83 532 96 531 q 61 533 71 533 l 67 565 q 175 595 93 565 q 289 625 257 625 l 272 524 z "},"ŉ":{"ha":764,"x_min":-35,"x_max":688,"o":"m 272 524 q 493 626 356 626 q 671 479 671 626 q 667 428 671 456 l 619 147 q 617 117 617 125 q 635 54 617 76 q 688 32 654 32 l 682 0 q 537 25 585 0 q 489 106 489 50 q 492 133 489 114 l 543 438 q 546 478 546 451 q 439 578 546 578 q 260 446 340 578 l 185 0 l 60 0 l 147 526 q 115 529 135 528 q 83 532 96 531 q 61 533 71 533 l 67 565 q 175 595 93 565 q 289 625 257 625 l 272 524 m -17 854 q 10 910 -17 894 q 60 926 38 926 q 138 900 107 926 q 168 828 168 874 q 144 747 168 783 q 83 688 121 710 q 19 654 44 665 q -35 635 -7 643 l -28 674 q 50 712 8 678 q 100 789 92 746 q 103 813 103 806 q 101 822 103 821 q 92 824 99 824 q 74 815 88 824 q 46 806 61 806 q -17 854 -17 806 z "},"Ŋ":{"ha":904,"x_min":3,"x_max":856,"o":"m 360 71 q 381 113 360 94 q 428 131 403 131 q 458 116 447 131 q 481 69 469 101 q 488 51 486 54 q 494 39 489 47 q 505 29 499 31 q 521 28 511 28 q 620 109 572 28 q 697 315 668 190 q 726 563 726 439 q 572 779 726 779 q 441 726 513 779 q 317 592 369 672 l 228 57 q 311 29 236 29 l 306 0 l 3 0 l 8 29 q 100 57 85 29 l 217 756 q 133 783 208 783 l 139 813 l 354 813 l 332 682 q 463 788 392 750 q 594 826 533 826 q 856 554 856 826 q 755 151 856 317 q 528 -14 654 -14 q 413 9 465 -14 q 360 71 360 32 z "},"ŋ":{"ha":736,"x_min":58,"x_max":669,"o":"m 206 -193 q 227 -151 206 -169 q 274 -133 249 -133 q 328 -194 307 -133 q 335 -213 333 -210 q 341 -225 336 -217 q 352 -235 346 -233 q 368 -236 358 -236 q 418 -197 394 -236 q 454 -81 442 -157 l 542 438 q 544 478 544 451 q 438 578 544 578 q 258 446 339 578 l 183 0 l 58 0 l 146 526 q 60 533 63 533 l 65 565 q 174 595 92 565 q 288 625 256 625 l 271 524 q 492 626 354 626 q 669 479 669 626 q 665 428 669 456 l 583 -61 q 375 -278 546 -278 q 259 -255 313 -278 q 206 -193 206 -232 z "},"Ō":{"ha":894,"x_min":64,"x_max":847,"o":"m 353 942 l 719 942 l 710 881 l 343 881 l 353 942 m 203 318 q 251 115 203 197 q 399 33 300 33 q 565 106 492 33 q 672 281 638 178 q 707 490 707 383 q 688 631 707 568 q 624 736 669 693 q 513 779 579 779 q 347 706 419 779 q 238 530 274 633 q 203 318 203 426 m 526 826 q 760 730 674 826 q 847 486 847 633 q 708 134 847 282 q 385 -14 569 -14 q 150 82 236 -14 q 64 325 64 178 q 202 678 64 531 q 526 826 340 826 z "},"ō":{"ha":760,"x_min":44,"x_max":703,"o":"m 264 796 l 631 796 l 621 735 l 254 735 l 264 796 m 179 244 q 224 81 179 135 q 350 28 269 28 q 508 133 447 28 q 568 379 568 238 q 392 582 568 582 q 238 479 297 582 q 179 244 179 376 m 325 -14 q 117 56 189 -14 q 44 244 44 125 q 143 518 44 411 q 422 625 242 625 q 633 560 563 625 q 703 378 703 494 q 604 97 703 208 q 325 -14 506 -14 z "},"Ŏ":{"ha":894,"x_min":64,"x_max":847,"o":"m 533 875 q 422 920 458 875 q 386 1022 386 965 q 388 1047 386 1039 l 426 1047 l 426 1040 q 458 994 426 1014 q 550 975 489 975 q 655 997 615 975 q 699 1047 694 1018 l 738 1047 q 674 931 728 986 q 533 875 619 875 m 203 318 q 251 115 203 197 q 399 33 300 33 q 565 106 492 33 q 672 281 638 178 q 707 490 707 383 q 688 631 707 568 q 624 736 669 693 q 513 779 579 779 q 347 706 419 779 q 238 530 274 633 q 203 318 203 426 m 526 826 q 760 730 674 826 q 847 486 847 633 q 708 134 847 282 q 385 -14 569 -14 q 150 82 236 -14 q 64 325 64 178 q 202 678 64 531 q 526 826 340 826 z "},"ŏ":{"ha":760,"x_min":44,"x_max":703,"o":"m 444 729 q 333 774 369 729 q 297 876 297 819 q 299 901 297 893 l 338 901 l 338 894 q 369 849 338 868 q 461 829 400 829 q 566 851 526 829 q 610 901 606 872 l 649 901 q 585 785 639 840 q 444 729 531 729 m 179 244 q 224 81 179 135 q 350 28 269 28 q 508 133 447 28 q 568 379 568 238 q 392 582 568 582 q 238 479 297 582 q 179 244 179 376 m 325 -14 q 117 56 189 -14 q 44 244 44 125 q 143 518 44 411 q 422 625 242 625 q 633 560 563 625 q 703 378 703 494 q 604 97 703 208 q 325 -14 506 -14 z "},"Ő":{"ha":894,"x_min":64,"x_max":885,"o":"m 515 1086 l 663 1086 l 411 861 l 375 861 l 515 1086 m 738 1086 l 885 1086 l 633 861 l 597 861 l 738 1086 m 203 318 q 251 115 203 197 q 399 33 300 33 q 565 106 492 33 q 672 281 638 178 q 707 490 707 383 q 688 631 707 568 q 624 736 669 693 q 513 779 579 779 q 347 706 419 779 q 238 530 274 633 q 203 318 203 426 m 526 826 q 760 730 674 826 q 847 486 847 633 q 708 134 847 282 q 385 -14 569 -14 q 150 82 236 -14 q 64 325 64 178 q 202 678 64 531 q 526 826 340 826 z "},"ő":{"ha":760,"x_min":44,"x_max":796,"o":"m 426 940 l 574 940 l 322 715 l 286 715 l 426 940 m 649 940 l 796 940 l 544 715 l 508 715 l 649 940 m 179 244 q 224 81 179 135 q 350 28 269 28 q 508 133 447 28 q 568 379 568 238 q 392 582 568 582 q 238 479 297 582 q 179 244 179 376 m 325 -14 q 117 56 189 -14 q 44 244 44 125 q 143 518 44 411 q 422 625 242 625 q 633 560 563 625 q 703 378 703 494 q 604 97 703 208 q 325 -14 506 -14 z "},"Œ":{"ha":1138,"x_min":64,"x_max":1131,"o":"m 489 0 q 385 -14 442 -14 q 150 82 236 -14 q 64 325 64 178 q 202 678 64 531 q 526 826 340 826 q 626 813 583 826 l 1131 813 l 1108 678 l 1079 678 q 1083 725 1083 707 q 1065 765 1083 757 l 778 765 l 725 446 l 919 446 q 961 533 949 457 l 990 533 l 953 311 l 924 311 q 929 358 929 350 q 911 399 929 390 l 717 399 l 658 47 l 975 47 q 1051 135 1011 61 l 1079 135 l 1024 0 l 489 0 m 536 82 l 643 718 q 513 779 593 779 q 347 706 419 779 q 238 530 274 633 q 203 318 203 426 q 251 115 203 197 q 399 33 300 33 q 536 82 472 33 z "},"œ":{"ha":1197,"x_min":44,"x_max":1156,"o":"m 325 -14 q 117 56 189 -14 q 44 244 44 125 q 143 518 44 411 q 422 625 242 625 q 663 526 594 625 q 904 625 757 625 q 1094 567 1033 625 q 1156 439 1156 510 q 1120 369 1156 396 q 967 325 1085 342 l 699 289 q 747 112 699 185 q 868 39 794 39 q 1078 131 990 39 l 1108 114 q 988 17 1057 49 q 811 -14 918 -14 q 599 90 663 -14 q 325 -14 499 -14 m 179 244 q 224 81 179 135 q 350 28 269 28 q 508 133 447 28 q 568 379 568 238 q 392 582 568 582 q 238 479 297 582 q 179 244 179 376 m 701 332 l 908 360 q 999 392 968 369 q 1031 458 1031 414 q 998 544 1031 506 q 892 583 965 583 q 777 513 835 583 q 701 332 719 442 z "},"Ŕ":{"ha":810,"x_min":3,"x_max":769,"o":"m 606 1086 l 753 1086 l 501 861 l 465 861 l 606 1086 m 3 0 l 8 29 q 100 57 85 29 l 217 756 q 133 783 208 783 l 139 813 l 453 813 q 691 758 613 813 q 769 629 769 704 q 710 481 769 544 q 550 389 650 417 l 679 58 q 767 29 689 29 l 761 0 l 701 0 q 577 11 604 0 q 529 72 550 22 l 411 369 l 281 369 l 228 57 q 311 29 236 29 l 306 0 l 3 0 m 346 765 l 288 417 l 403 417 q 576 472 521 417 q 632 644 632 526 q 590 734 632 703 q 444 765 547 765 l 346 765 z "},"ŕ":{"ha":536,"x_min":60,"x_max":656,"o":"m 508 940 l 656 940 l 404 715 l 368 715 l 508 940 m 497 499 q 467 511 478 499 q 451 538 456 524 q 435 565 447 553 q 404 578 424 578 q 250 392 360 578 l 185 0 l 60 0 l 147 526 q 115 529 135 528 q 83 532 96 531 q 61 533 71 533 l 67 565 q 175 595 93 565 q 289 625 257 625 l 267 489 q 426 625 363 625 q 523 603 485 625 q 561 554 561 582 q 542 513 561 528 q 497 499 522 499 z "},"Ŗ":{"ha":811,"x_min":3,"x_max":769,"o":"m 296 -125 q 323 -69 296 -85 q 372 -53 350 -53 q 450 -79 419 -53 q 481 -151 481 -106 q 457 -233 481 -196 q 395 -292 433 -269 q 331 -325 357 -314 q 278 -344 306 -336 l 285 -306 q 363 -267 321 -301 q 413 -190 404 -233 q 415 -160 417 -164 q 404 -156 414 -156 q 387 -165 400 -156 q 358 -174 374 -174 q 296 -125 296 -174 m 3 0 l 8 29 q 100 57 85 29 l 217 756 q 133 783 208 783 l 139 813 l 453 813 q 691 758 613 813 q 769 629 769 704 q 710 481 769 544 q 550 389 650 417 l 679 58 q 767 29 689 29 l 761 0 l 701 0 q 577 11 604 0 q 529 72 550 22 l 411 369 l 281 369 l 228 57 q 311 29 236 29 l 306 0 l 3 0 m 346 765 l 288 417 l 403 417 q 576 472 521 417 q 632 644 632 526 q 590 734 632 703 q 444 765 547 765 l 346 765 z "},"ŗ":{"ha":535,"x_min":10,"x_max":560,"o":"m 28 -125 q 55 -69 28 -85 q 104 -53 82 -53 q 182 -79 151 -53 q 213 -151 213 -106 q 189 -233 213 -196 q 127 -292 165 -269 q 63 -325 89 -314 q 10 -344 38 -336 l 17 -306 q 94 -267 53 -301 q 144 -190 136 -233 q 147 -165 147 -172 q 145 -157 147 -158 q 136 -156 143 -156 q 119 -165 132 -156 q 90 -174 106 -174 q 28 -125 28 -174 m 496 499 q 465 511 476 499 q 450 538 454 524 q 434 565 446 553 q 403 578 422 578 q 249 392 358 578 l 183 0 l 58 0 l 146 526 q 114 529 133 528 q 82 532 94 531 q 60 533 69 533 l 65 565 q 174 595 92 565 q 288 625 256 625 l 265 489 q 425 625 361 625 q 522 603 483 625 q 560 554 560 582 q 540 513 560 528 q 496 499 521 499 z "},"Ř":{"ha":810,"x_min":3,"x_max":769,"o":"m 450 861 l 357 1086 l 393 1086 l 501 965 l 651 1086 l 688 1086 l 519 861 l 450 861 m 3 0 l 8 29 q 100 57 85 29 l 217 756 q 133 783 208 783 l 139 813 l 453 813 q 691 758 613 813 q 769 629 769 704 q 710 481 769 544 q 550 389 650 417 l 679 58 q 767 29 689 29 l 761 0 l 701 0 q 577 11 604 0 q 529 72 550 22 l 411 369 l 281 369 l 228 57 q 311 29 236 29 l 306 0 l 3 0 m 346 765 l 288 417 l 403 417 q 576 472 521 417 q 632 644 632 526 q 590 734 632 703 q 444 765 547 765 l 346 765 z "},"ř":{"ha":536,"x_min":60,"x_max":590,"o":"m 353 715 l 260 940 l 296 940 l 404 819 l 554 940 l 590 940 l 422 715 l 353 715 m 497 499 q 467 511 478 499 q 451 538 456 524 q 435 565 447 553 q 404 578 424 578 q 250 392 360 578 l 185 0 l 60 0 l 147 526 q 115 529 135 528 q 83 532 96 531 q 61 533 71 533 l 67 565 q 175 595 93 565 q 289 625 257 625 l 267 489 q 426 625 363 625 q 523 603 485 625 q 561 554 561 582 q 542 513 561 528 q 497 499 522 499 z "},"Ś":{"ha":665,"x_min":14,"x_max":672,"o":"m 525 1086 l 672 1086 l 421 861 l 385 861 l 525 1086 m 286 -14 q 151 7 218 -14 q 81 28 83 28 q 60 19 72 28 q 46 0 47 11 l 14 0 l 46 193 l 76 193 q 139 72 78 110 q 286 33 200 33 q 422 72 365 33 q 478 186 478 110 q 466 235 478 213 q 431 276 454 257 q 387 310 408 296 q 332 343 365 324 q 281 375 299 363 q 221 417 238 404 q 173 460 204 431 q 128 519 142 489 q 115 583 115 549 q 206 752 115 678 q 397 826 297 826 q 494 806 439 826 q 558 785 550 785 q 579 813 575 785 l 611 813 l 596 636 l 565 636 q 520 738 565 697 q 390 779 475 779 q 275 734 322 779 q 228 640 228 689 q 239 597 228 617 q 273 558 250 576 q 317 526 296 539 q 371 493 338 513 q 422 461 404 474 q 476 424 463 433 q 521 389 489 415 q 565 344 553 363 q 588 298 576 326 q 600 239 600 269 q 548 98 600 158 q 426 12 496 38 q 286 -14 357 -14 z "},"ś":{"ha":567,"x_min":17,"x_max":619,"o":"m 472 940 l 619 940 l 368 715 l 332 715 l 472 940 m 310 578 q 220 552 263 578 q 178 492 178 526 q 210 429 178 457 q 288 381 242 401 q 379 338 333 360 q 457 279 425 315 q 489 197 489 243 q 410 43 489 100 q 222 -14 331 -14 q 124 7 172 -14 q 71 28 76 28 q 50 0 54 28 l 17 0 l 32 176 l 63 176 q 122 81 63 121 q 243 42 181 42 q 294 47 268 42 q 348 77 321 53 q 375 142 375 101 q 345 201 375 175 q 272 247 315 228 q 185 286 228 265 q 112 343 142 307 q 82 428 82 379 q 148 573 82 521 q 313 625 214 625 q 406 604 360 625 q 460 583 453 583 q 482 611 478 583 l 514 611 l 497 435 l 467 435 q 419 535 467 492 q 310 578 372 578 z "},"Ŝ":{"ha":665,"x_min":14,"x_max":611,"o":"m 475 1086 l 568 861 l 532 861 l 422 982 l 274 861 l 238 861 l 406 1086 l 475 1086 m 286 -14 q 151 7 218 -14 q 81 28 83 28 q 60 19 72 28 q 46 0 47 11 l 14 0 l 46 193 l 76 193 q 139 72 78 110 q 286 33 200 33 q 422 72 365 33 q 478 186 478 110 q 466 235 478 213 q 431 276 454 257 q 387 310 408 296 q 332 343 365 324 q 281 375 299 363 q 221 417 238 404 q 173 460 204 431 q 128 519 142 489 q 115 583 115 549 q 206 752 115 678 q 397 826 297 826 q 494 806 439 826 q 558 785 550 785 q 579 813 575 785 l 611 813 l 596 636 l 565 636 q 520 738 565 697 q 390 779 475 779 q 275 734 322 779 q 228 640 228 689 q 239 597 228 617 q 273 558 250 576 q 317 526 296 539 q 371 493 338 513 q 422 461 404 474 q 476 424 463 433 q 521 389 489 415 q 565 344 553 363 q 588 298 576 326 q 600 239 600 269 q 548 98 600 158 q 426 12 496 38 q 286 -14 357 -14 z "},"ŝ":{"ha":567,"x_min":17,"x_max":515,"o":"m 422 940 l 515 715 l 479 715 l 369 836 l 221 715 l 185 715 l 353 940 l 422 940 m 310 578 q 220 552 263 578 q 178 492 178 526 q 210 429 178 457 q 288 381 242 401 q 379 338 333 360 q 457 279 425 315 q 489 197 489 243 q 410 43 489 100 q 222 -14 331 -14 q 124 7 172 -14 q 71 28 76 28 q 50 0 54 28 l 17 0 l 32 176 l 63 176 q 122 81 63 121 q 243 42 181 42 q 294 47 268 42 q 348 77 321 53 q 375 142 375 101 q 345 201 375 175 q 272 247 315 228 q 185 286 228 265 q 112 343 142 307 q 82 428 82 379 q 148 573 82 521 q 313 625 214 625 q 406 604 360 625 q 460 583 453 583 q 482 611 478 583 l 514 611 l 497 435 l 467 435 q 419 535 467 492 q 310 578 372 578 z "},"Ş":{"ha":667,"x_min":14,"x_max":611,"o":"m 157 -246 l 156 -244 q 241 -222 214 -244 q 268 -167 268 -200 q 193 -118 268 -118 l 242 -11 q 138 10 190 -7 q 81 28 86 28 q 60 19 72 28 q 46 0 47 11 l 14 0 l 46 193 l 76 193 q 139 72 78 110 q 286 33 200 33 q 422 72 365 33 q 478 186 478 110 q 466 235 478 213 q 431 276 454 257 q 387 310 408 296 q 332 343 365 324 q 281 375 299 363 q 221 417 238 404 q 173 460 204 431 q 128 519 142 489 q 115 583 115 549 q 206 752 115 678 q 397 826 297 826 q 494 806 439 826 q 558 785 550 785 q 579 813 575 785 l 611 813 l 596 636 l 565 636 q 520 738 565 697 q 390 779 475 779 q 275 734 322 779 q 228 640 228 689 q 239 597 228 617 q 273 558 250 576 q 317 526 296 539 q 371 493 338 513 q 422 461 404 474 q 476 424 463 433 q 521 389 489 415 q 565 344 553 363 q 588 298 576 326 q 600 239 600 269 q 550 101 600 160 q 433 15 500 42 q 296 -14 367 -11 l 268 -76 q 350 -97 308 -76 q 392 -157 392 -117 q 351 -242 392 -207 q 221 -276 310 -276 q 119 -267 174 -276 l 124 -243 q 157 -246 149 -246 z "},"ş":{"ha":568,"x_min":17,"x_max":514,"o":"m 75 -246 q 160 -224 133 -246 q 188 -168 188 -201 q 113 -119 188 -119 l 163 -7 q 110 14 139 0 q 71 28 81 28 q 50 0 54 28 l 17 0 l 32 176 l 63 176 q 122 81 63 121 q 243 42 181 42 q 294 47 268 42 q 348 77 321 53 q 375 142 375 101 q 345 201 375 175 q 272 247 315 228 q 185 286 228 265 q 112 343 142 307 q 82 428 82 379 q 148 573 82 521 q 313 625 214 625 q 406 604 360 625 q 460 583 453 583 q 482 611 478 583 l 514 611 l 497 435 l 467 435 q 419 535 467 492 q 310 578 372 578 q 220 552 263 578 q 178 492 178 526 q 210 429 178 457 q 288 381 242 401 q 379 338 333 360 q 457 279 425 315 q 489 197 489 243 q 410 43 489 100 q 222 -14 331 -14 l 214 -14 l 186 -76 q 268 -97 226 -76 q 310 -157 310 -117 q 269 -242 310 -207 q 139 -276 228 -276 q 38 -267 92 -276 l 42 -243 q 75 -246 67 -246 z "},"Š":{"ha":665,"x_min":14,"x_max":611,"o":"m 369 861 l 276 1086 l 313 1086 l 421 965 l 571 1086 l 607 1086 l 439 861 l 369 861 m 286 -14 q 151 7 218 -14 q 81 28 83 28 q 60 19 72 28 q 46 0 47 11 l 14 0 l 46 193 l 76 193 q 139 72 78 110 q 286 33 200 33 q 422 72 365 33 q 478 186 478 110 q 466 235 478 213 q 431 276 454 257 q 387 310 408 296 q 332 343 365 324 q 281 375 299 363 q 221 417 238 404 q 173 460 204 431 q 128 519 142 489 q 115 583 115 549 q 206 752 115 678 q 397 826 297 826 q 494 806 439 826 q 558 785 550 785 q 579 813 575 785 l 611 813 l 596 636 l 565 636 q 520 738 565 697 q 390 779 475 779 q 275 734 322 779 q 228 640 228 689 q 239 597 228 617 q 273 558 250 576 q 317 526 296 539 q 371 493 338 513 q 422 461 404 474 q 476 424 463 433 q 521 389 489 415 q 565 344 553 363 q 588 298 576 326 q 600 239 600 269 q 548 98 600 158 q 426 12 496 38 q 286 -14 357 -14 z "},"š":{"ha":567,"x_min":17,"x_max":554,"o":"m 317 715 l 224 940 l 260 940 l 368 819 l 518 940 l 554 940 l 386 715 l 317 715 m 310 578 q 220 552 263 578 q 178 492 178 526 q 210 429 178 457 q 288 381 242 401 q 379 338 333 360 q 457 279 425 315 q 489 197 489 243 q 410 43 489 100 q 222 -14 331 -14 q 124 7 172 -14 q 71 28 76 28 q 50 0 54 28 l 17 0 l 32 176 l 63 176 q 122 81 63 121 q 243 42 181 42 q 294 47 268 42 q 348 77 321 53 q 375 142 375 101 q 345 201 375 175 q 272 247 315 228 q 185 286 228 265 q 112 343 142 307 q 82 428 82 379 q 148 573 82 521 q 313 625 214 625 q 406 604 360 625 q 460 583 453 583 q 482 611 478 583 l 514 611 l 497 435 l 467 435 q 419 535 467 492 q 310 578 372 578 z "},"Ţ":{"ha":743,"x_min":75,"x_max":794,"o":"m 193 -246 q 278 -224 251 -246 q 306 -168 306 -201 q 231 -119 306 -119 l 285 0 l 158 0 l 164 29 q 256 57 240 29 l 374 765 l 146 765 q 104 678 117 754 l 75 678 l 97 813 l 794 813 l 772 678 l 743 678 q 747 725 747 707 q 729 765 747 757 l 501 765 l 383 57 q 467 29 392 29 l 461 0 l 338 0 l 304 -76 q 386 -97 344 -76 q 428 -157 428 -117 q 387 -242 428 -207 q 257 -276 346 -276 q 156 -267 210 -276 l 160 -243 q 193 -246 185 -246 z "},"ţ":{"ha":465,"x_min":43,"x_max":415,"o":"m 81 -246 l 79 -246 q 165 -224 138 -246 q 192 -168 192 -201 q 117 -119 192 -119 l 167 -10 q 79 100 79 8 q 83 139 79 118 l 156 569 l 58 569 l 65 611 q 206 672 146 611 q 279 813 267 732 l 329 813 l 296 611 l 415 611 l 408 569 l 289 569 l 214 128 q 211 96 211 106 q 272 39 211 39 q 327 63 297 39 q 374 131 357 88 l 404 114 q 218 -14 353 -12 l 192 -76 q 274 -97 232 -76 q 315 -157 315 -117 q 274 -242 315 -207 q 144 -276 233 -276 q 43 -267 97 -276 l 47 -243 q 81 -246 72 -246 z "},"Ť":{"ha":743,"x_min":75,"x_max":794,"o":"m 422 861 l 329 1086 l 365 1086 l 474 965 l 624 1086 l 660 1086 l 492 861 l 422 861 m 97 813 l 794 813 l 772 678 l 743 678 q 747 725 747 707 q 729 765 747 757 l 501 765 l 383 57 q 467 29 392 29 l 461 0 l 158 0 l 164 29 q 256 57 240 29 l 374 765 l 146 765 q 104 678 117 754 l 75 678 l 97 813 z "},"ť":{"ha":463,"x_min":57,"x_max":588,"o":"m 403 908 q 430 965 403 949 q 479 981 457 981 q 557 954 526 981 q 588 882 588 928 q 564 801 588 838 q 502 742 540 764 q 438 708 464 719 q 385 689 413 697 l 392 728 q 469 766 428 732 q 519 843 511 800 q 522 868 522 861 q 520 876 522 875 q 511 878 518 878 q 494 869 507 878 q 465 860 481 860 q 403 908 403 860 m 328 813 l 294 611 l 414 611 l 407 569 l 288 569 l 213 128 q 210 96 210 106 q 271 39 210 39 q 326 63 296 39 q 372 131 356 88 l 403 114 q 214 -14 351 -14 q 78 100 78 -14 q 82 139 78 118 l 154 569 l 57 569 l 64 611 q 205 672 144 611 q 278 813 265 732 l 328 813 z "},"Ŧ":{"ha":743,"x_min":75,"x_max":794,"o":"m 97 813 l 794 813 l 772 678 l 743 678 q 747 725 747 707 q 729 765 747 757 l 501 765 l 451 463 l 568 463 l 560 415 l 443 415 l 383 57 q 467 29 392 29 l 461 0 l 158 0 l 164 29 q 256 57 240 29 l 315 415 l 193 415 l 201 463 l 324 463 l 374 765 l 146 765 q 104 678 117 754 l 75 678 l 97 813 z "},"ŧ":{"ha":465,"x_min":25,"x_max":415,"o":"m 329 813 l 296 608 l 415 608 l 408 567 l 289 567 l 264 421 l 400 421 l 392 374 l 256 374 l 214 126 q 211 94 211 104 q 272 38 211 38 q 327 62 297 38 q 374 129 357 86 l 404 113 q 215 -15 353 -15 q 79 99 79 -15 q 83 138 79 117 l 124 375 l 25 375 l 33 422 l 131 422 l 156 569 l 58 569 l 65 611 q 206 672 146 611 q 279 813 267 732 l 329 813 z "},"Ũ":{"ha":860,"x_min":104,"x_max":899,"o":"m 654 861 q 548 902 624 861 q 453 943 472 943 q 395 923 414 943 q 369 861 376 903 l 343 861 q 474 1017 368 1017 q 581 976 504 1017 q 678 935 658 935 q 735 955 717 935 q 760 1017 753 975 l 786 1017 q 654 861 761 861 m 414 33 q 583 111 507 33 q 681 317 660 189 l 754 756 q 671 783 746 783 l 676 813 l 899 813 l 893 783 q 801 756 817 783 l 733 344 q 608 75 703 164 q 392 -14 514 -14 q 110 244 110 -14 q 119 344 110 281 l 188 756 q 104 783 179 783 l 110 813 l 413 813 l 407 783 q 315 756 331 783 l 243 325 q 236 244 236 276 q 284 88 236 143 q 414 33 332 33 z "},"ũ":{"ha":765,"x_min":63,"x_max":690,"o":"m 542 715 q 435 756 511 715 q 340 797 360 797 q 283 777 301 797 q 257 715 264 757 l 231 715 q 361 871 256 871 q 469 830 392 871 q 565 789 546 789 q 622 809 604 789 q 647 871 640 829 l 674 871 q 542 715 649 715 m 613 147 q 610 117 610 125 q 628 54 610 76 q 681 32 647 32 l 675 0 q 485 82 504 0 q 294 -14 389 -14 q 131 22 182 -14 q 79 133 79 58 q 83 183 79 156 l 146 554 q 63 582 138 582 l 68 611 l 281 611 l 207 174 q 203 133 203 153 q 311 33 203 33 q 483 121 406 33 l 565 611 l 690 611 l 613 147 z "},"Ū":{"ha":860,"x_min":104,"x_max":899,"o":"m 371 942 l 738 942 l 728 881 l 361 881 l 371 942 m 414 33 q 583 111 507 33 q 681 317 660 189 l 754 756 q 671 783 746 783 l 676 813 l 899 813 l 893 783 q 801 756 817 783 l 733 344 q 608 75 703 164 q 392 -14 514 -14 q 110 244 110 -14 q 119 344 110 281 l 188 756 q 104 783 179 783 l 110 813 l 413 813 l 407 783 q 315 756 331 783 l 243 325 q 236 244 236 276 q 284 88 236 143 q 414 33 332 33 z "},"ū":{"ha":765,"x_min":63,"x_max":690,"o":"m 258 796 l 625 796 l 615 735 l 249 735 l 258 796 m 613 147 q 610 117 610 125 q 628 54 610 76 q 681 32 647 32 l 675 0 q 485 82 504 0 q 294 -14 389 -14 q 131 22 182 -14 q 79 133 79 58 q 83 183 79 156 l 146 554 q 63 582 138 582 l 68 611 l 281 611 l 207 174 q 203 133 203 153 q 311 33 203 33 q 483 121 406 33 l 565 611 l 690 611 l 613 147 z "},"Ŭ":{"ha":860,"x_min":104,"x_max":899,"o":"m 551 875 q 440 920 476 875 q 404 1022 404 965 q 406 1047 404 1039 l 444 1047 l 444 1040 q 476 994 444 1014 q 568 975 507 975 q 673 997 633 975 q 717 1047 713 1018 l 756 1047 q 692 931 746 986 q 551 875 638 875 m 414 33 q 583 111 507 33 q 681 317 660 189 l 754 756 q 671 783 746 783 l 676 813 l 899 813 l 893 783 q 801 756 817 783 l 733 344 q 608 75 703 164 q 392 -14 514 -14 q 110 244 110 -14 q 119 344 110 281 l 188 756 q 104 783 179 783 l 110 813 l 413 813 l 407 783 q 315 756 331 783 l 243 325 q 236 244 236 276 q 284 88 236 143 q 414 33 332 33 z "},"ŭ":{"ha":765,"x_min":63,"x_max":690,"o":"m 439 729 q 328 774 364 729 q 292 876 292 819 q 293 901 292 893 l 332 901 l 332 894 q 363 849 332 868 q 456 829 394 829 q 560 851 521 829 q 604 901 600 872 l 643 901 q 579 785 633 840 q 439 729 525 729 m 613 147 q 610 117 610 125 q 628 54 610 76 q 681 32 647 32 l 675 0 q 485 82 504 0 q 294 -14 389 -14 q 131 22 182 -14 q 79 133 79 58 q 83 183 79 156 l 146 554 q 63 582 138 582 l 68 611 l 281 611 l 207 174 q 203 133 203 153 q 311 33 203 33 q 483 121 406 33 l 565 611 l 690 611 l 613 147 z "},"Ů":{"ha":860,"x_min":104,"x_max":899,"o":"m 576 1022 q 524 1000 547 1022 q 500 946 500 978 q 515 907 500 922 q 554 892 531 892 q 608 914 583 892 q 632 968 632 936 q 616 1007 632 992 q 576 1022 600 1022 m 461 939 q 498 1025 461 990 q 583 1060 535 1060 q 646 1035 622 1060 q 669 975 669 1011 q 633 889 669 924 q 549 854 597 854 q 485 878 510 854 q 461 939 461 903 m 414 33 q 583 111 507 33 q 681 317 660 189 l 754 756 q 671 783 746 783 l 676 813 l 899 813 l 893 783 q 801 756 817 783 l 733 344 q 608 75 703 164 q 392 -14 514 -14 q 110 244 110 -14 q 119 344 110 281 l 188 756 q 104 783 179 783 l 110 813 l 413 813 l 407 783 q 315 756 331 783 l 243 325 q 236 244 236 276 q 284 88 236 143 q 414 33 332 33 z "},"ů":{"ha":765,"x_min":63,"x_max":690,"o":"m 464 876 q 411 854 435 876 q 388 800 388 832 q 403 761 388 776 q 442 746 418 746 q 495 768 471 746 q 519 822 519 790 q 503 861 519 846 q 464 876 488 876 m 349 793 q 385 879 349 844 q 471 914 422 914 q 533 890 508 914 q 557 829 557 867 q 521 743 557 778 q 436 708 485 708 q 373 733 397 708 q 349 793 349 757 m 613 147 q 610 117 610 125 q 628 54 610 76 q 681 32 647 32 l 675 0 q 485 82 504 0 q 294 -14 389 -14 q 131 22 182 -14 q 79 133 79 58 q 83 183 79 156 l 146 554 q 63 582 138 582 l 68 611 l 281 611 l 207 174 q 203 133 203 153 q 311 33 203 33 q 483 121 406 33 l 565 611 l 690 611 l 613 147 z "},"Ű":{"ha":860,"x_min":104,"x_max":903,"o":"m 533 1086 l 681 1086 l 429 861 l 393 861 l 533 1086 m 756 1086 l 903 1086 l 651 861 l 615 861 l 756 1086 m 414 33 q 583 111 507 33 q 681 317 660 189 l 754 756 q 671 783 746 783 l 676 813 l 899 813 l 893 783 q 801 756 817 783 l 733 344 q 608 75 703 164 q 392 -14 514 -14 q 110 244 110 -14 q 119 344 110 281 l 188 756 q 104 783 179 783 l 110 813 l 413 813 l 407 783 q 315 756 331 783 l 243 325 q 236 244 236 276 q 284 88 236 143 q 414 33 332 33 z "},"ű":{"ha":765,"x_min":63,"x_max":790,"o":"m 421 940 l 568 940 l 317 715 l 281 715 l 421 940 m 643 940 l 790 940 l 539 715 l 503 715 l 643 940 m 613 147 q 610 117 610 125 q 628 54 610 76 q 681 32 647 32 l 675 0 q 485 82 504 0 q 294 -14 389 -14 q 131 22 182 -14 q 79 133 79 58 q 83 183 79 156 l 146 554 q 63 582 138 582 l 68 611 l 281 611 l 207 174 q 203 133 203 153 q 311 33 203 33 q 483 121 406 33 l 565 611 l 690 611 l 613 147 z "},"Ų":{"ha":863,"x_min":106,"x_max":900,"o":"m 415 33 l 415 35 q 585 113 508 35 q 682 318 661 190 l 756 757 q 672 785 747 785 l 678 814 l 900 814 l 894 785 q 803 757 818 785 l 735 346 q 615 81 706 169 q 406 -12 524 -8 q 363 -112 363 -68 q 463 -229 363 -229 q 483 -224 471 -229 q 503 -212 494 -218 l 510 -207 l 521 -232 q 404 -276 486 -276 q 285 -174 285 -276 q 365 -12 285 -90 q 111 244 111 0 q 121 344 111 281 l 189 756 q 106 783 181 783 l 111 813 l 414 813 l 408 783 q 317 756 332 783 l 244 325 q 238 244 238 276 q 285 88 238 143 q 415 33 333 33 z "},"ų":{"ha":765,"x_min":63,"x_max":690,"o":"m 481 15 l 513 15 q 500 0 513 15 q 475 -30 486 -15 q 453 -68 464 -44 q 443 -114 443 -92 q 543 -231 443 -231 q 563 -225 551 -231 q 583 -214 575 -219 l 590 -208 l 601 -233 q 485 -278 567 -278 q 365 -175 365 -278 q 372 -129 365 -151 q 388 -88 378 -107 q 410 -53 399 -69 q 435 -25 422 -37 q 458 -3 447 -12 q 475 11 468 6 l 481 15 m 613 147 q 610 117 610 125 q 628 54 610 76 q 681 32 647 32 l 675 0 q 485 82 504 0 q 294 -14 389 -14 q 131 22 182 -14 q 79 133 79 58 q 83 183 79 156 l 146 554 q 63 582 138 582 l 68 611 l 281 611 l 207 174 q 203 133 203 153 q 311 33 203 33 q 483 121 406 33 l 565 611 l 690 611 l 613 147 z "},"Ŵ":{"ha":1167,"x_min":53,"x_max":1253,"o":"m 708 1086 l 801 861 l 765 861 l 656 982 l 507 861 l 471 861 l 639 1086 l 708 1086 m 775 813 l 769 783 q 686 767 706 783 l 801 185 l 1101 758 q 1019 783 1092 783 l 1025 813 l 1253 813 l 1247 783 q 1156 754 1169 783 l 760 0 l 693 0 l 600 485 l 347 0 l 281 0 l 138 754 q 53 783 131 783 l 58 813 l 363 813 l 357 783 q 274 767 292 783 l 389 186 l 586 563 l 550 754 q 465 783 544 783 l 471 813 l 775 813 z "},"ŵ":{"ha":986,"x_min":15,"x_max":992,"o":"m 619 940 l 713 715 l 676 715 l 567 836 l 418 715 l 382 715 l 550 940 l 619 940 m 592 511 l 672 169 q 716 227 679 179 q 766 294 753 275 q 809 357 779 313 q 854 429 839 401 q 887 496 869 457 q 914 569 904 535 q 842 582 897 582 l 847 611 l 992 611 q 923 427 978 525 q 810 258 868 329 q 702 113 753 186 q 644 0 651 40 l 576 0 l 496 353 l 294 0 l 226 0 l 99 554 q 15 582 90 582 l 21 611 l 218 611 l 322 169 l 517 511 l 592 511 z "},"Ŷ":{"ha":779,"x_min":56,"x_max":864,"o":"m 582 1086 l 675 861 l 639 861 l 529 982 l 381 861 l 344 861 l 513 1086 l 582 1086 m 365 813 l 360 783 q 276 767 294 783 l 429 390 l 713 758 q 631 783 703 783 l 636 813 l 864 813 l 858 783 q 776 765 799 783 l 457 350 l 408 57 q 492 29 417 29 l 486 0 l 183 0 l 189 29 q 281 57 265 29 l 322 306 l 140 756 q 56 783 125 783 l 61 813 l 365 813 z "},"ŷ":{"ha":618,"x_min":-6,"x_max":640,"o":"m 476 940 l 569 715 l 533 715 l 424 836 l 275 715 l 239 715 l 407 940 l 476 940 m 225 0 l 97 554 q 14 582 89 582 l 19 611 l 217 611 l 321 169 l 546 567 q 471 582 528 582 l 476 611 l 640 611 l 213 -142 q 47 -256 146 -256 q 11 -243 28 -256 q -6 -212 -6 -231 q 11 -171 -6 -190 q 49 -151 28 -151 q 74 -163 60 -151 q 97 -175 88 -175 q 140 -150 126 -175 l 225 0 z "},"Ÿ":{"ha":779,"x_min":56,"x_max":864,"o":"m 579 918 q 604 974 579 950 q 660 997 629 997 q 701 981 685 997 q 718 940 718 964 q 693 885 718 908 q 638 861 668 861 q 596 878 613 861 q 579 918 579 894 m 324 918 q 349 974 324 950 q 404 997 374 997 q 446 981 429 997 q 463 940 463 964 q 438 885 463 908 q 382 861 413 861 q 340 878 357 861 q 324 918 324 894 m 365 813 l 360 783 q 276 767 294 783 l 429 390 l 713 758 q 631 783 703 783 l 636 813 l 864 813 l 858 783 q 776 765 799 783 l 457 350 l 408 57 q 492 29 417 29 l 486 0 l 183 0 l 189 29 q 281 57 265 29 l 322 306 l 140 756 q 56 783 125 783 l 61 813 l 365 813 z "},"Ź":{"ha":699,"x_min":-32,"x_max":711,"o":"m 554 1086 l 701 1086 l 450 861 l 414 861 l 554 1086 m 568 0 l -32 0 l 539 771 l 201 771 q 158 683 171 758 l 129 683 l 151 813 l 711 813 l 140 42 l 518 42 q 597 133 564 60 l 626 133 l 568 0 z "},"ź":{"ha":594,"x_min":-32,"x_max":633,"o":"m 486 940 l 633 940 l 382 715 l 346 715 l 486 940 m 482 0 l -32 0 l 432 569 l 165 569 q 122 482 135 557 l 93 482 l 115 611 l 596 611 l 132 42 l 432 42 q 475 129 463 54 l 504 129 l 482 0 z "},"Ż":{"ha":699,"x_min":-32,"x_max":711,"o":"m 372 922 q 398 981 372 957 q 456 1004 424 1004 q 499 987 482 1004 q 515 944 515 969 q 490 886 515 910 q 432 863 464 863 q 389 880 406 863 q 372 922 372 897 m 568 0 l -32 0 l 539 771 l 201 771 q 158 683 171 758 l 129 683 l 151 813 l 711 813 l 140 42 l 518 42 q 597 133 564 60 l 626 133 l 568 0 z "},"ż":{"ha":594,"x_min":-32,"x_max":596,"o":"m 304 776 q 330 835 304 811 q 388 858 356 858 q 431 841 414 858 q 447 799 447 824 q 422 740 447 764 q 364 717 396 717 q 321 734 338 717 q 304 776 304 751 m 482 0 l -32 0 l 432 569 l 165 569 q 122 482 135 557 l 93 482 l 115 611 l 596 611 l 132 42 l 432 42 q 475 129 463 54 l 504 129 l 482 0 z "},"Ž":{"ha":699,"x_min":-32,"x_max":711,"o":"m 399 861 l 306 1086 l 342 1086 l 450 965 l 600 1086 l 636 1086 l 468 861 l 399 861 m 568 0 l -32 0 l 539 771 l 201 771 q 158 683 171 758 l 129 683 l 151 813 l 711 813 l 140 42 l 518 42 q 597 133 564 60 l 626 133 l 568 0 z "},"ž":{"ha":594,"x_min":-32,"x_max":596,"o":"m 331 715 l 238 940 l 274 940 l 382 819 l 532 940 l 568 940 l 400 715 l 331 715 m 482 0 l -32 0 l 432 569 l 165 569 q 122 482 135 557 l 93 482 l 115 611 l 596 611 l 132 42 l 432 42 q 475 129 463 54 l 504 129 l 482 0 z "},"ſ":{"ha":333,"x_min":-32,"x_max":550,"o":"m 550 776 q 529 720 550 742 q 479 699 508 699 q 447 710 460 699 q 433 743 433 722 q 454 786 433 768 l 454 793 q 394 833 454 833 q 337 792 367 833 q 294 678 307 751 l 181 0 l -32 0 l -26 29 q 65 57 50 29 l 165 658 q 247 823 185 771 q 388 875 308 875 q 550 776 550 875 z "},"ƀ":{"ha":743,"x_min":42,"x_max":688,"o":"m 69 667 l 81 728 l 153 728 l 161 776 q 74 783 75 783 l 79 815 q 188 845 106 815 q 301 875 269 875 l 276 728 l 447 728 l 436 667 l 267 667 l 243 522 q 451 631 340 631 q 529 619 490 631 q 605 581 568 607 q 665 504 642 554 q 688 386 688 454 q 578 93 688 200 q 313 -14 469 -14 q 158 7 225 -14 q 67 49 90 28 l 42 69 l 143 667 l 69 667 m 231 451 l 164 53 q 313 33 229 33 q 481 136 404 33 q 557 393 557 239 q 523 532 557 481 q 429 583 489 583 q 231 451 324 583 z "},"Ɓ":{"ha":935,"x_min":67,"x_max":868,"o":"m 224 619 q 201 565 224 586 q 147 544 178 544 q 87 574 107 544 q 67 643 67 603 q 84 713 67 679 q 131 764 101 747 q 183 792 163 783 q 251 806 203 800 q 381 813 300 813 l 549 813 q 789 763 710 813 q 868 642 868 714 q 819 510 868 565 q 688 429 771 456 q 822 361 778 407 q 865 260 865 315 q 763 72 865 144 q 490 0 661 0 l 157 0 l 163 29 q 254 57 239 29 l 372 765 q 213 739 242 765 q 189 685 189 718 q 206 651 189 669 q 224 619 224 633 m 500 765 l 446 443 l 503 443 q 670 497 611 443 q 729 647 729 551 q 540 765 729 765 l 500 765 m 440 403 l 381 47 l 499 47 q 668 107 610 47 q 726 265 726 167 q 684 363 726 324 q 542 403 642 403 l 440 403 z "},"Ɔ":{"ha":808,"x_min":24,"x_max":763,"o":"m 153 203 q 133 154 153 171 q 94 138 114 138 q 149 61 97 94 q 276 28 200 28 q 395 59 335 28 q 507 147 456 90 q 591 292 558 203 q 624 488 624 382 q 553 705 624 631 q 396 779 482 779 q 252 738 324 779 q 136 631 181 696 l 106 647 q 233 776 153 725 q 422 826 313 826 q 526 810 472 826 q 635 760 579 794 q 726 658 690 725 q 763 500 763 590 q 718 285 763 385 q 605 122 674 185 q 454 22 536 58 q 294 -14 372 -14 q 91 32 158 -14 q 24 149 24 78 q 44 217 24 190 q 97 243 64 243 q 153 203 153 243 z "},"Ƈ":{"ha":781,"x_min":63,"x_max":1001,"o":"m 1001 932 q 980 874 1001 897 q 925 851 958 851 q 883 878 893 851 q 847 899 876 899 q 800 883 818 899 q 753 753 771 861 l 733 636 l 703 636 q 556 779 703 779 q 313 646 415 779 q 210 321 210 513 q 274 108 210 183 q 436 33 339 33 q 581 81 506 33 q 686 183 657 129 l 717 167 q 400 -14 611 -14 q 150 81 238 -14 q 63 318 63 175 q 108 531 63 432 q 226 692 154 629 q 387 791 299 756 q 563 826 475 826 q 653 806 603 826 q 710 785 703 785 l 711 785 q 735 877 722 842 q 758 928 749 913 q 790 969 768 943 q 839 1003 808 990 q 894 1015 869 1015 q 968 993 935 1015 q 1001 932 1001 971 z "},"ƈ":{"ha":789,"x_min":44,"x_max":869,"o":"m 490 449 q 510 497 490 481 q 549 514 529 514 q 418 583 543 583 q 251 498 321 583 q 181 281 181 413 q 230 110 181 181 q 351 39 279 39 q 561 131 474 39 l 592 114 q 471 17 540 49 q 294 -14 401 -14 q 119 46 193 -14 q 44 243 44 106 q 53 336 44 283 q 173 541 74 457 q 411 625 272 625 q 589 576 538 625 q 610 643 599 615 q 631 683 622 671 q 658 719 640 696 q 707 753 676 740 q 763 765 738 765 q 836 743 803 765 q 869 682 869 721 q 847 624 869 647 q 792 601 825 601 q 751 628 761 601 q 715 649 744 649 q 668 633 686 649 q 617 478 639 611 q 592 428 611 447 q 544 408 572 408 q 490 449 490 408 z "},"Ɖ":{"ha":858,"x_min":6,"x_max":810,"o":"m 229 47 l 350 47 q 455 78 400 47 q 559 164 510 108 q 640 310 608 219 q 672 506 672 400 q 608 705 672 638 q 454 772 544 772 l 350 772 l 300 471 l 468 471 l 457 410 l 289 410 l 229 47 m 219 756 q 136 783 211 783 l 142 813 l 461 813 q 717 724 624 813 q 810 489 810 636 q 672 138 810 275 q 342 0 533 0 l 6 0 l 11 29 q 103 57 88 29 l 161 410 l 90 410 l 101 471 l 172 471 l 219 756 z "},"Ɗ":{"ha":1010,"x_min":67,"x_max":961,"o":"m 224 619 q 201 565 224 586 q 147 544 178 544 q 87 574 107 544 q 67 643 67 603 q 84 713 67 679 q 131 764 101 747 q 183 792 163 783 q 251 806 203 800 q 381 813 300 813 l 613 813 q 868 724 775 813 q 961 488 961 635 q 823 136 961 274 q 493 -1 685 -1 l 157 -1 l 161 28 q 254 56 239 28 l 372 765 q 213 739 242 765 q 189 685 189 718 q 206 651 189 669 q 224 619 224 633 m 500 765 l 381 46 l 501 46 q 606 76 551 46 q 710 162 661 107 q 792 307 760 217 q 824 504 824 397 q 760 700 824 635 q 604 765 696 765 l 500 765 z "},"Ǝ":{"ha":710,"x_min":-12,"x_max":724,"o":"m 588 0 l -1 0 l -12 135 l 15 135 q 64 47 32 63 l 381 47 l 439 399 l 244 399 q 201 311 214 386 l 172 311 l 210 533 l 239 533 q 235 486 235 504 q 253 446 235 454 l 447 446 l 500 765 l 213 765 q 171 678 183 754 l 142 678 l 164 813 l 724 813 l 718 783 q 626 756 642 783 l 510 57 q 593 29 518 29 l 588 0 z "},"Ə":{"ha":864,"x_min":38,"x_max":818,"o":"m 653 342 l 185 342 q 183 299 183 326 q 228 106 183 179 q 347 33 274 33 q 539 117 457 33 q 653 342 621 200 m 663 389 q 671 492 671 443 q 606 704 671 629 q 444 779 542 779 q 299 731 375 779 q 194 629 224 683 l 164 646 q 481 826 269 826 q 731 732 643 826 q 818 494 818 638 q 776 283 818 381 q 665 122 733 186 q 512 22 597 58 q 340 -14 426 -14 q 122 74 206 -14 q 38 307 38 163 q 44 389 38 343 l 663 389 z "},"Ɛ":{"ha":724,"x_min":44,"x_max":692,"o":"m 468 428 q 264 368 338 428 q 190 197 190 308 q 241 76 190 119 q 379 33 292 33 q 528 81 453 33 q 632 183 603 129 l 663 167 q 543 37 617 88 q 343 -14 469 -14 q 193 6 256 -14 q 101 59 131 26 q 58 124 71 92 q 44 193 44 157 q 102 352 44 286 q 265 450 160 418 q 131 592 131 492 q 501 826 131 826 q 592 806 551 826 q 639 785 633 785 q 660 813 656 785 l 692 813 l 676 636 l 646 636 q 599 736 646 693 q 494 779 551 779 q 331 733 385 779 q 278 608 278 688 q 475 475 278 475 l 468 428 z "},"Ƒ":{"ha":650,"x_min":-169,"x_max":688,"o":"m -169 -132 q -149 -90 -169 -108 q -103 -72 -128 -72 q -49 -133 -69 -72 q -42 -152 -43 -149 q -35 -164 -40 -156 q -24 -174 -31 -172 q -8 -175 -18 -175 q 41 -135 18 -175 q 76 -19 64 -96 l 206 756 q 122 783 197 783 l 128 813 l 688 813 l 665 678 l 636 678 q 640 725 640 707 q 622 765 640 757 l 335 765 l 282 446 l 476 446 q 518 533 506 457 l 547 533 l 510 311 l 481 311 q 486 358 486 350 q 468 399 486 390 l 274 399 l 207 0 q -1 -217 169 -217 q -117 -194 -64 -217 q -169 -132 -169 -171 z "},"ƒ":{"ha":351,"x_min":-199,"x_max":524,"o":"m 524 800 q 503 758 524 774 q 457 742 483 742 q 424 756 433 742 q 415 788 414 771 q 408 819 417 804 q 378 833 400 833 q 328 794 351 833 q 292 678 304 754 l 281 611 l 367 611 l 360 569 l 274 569 l 178 0 q -31 -217 140 -217 q -146 -194 -93 -217 q -199 -132 -199 -171 q -178 -90 -199 -108 q -132 -72 -157 -72 q -78 -133 -99 -72 q -71 -152 -72 -149 q -65 -164 -69 -156 q -53 -174 -60 -172 q -37 -175 -47 -175 q 13 -135 -11 -175 q 50 -19 38 -94 l 149 569 l 79 569 l 86 611 l 156 611 l 163 658 q 235 822 178 768 q 371 875 293 875 q 485 853 447 875 q 524 800 524 831 z "},"Ɠ":{"ha":867,"x_min":61,"x_max":1026,"o":"m 1026 932 q 1006 874 1026 897 q 951 851 985 851 q 908 878 919 851 q 872 899 901 899 q 825 883 843 899 q 775 728 797 863 l 760 636 l 729 636 q 690 739 729 699 q 568 779 651 779 q 316 635 428 779 q 204 299 204 490 q 270 99 204 164 q 424 33 336 33 q 575 60 500 33 l 624 344 q 540 372 615 372 l 544 401 l 847 401 l 843 372 q 751 344 767 372 l 711 111 q 602 26 681 67 q 413 -14 524 -14 q 154 83 247 -14 q 61 324 61 181 q 109 533 61 436 q 233 693 157 631 q 398 791 308 756 q 575 826 488 826 q 672 806 617 826 q 736 785 728 785 l 738 785 q 762 877 749 842 q 785 928 775 913 q 817 969 794 943 q 919 1015 854 1015 q 993 993 960 1015 q 1026 932 1026 971 z "},"Ɣ":{"ha":725,"x_min":49,"x_max":811,"o":"m 349 813 l 343 783 q 268 771 289 783 l 399 435 l 669 769 q 593 783 654 783 l 599 813 l 811 813 l 806 783 q 714 756 735 783 l 415 388 q 454 174 454 268 q 410 40 454 93 q 294 -14 367 -14 q 192 88 192 -14 q 208 169 192 128 q 240 235 224 210 q 294 308 257 260 q 244 456 275 376 l 133 754 q 49 783 122 783 l 54 813 l 349 813 m 311 254 q 276 201 286 218 q 259 159 267 185 q 251 100 251 133 q 255 78 251 88 q 265 63 258 69 q 274 51 272 56 q 310 88 294 51 q 325 156 325 124 q 311 254 325 194 z "},"Ɩ":{"ha":461,"x_min":93,"x_max":418,"o":"m 228 128 q 225 96 225 106 q 286 39 225 39 q 341 63 311 39 q 388 131 371 88 l 418 114 q 229 -14 367 -14 q 93 100 93 -14 q 97 139 93 118 l 200 756 q 117 783 192 783 l 122 813 l 343 813 l 228 128 z "},"Ɨ":{"ha":451,"x_min":21,"x_max":460,"o":"m 21 0 l 26 29 q 118 57 103 29 l 172 385 l 46 385 l 54 432 l 181 432 l 235 756 q 151 783 226 783 l 157 813 l 460 813 l 454 783 q 363 756 378 783 l 308 432 l 421 432 l 413 385 l 300 385 l 246 57 q 329 29 254 29 l 324 0 l 21 0 z "},"Ƙ":{"ha":958,"x_min":67,"x_max":1000,"o":"m 224 619 q 201 565 224 586 q 147 544 178 544 q 87 574 107 544 q 67 643 67 603 q 84 713 67 679 q 131 764 101 747 q 183 792 163 783 q 251 806 203 800 q 381 813 300 813 l 593 813 l 588 783 q 496 756 511 783 l 379 57 q 463 29 388 29 l 457 0 l 157 0 l 163 29 q 254 57 239 29 l 372 765 q 213 739 242 765 q 189 685 189 718 q 206 651 189 669 q 224 619 224 633 m 642 0 l 647 29 q 699 33 681 29 l 450 436 l 846 774 q 776 783 828 783 l 782 813 l 1000 813 l 994 783 q 904 751 940 783 l 578 475 l 833 51 q 918 29 851 29 l 913 0 l 642 0 z "},"ƙ":{"ha":672,"x_min":36,"x_max":669,"o":"m 524 790 q 502 749 524 767 q 456 731 481 731 q 401 792 422 731 q 394 810 396 807 q 388 822 393 814 q 377 832 383 831 q 361 833 371 833 q 311 794 335 833 q 275 678 288 754 l 161 0 l 36 0 l 146 658 q 354 875 183 875 q 470 852 417 875 q 524 790 524 829 m 669 611 l 664 582 q 585 564 611 582 l 360 388 l 543 56 q 626 29 551 29 l 621 0 l 426 0 l 231 353 l 513 574 q 446 582 494 582 l 451 611 l 669 611 z "},"Ɲ":{"ha":882,"x_min":-174,"x_max":908,"o":"m -174 -194 q -151 -137 -174 -160 q -96 -114 -129 -114 q -54 -140 -65 -114 q -17 -161 -47 -161 q 28 -146 10 -161 q 81 10 58 -122 l 206 756 q 122 783 197 783 l 128 813 l 314 813 l 678 244 l 764 756 q 681 783 756 783 l 686 813 l 908 813 l 903 783 q 811 756 826 783 l 685 0 l 672 0 l 242 690 l 126 0 q 99 -122 114 -76 q 74 -185 85 -168 q 39 -232 64 -203 q -10 -265 21 -253 q -65 -278 -40 -278 q -140 -256 -106 -278 q -174 -194 -174 -233 z "},"Ɵ":{"ha":894,"x_min":64,"x_max":847,"o":"m 526 826 q 760 730 674 826 q 847 486 847 633 q 708 134 847 282 q 385 -14 569 -14 q 150 82 236 -14 q 64 325 64 178 q 202 678 64 531 q 526 826 340 826 m 214 433 l 704 433 q 707 492 707 472 q 659 696 707 613 q 513 779 611 779 q 368 724 433 779 q 267 594 303 669 q 214 433 231 519 m 699 386 l 208 386 q 204 317 204 353 q 252 115 204 197 q 399 33 300 33 q 545 90 479 33 q 647 223 611 146 q 699 386 683 300 z "},"Ơ":{"ha":926,"x_min":64,"x_max":978,"o":"m 203 318 q 251 115 203 197 q 399 33 300 33 q 565 106 492 33 q 672 281 638 178 q 707 490 707 383 q 688 631 707 568 q 624 736 669 693 q 513 779 579 779 q 347 706 419 779 q 238 530 274 633 q 203 318 203 426 m 815 646 q 907 738 896 665 q 904 744 908 742 q 894 747 900 747 q 884 746 892 747 q 871 744 876 744 q 817 790 817 744 q 839 845 817 822 q 885 868 861 868 q 953 843 928 868 q 978 776 978 818 q 934 670 978 710 q 826 618 890 631 q 847 486 847 558 q 708 134 847 282 q 385 -14 569 -14 q 150 82 236 -14 q 64 325 64 178 q 202 678 64 531 q 526 826 340 826 q 703 778 629 826 q 815 646 778 729 z "},"ơ":{"ha":793,"x_min":44,"x_max":842,"o":"m 325 -14 q 117 56 189 -14 q 44 244 44 125 q 143 518 44 411 q 422 625 242 625 q 689 474 638 625 q 771 561 760 497 q 768 568 772 565 q 758 571 764 571 q 748 569 756 571 q 735 568 740 568 q 681 614 681 568 q 703 669 681 646 q 749 692 725 692 q 817 667 792 692 q 842 600 842 642 q 800 496 842 535 q 696 443 758 457 q 703 378 703 408 q 604 97 703 208 q 325 -14 506 -14 m 179 244 q 224 81 179 135 q 350 28 269 28 q 508 133 447 28 q 568 379 568 238 q 392 582 568 582 q 238 479 297 582 q 179 244 179 376 z "},"Ƥ":{"ha":910,"x_min":67,"x_max":924,"o":"m 224 619 q 201 565 224 586 q 147 544 178 544 q 87 574 107 544 q 67 643 67 603 q 131 764 67 724 q 183 792 163 783 q 251 806 203 800 q 381 813 300 813 l 607 813 q 844 756 765 813 q 924 624 924 700 q 822 440 924 510 q 550 369 721 369 l 435 369 l 382 57 q 465 29 390 29 l 460 0 l 157 0 l 163 29 q 254 57 239 29 l 372 765 q 213 739 242 765 q 189 685 189 718 q 206 651 189 669 q 224 619 224 633 m 500 765 l 442 417 l 557 417 q 786 636 786 417 q 599 765 786 765 l 500 765 z "},"ƥ":{"ha":725,"x_min":-96,"x_max":669,"o":"m 521 776 q 499 735 521 753 q 453 717 478 717 q 422 731 433 717 q 400 778 411 746 q 393 797 394 793 q 387 808 392 800 q 376 818 382 817 q 360 819 369 819 q 309 779 333 819 q 272 664 285 739 l 249 519 q 457 625 336 625 q 606 569 542 625 q 669 390 669 514 q 563 93 669 200 q 294 -14 456 -14 q 164 17 215 -14 l 126 -210 q 208 -237 135 -237 l 204 -267 l -96 -267 l -92 -237 q 1 -210 -14 -237 l 144 644 q 353 861 182 861 q 468 838 415 861 q 521 776 521 815 m 235 442 l 171 61 q 294 33 218 33 q 460 131 385 33 q 536 379 536 229 q 519 455 536 421 q 474 524 501 489 q 436 578 446 558 q 235 442 322 578 z "},"Ʃ":{"ha":654,"x_min":-54,"x_max":640,"o":"m 618 683 l 589 683 q 594 732 594 725 q 576 771 594 761 l 292 771 l 471 464 l 114 81 l 464 81 q 556 169 526 106 l 585 169 l 507 0 l -54 0 l 340 421 l 110 813 l 640 813 l 618 683 z "},"ƪ":{"ha":364,"x_min":-17,"x_max":396,"o":"m 185 875 q 328 725 328 875 q 321 658 328 700 l 218 44 q 213 -26 213 7 q 254 -111 213 -111 q 293 -78 279 -111 q 354 -31 314 -31 q 385 -44 374 -31 q 396 -75 396 -57 q 352 -133 396 -112 q 233 -153 308 -153 q 90 -3 90 -153 q 97 64 90 22 l 185 592 q 132 586 161 586 q 22 618 60 586 q -17 707 -17 650 q 40 835 -17 794 q 185 875 97 875 m 125 628 q 186 663 163 628 q 210 758 210 699 q 197 813 210 793 q 164 833 185 833 q 113 789 140 833 q 86 699 86 744 q 97 647 86 667 q 125 628 107 628 z "},"Ƭ":{"ha":808,"x_min":69,"x_max":860,"o":"m 226 619 q 203 565 226 586 q 150 544 181 544 q 90 574 110 544 q 69 643 69 603 q 87 713 69 679 q 133 764 104 747 q 185 792 165 783 q 254 806 206 800 q 383 813 303 813 l 860 813 l 838 678 l 808 678 q 813 725 813 707 q 794 765 813 757 l 567 765 l 449 57 q 532 29 457 29 l 526 0 l 224 0 l 229 29 q 321 57 306 29 l 439 765 l 375 765 q 215 739 244 765 q 192 685 192 718 q 209 651 192 669 q 226 619 226 633 z "},"ƭ":{"ha":463,"x_min":57,"x_max":554,"o":"m 554 790 q 533 749 554 767 q 486 731 511 731 q 432 792 453 731 q 425 810 426 807 q 419 822 424 814 q 408 832 414 831 q 392 833 401 833 q 342 794 365 833 q 306 678 318 754 l 294 611 l 414 611 l 407 569 l 288 569 l 213 128 q 210 96 210 106 q 271 39 210 39 q 326 63 296 39 q 372 131 356 88 l 403 114 q 214 -14 351 -14 q 78 100 78 -14 q 82 139 78 118 l 154 569 l 57 569 l 64 611 q 121 619 99 611 q 158 648 143 626 q 178 681 174 669 q 196 728 183 693 q 385 875 247 875 q 501 852 447 875 q 554 790 554 829 z "},"Ʈ":{"ha":736,"x_min":71,"x_max":790,"o":"m 242 0 l 369 765 l 142 765 q 100 678 113 754 l 71 678 l 93 813 l 790 813 l 768 678 l 739 678 q 743 725 743 707 q 725 765 743 757 l 497 765 l 367 -19 q 360 -94 360 -56 q 399 -175 360 -175 q 422 -169 413 -175 q 436 -158 431 -164 q 453 -133 442 -151 q 526 -72 496 -72 q 563 -85 547 -72 q 578 -117 578 -99 q 512 -190 578 -164 q 378 -217 446 -217 q 236 -67 236 -217 q 242 0 236 -33 z "},"Ư":{"ha":864,"x_min":104,"x_max":1026,"o":"m 1026 949 q 957 823 1026 863 q 806 783 888 783 l 733 344 q 608 75 703 164 q 392 -14 514 -14 q 110 244 110 -14 q 119 344 110 281 l 188 756 q 104 783 179 783 l 110 813 l 413 813 l 407 783 q 315 756 331 783 l 243 325 q 236 244 236 276 q 282 88 236 142 q 414 33 328 33 q 583 111 507 33 q 681 317 660 189 l 754 756 q 671 783 746 783 l 676 813 l 811 813 q 910 839 871 813 q 956 910 949 865 q 953 917 957 914 q 943 919 949 919 q 933 918 940 919 q 919 917 925 917 q 865 963 865 917 q 888 1017 865 994 q 933 1040 910 1040 q 1001 1015 976 1040 q 1026 949 1026 990 z "},"ư":{"ha":819,"x_min":63,"x_max":896,"o":"m 896 600 q 826 474 896 514 q 675 435 757 435 l 661 435 l 613 147 q 610 117 610 125 q 628 54 610 76 q 681 32 647 32 l 675 0 q 485 82 504 0 q 294 -14 389 -14 q 131 22 182 -14 q 79 133 79 58 q 83 183 79 156 l 146 554 q 63 582 138 582 l 68 611 l 281 611 l 207 174 q 203 133 203 153 q 311 33 203 33 q 483 121 406 33 l 565 611 l 690 611 l 665 464 l 681 464 q 779 490 740 464 q 825 561 818 517 q 822 568 826 565 q 813 571 818 571 q 802 569 810 571 q 789 568 794 568 q 735 614 735 568 q 757 669 735 646 q 803 692 779 692 q 871 667 846 692 q 896 600 896 642 z "},"Ʊ":{"ha":907,"x_min":64,"x_max":894,"o":"m 847 457 q 717 117 847 247 q 392 -14 588 -14 q 151 67 239 -14 q 64 288 64 149 q 288 765 64 542 l 158 765 l 167 813 l 439 813 q 272 590 342 731 q 203 282 203 449 q 251 103 203 172 q 400 33 300 33 q 576 106 503 33 q 683 285 650 179 q 715 513 715 390 q 622 813 715 704 l 894 813 l 886 765 l 757 765 q 847 457 847 628 z "},"Ʋ":{"ha":831,"x_min":106,"x_max":789,"o":"m 486 729 q 532 798 486 769 q 617 826 578 826 q 741 747 693 826 q 789 563 789 668 q 661 154 789 322 q 358 -14 533 -14 q 265 -5 304 -14 q 188 28 225 4 q 130 102 150 53 q 110 226 110 151 q 121 350 110 288 l 189 756 q 106 783 181 783 l 111 813 l 414 813 l 408 783 q 317 756 332 783 l 242 308 q 233 217 233 256 q 268 78 233 122 q 358 33 303 33 q 628 189 517 33 q 739 565 739 344 q 710 710 739 647 q 635 772 682 772 q 594 761 613 772 q 603 728 607 747 q 581 692 600 711 q 542 674 561 674 q 503 690 521 674 q 486 729 486 707 z "},"Ƴ":{"ha":953,"x_min":56,"x_max":1011,"o":"m 1011 743 q 990 700 1011 718 q 943 682 969 682 q 913 697 924 682 q 890 743 901 711 q 883 762 885 758 q 877 774 882 765 q 866 783 872 782 q 850 785 860 785 q 742 719 790 785 l 457 350 l 408 57 q 492 29 417 29 l 486 0 l 183 0 l 189 29 q 281 57 265 29 l 322 306 l 139 757 q 56 783 124 783 l 61 813 l 365 813 l 360 783 q 276 767 294 783 l 429 390 l 696 736 q 847 826 765 826 q 963 805 915 826 q 1011 743 1011 783 z "},"ƴ":{"ha":839,"x_min":-6,"x_max":860,"o":"m 860 540 q 839 498 860 515 q 792 481 818 481 q 738 542 758 481 q 731 560 732 557 q 724 572 729 564 q 713 582 719 581 q 697 583 707 583 q 619 547 653 583 q 532 419 585 511 l 213 -142 q 47 -256 146 -256 q 11 -243 28 -256 q -6 -212 -6 -231 q 11 -171 -6 -190 q 49 -151 28 -151 q 74 -163 60 -151 q 97 -175 88 -175 q 140 -150 126 -175 l 225 0 l 97 554 q 14 582 89 582 l 19 611 l 217 611 l 321 169 l 503 490 q 589 588 538 550 q 690 625 640 625 q 810 603 760 625 q 860 540 860 581 z "},"Ʒ":{"ha":683,"x_min":7,"x_max":646,"o":"m 136 213 q 117 164 136 181 q 78 147 97 147 q 122 64 82 100 q 239 28 161 28 q 422 110 356 28 q 489 301 489 193 q 437 424 489 382 q 303 465 385 465 l 474 718 l 283 718 q 190 629 219 692 l 161 629 l 249 813 l 646 813 l 435 494 q 564 430 514 478 q 614 303 614 382 q 510 79 614 172 q 246 -14 407 -14 q 68 36 129 -14 q 7 157 7 86 q 27 226 7 199 q 81 253 47 253 q 136 213 136 253 z "},"ǀ":{"ha":244,"x_min":36,"x_max":236,"o":"m 181 861 l 236 861 l 92 0 l 36 0 l 181 861 z "},"ǁ":{"ha":383,"x_min":36,"x_max":375,"o":"m 319 861 l 375 861 l 231 0 l 175 0 l 319 861 m 181 861 l 236 861 l 92 0 l 36 0 l 181 861 z "},"ǂ":{"ha":376,"x_min":33,"x_max":367,"o":"m 244 861 l 300 861 l 242 514 l 367 514 l 357 458 l 232 458 l 224 403 l 349 403 l 339 347 l 214 347 l 156 0 l 100 0 l 158 347 l 33 347 l 43 403 l 168 403 l 176 458 l 51 458 l 61 514 l 186 514 l 244 861 z "},"ǃ":{"ha":296,"x_min":18,"x_max":294,"o":"m 18 58 q 47 128 18 97 q 115 158 76 158 q 166 138 144 158 q 188 88 188 117 q 157 18 188 50 q 88 -14 126 -14 q 39 7 60 -14 q 18 58 18 28 m 132 258 q 115 321 115 258 q 130 554 115 365 q 157 813 144 743 q 235 875 167 875 q 278 862 261 875 q 294 825 294 849 q 293 813 294 817 q 237 571 285 763 q 181 353 189 379 q 132 258 151 258 z "},"Ǎ":{"ha":754,"x_min":-67,"x_max":721,"o":"m 439 861 l 346 1086 l 382 1086 l 490 965 l 640 1086 l 676 1086 l 508 861 l 439 861 m 411 0 l 417 29 q 500 46 481 29 l 457 258 l 190 258 l 85 54 q 167 29 94 29 l 161 0 l -67 0 l -61 29 q 31 58 17 29 l 426 813 l 493 813 l 636 58 q 721 29 642 29 l 715 0 l 411 0 m 385 628 l 215 304 l 449 304 l 385 628 z "},"ǎ":{"ha":669,"x_min":8,"x_max":596,"o":"m 336 715 l 243 940 l 279 940 l 388 819 l 538 940 l 574 940 l 406 715 l 336 715 m 222 467 q 201 419 222 436 q 151 403 181 403 q 115 417 129 403 q 101 456 101 432 q 173 581 101 536 q 357 625 244 625 q 521 576 468 625 q 574 444 574 526 q 568 392 574 428 l 528 147 q 525 117 525 125 q 544 54 525 76 q 596 32 563 32 l 590 0 q 414 51 453 0 q 192 -14 317 -14 q 8 115 8 -14 q 23 181 8 151 q 65 231 38 211 q 124 267 93 251 q 199 294 156 282 q 278 314 242 306 q 360 332 314 322 q 436 350 407 342 q 446 451 446 418 q 415 543 446 511 q 335 575 385 575 q 182 508 211 575 q 222 467 222 508 m 431 319 q 369 303 413 314 q 301 284 325 292 q 241 260 276 276 q 186 226 206 244 q 152 179 167 208 q 138 113 138 150 q 224 33 138 33 q 400 81 319 33 q 397 104 397 94 q 400 133 397 114 l 431 319 z "},"Ǐ":{"ha":428,"x_min":3,"x_max":500,"o":"m 263 861 l 169 1086 l 206 1086 l 314 965 l 464 1086 l 500 1086 l 332 861 l 263 861 m 3 0 l 8 29 q 100 57 85 29 l 217 756 q 133 783 208 783 l 139 813 l 442 813 l 436 783 q 344 756 360 783 l 228 57 q 311 29 236 29 l 306 0 l 3 0 z "},"ǐ":{"ha":338,"x_min":60,"x_max":444,"o":"m 207 715 l 114 940 l 150 940 l 258 819 l 408 940 l 444 940 l 276 715 l 207 715 m 147 526 q 115 529 135 528 q 83 532 96 531 q 61 533 71 533 l 67 565 q 175 595 93 565 q 289 625 257 625 l 185 0 l 60 0 l 147 526 z "},"Ǒ":{"ha":894,"x_min":64,"x_max":847,"o":"m 499 861 l 406 1086 l 442 1086 l 550 965 l 700 1086 l 736 1086 l 568 861 l 499 861 m 203 318 q 251 115 203 197 q 399 33 300 33 q 565 106 492 33 q 672 281 638 178 q 707 490 707 383 q 688 631 707 568 q 624 736 669 693 q 513 779 579 779 q 347 706 419 779 q 238 530 274 633 q 203 318 203 426 m 526 826 q 760 730 674 826 q 847 486 847 633 q 708 134 847 282 q 385 -14 569 -14 q 150 82 236 -14 q 64 325 64 178 q 202 678 64 531 q 526 826 340 826 z "},"ǒ":{"ha":760,"x_min":44,"x_max":703,"o":"m 410 715 l 317 940 l 353 940 l 461 819 l 611 940 l 647 940 l 479 715 l 410 715 m 179 244 q 224 81 179 135 q 350 28 269 28 q 508 133 447 28 q 568 379 568 238 q 392 582 568 582 q 238 479 297 582 q 179 244 179 376 m 325 -14 q 117 56 189 -14 q 44 244 44 125 q 143 518 44 411 q 422 625 242 625 q 633 560 563 625 q 703 378 703 494 q 604 97 703 208 q 325 -14 506 -14 z "},"Ǔ":{"ha":860,"x_min":104,"x_max":899,"o":"m 517 861 l 424 1086 l 460 1086 l 568 965 l 718 1086 l 754 1086 l 586 861 l 517 861 m 414 33 q 583 111 507 33 q 681 317 660 189 l 754 756 q 671 783 746 783 l 676 813 l 899 813 l 893 783 q 801 756 817 783 l 733 344 q 608 75 703 164 q 392 -14 514 -14 q 110 244 110 -14 q 119 344 110 281 l 188 756 q 104 783 179 783 l 110 813 l 413 813 l 407 783 q 315 756 331 783 l 243 325 q 236 244 236 276 q 284 88 236 143 q 414 33 332 33 z "},"ǔ":{"ha":765,"x_min":63,"x_max":690,"o":"m 404 715 l 311 940 l 347 940 l 456 819 l 606 940 l 642 940 l 474 715 l 404 715 m 613 147 q 610 117 610 125 q 628 54 610 76 q 681 32 647 32 l 675 0 q 485 82 504 0 q 294 -14 389 -14 q 131 22 182 -14 q 79 133 79 58 q 83 183 79 156 l 146 554 q 63 582 138 582 l 68 611 l 281 611 l 207 174 q 203 133 203 153 q 311 33 203 33 q 483 121 406 33 l 565 611 l 690 611 l 613 147 z "},"Ǖ":{"ha":860,"x_min":104,"x_max":899,"o":"m 413 1108 l 779 1108 l 769 1047 l 403 1047 l 413 1108 m 619 918 q 644 974 619 950 q 700 997 669 997 q 742 981 725 997 q 758 940 758 964 q 733 885 758 908 q 678 861 708 861 q 636 878 653 861 q 619 918 619 894 m 364 918 q 389 974 364 950 q 444 997 414 997 q 486 981 469 997 q 503 940 503 964 q 478 885 503 908 q 422 861 453 861 q 381 878 397 861 q 364 918 364 894 m 414 33 q 583 111 507 33 q 681 317 660 189 l 754 756 q 671 783 746 783 l 676 813 l 899 813 l 893 783 q 801 756 817 783 l 733 344 q 608 75 703 164 q 392 -14 514 -14 q 110 244 110 -14 q 119 344 110 281 l 188 756 q 104 783 179 783 l 110 813 l 413 813 l 407 783 q 315 756 331 783 l 243 325 q 236 244 236 276 q 284 88 236 143 q 414 33 332 33 z "},"ǖ":{"ha":765,"x_min":63,"x_max":690,"o":"m 300 996 l 667 996 l 657 935 l 290 935 l 300 996 m 507 772 q 532 828 507 804 q 588 851 557 851 q 629 835 613 851 q 646 794 646 818 q 621 739 646 763 q 565 715 596 715 q 524 732 540 715 q 507 772 507 749 m 251 772 q 276 828 251 804 q 332 851 301 851 q 374 835 357 851 q 390 794 390 818 q 365 739 390 763 q 310 715 340 715 q 268 732 285 715 q 251 772 251 749 m 613 147 q 610 117 610 125 q 628 54 610 76 q 681 32 647 32 l 675 0 q 485 82 504 0 q 294 -14 389 -14 q 131 22 182 -14 q 79 133 79 58 q 83 183 79 156 l 146 554 q 63 582 138 582 l 68 611 l 281 611 l 207 174 q 203 133 203 153 q 311 33 203 33 q 483 121 406 33 l 565 611 l 690 611 l 613 147 z "},"Ǘ":{"ha":860,"x_min":104,"x_max":899,"o":"m 700 1233 l 847 1233 l 596 1008 l 560 1008 l 700 1233 m 619 918 q 644 974 619 950 q 700 997 669 997 q 742 981 725 997 q 758 940 758 964 q 733 885 758 908 q 678 861 708 861 q 636 878 653 861 q 619 918 619 894 m 364 918 q 389 974 364 950 q 444 997 414 997 q 486 981 469 997 q 503 940 503 964 q 478 885 503 908 q 422 861 453 861 q 381 878 397 861 q 364 918 364 894 m 414 33 q 583 111 507 33 q 681 317 660 189 l 754 756 q 671 783 746 783 l 676 813 l 899 813 l 893 783 q 801 756 817 783 l 733 344 q 608 75 703 164 q 392 -14 514 -14 q 110 244 110 -14 q 119 344 110 281 l 188 756 q 104 783 179 783 l 110 813 l 413 813 l 407 783 q 315 756 331 783 l 243 325 q 236 244 236 276 q 284 88 236 143 q 414 33 332 33 z "},"ǘ":{"ha":765,"x_min":63,"x_max":732,"o":"m 585 1088 l 732 1088 l 481 863 l 444 863 l 585 1088 m 507 772 q 532 828 507 804 q 588 851 557 851 q 629 835 613 851 q 646 794 646 818 q 621 739 646 763 q 565 715 596 715 q 524 732 540 715 q 507 772 507 749 m 251 772 q 276 828 251 804 q 332 851 301 851 q 374 835 357 851 q 390 794 390 818 q 365 739 390 763 q 310 715 340 715 q 268 732 285 715 q 251 772 251 749 m 613 147 q 610 117 610 125 q 628 54 610 76 q 681 32 647 32 l 675 0 q 485 82 504 0 q 294 -14 389 -14 q 131 22 182 -14 q 79 133 79 58 q 83 183 79 156 l 146 554 q 63 582 138 582 l 68 611 l 281 611 l 207 174 q 203 133 203 153 q 311 33 203 33 q 483 121 406 33 l 565 611 l 690 611 l 613 147 z "},"Ǚ":{"ha":860,"x_min":104,"x_max":899,"o":"m 544 1028 l 451 1253 l 488 1253 l 596 1132 l 746 1253 l 782 1253 l 614 1028 l 544 1028 m 619 918 q 644 974 619 950 q 700 997 669 997 q 742 981 725 997 q 758 940 758 964 q 733 885 758 908 q 678 861 708 861 q 636 878 653 861 q 619 918 619 894 m 364 918 q 389 974 364 950 q 444 997 414 997 q 486 981 469 997 q 503 940 503 964 q 478 885 503 908 q 422 861 453 861 q 381 878 397 861 q 364 918 364 894 m 414 33 q 583 111 507 33 q 681 317 660 189 l 754 756 q 671 783 746 783 l 676 813 l 899 813 l 893 783 q 801 756 817 783 l 733 344 q 608 75 703 164 q 392 -14 514 -14 q 110 244 110 -14 q 119 344 110 281 l 188 756 q 104 783 179 783 l 110 813 l 413 813 l 407 783 q 315 756 331 783 l 243 325 q 236 244 236 276 q 284 88 236 143 q 414 33 332 33 z "},"ǚ":{"ha":765,"x_min":63,"x_max":690,"o":"m 429 876 l 336 1101 l 372 1101 l 481 981 l 631 1101 l 667 1101 l 499 876 l 429 876 m 507 772 q 532 828 507 804 q 588 851 557 851 q 629 835 613 851 q 646 794 646 818 q 621 739 646 763 q 565 715 596 715 q 524 732 540 715 q 507 772 507 749 m 251 772 q 276 828 251 804 q 332 851 301 851 q 374 835 357 851 q 390 794 390 818 q 365 739 390 763 q 310 715 340 715 q 268 732 285 715 q 251 772 251 749 m 613 147 q 610 117 610 125 q 628 54 610 76 q 681 32 647 32 l 675 0 q 485 82 504 0 q 294 -14 389 -14 q 131 22 182 -14 q 79 133 79 58 q 83 183 79 156 l 146 554 q 63 582 138 582 l 68 611 l 281 611 l 207 174 q 203 133 203 153 q 311 33 203 33 q 483 121 406 33 l 565 611 l 690 611 l 613 147 z "},"Ǜ":{"ha":860,"x_min":104,"x_max":899,"o":"m 543 1233 l 608 1008 l 572 1008 l 396 1233 l 543 1233 m 619 918 q 644 974 619 950 q 700 997 669 997 q 742 981 725 997 q 758 940 758 964 q 733 885 758 908 q 678 861 708 861 q 636 878 653 861 q 619 918 619 894 m 364 918 q 389 974 364 950 q 444 997 414 997 q 486 981 469 997 q 503 940 503 964 q 478 885 503 908 q 422 861 453 861 q 381 878 397 861 q 364 918 364 894 m 414 33 q 583 111 507 33 q 681 317 660 189 l 754 756 q 671 783 746 783 l 676 813 l 899 813 l 893 783 q 801 756 817 783 l 733 344 q 608 75 703 164 q 392 -14 514 -14 q 110 244 110 -14 q 119 344 110 281 l 188 756 q 104 783 179 783 l 110 813 l 413 813 l 407 783 q 315 756 331 783 l 243 325 q 236 244 236 276 q 284 88 236 143 q 414 33 332 33 z "},"ǜ":{"ha":765,"x_min":63,"x_max":690,"o":"m 428 1088 l 493 863 l 457 863 l 281 1088 l 428 1088 m 507 772 q 532 828 507 804 q 588 851 557 851 q 629 835 613 851 q 646 794 646 818 q 621 739 646 763 q 565 715 596 715 q 524 732 540 715 q 507 772 507 749 m 251 772 q 276 828 251 804 q 332 851 301 851 q 374 835 357 851 q 390 794 390 818 q 365 739 390 763 q 310 715 340 715 q 268 732 285 715 q 251 772 251 749 m 613 147 q 610 117 610 125 q 628 54 610 76 q 681 32 647 32 l 675 0 q 485 82 504 0 q 294 -14 389 -14 q 131 22 182 -14 q 79 133 79 58 q 83 183 79 156 l 146 554 q 63 582 138 582 l 68 611 l 281 611 l 207 174 q 203 133 203 153 q 311 33 203 33 q 483 121 406 33 l 565 611 l 690 611 l 613 147 z "},"ǝ":{"ha":679,"x_min":26,"x_max":621,"o":"m 481 279 l 274 251 q 182 221 213 243 q 151 153 151 199 q 184 67 151 106 q 290 28 217 28 q 405 99 347 28 q 481 279 463 169 m 26 172 q 62 242 26 215 q 215 286 97 269 l 483 322 q 435 499 483 426 q 314 572 388 572 q 104 481 192 572 l 74 497 q 194 594 125 563 q 371 625 264 625 q 547 565 472 625 q 621 368 621 506 q 529 94 621 203 q 278 -14 438 -14 q 88 44 149 -14 q 26 172 26 101 z "},"Ǟ":{"ha":754,"x_min":-67,"x_max":721,"o":"m 331 1113 l 697 1113 l 688 1051 l 321 1051 l 331 1113 m 542 918 q 567 974 542 950 q 622 997 592 997 q 664 981 647 997 q 681 940 681 964 q 656 885 681 908 q 600 861 631 861 q 558 878 575 861 q 542 918 542 894 m 286 918 q 311 974 286 950 q 367 997 336 997 q 408 981 392 997 q 425 940 425 964 q 400 885 425 908 q 344 861 375 861 q 303 878 319 861 q 286 918 286 894 m 411 0 l 417 29 q 500 46 481 29 l 457 258 l 190 258 l 85 54 q 167 29 94 29 l 161 0 l -67 0 l -61 29 q 31 58 17 29 l 426 813 l 493 813 l 636 58 q 721 29 642 29 l 715 0 l 411 0 m 385 628 l 215 304 l 449 304 l 385 628 z "},"ǟ":{"ha":669,"x_min":8,"x_max":599,"o":"m 232 996 l 599 996 l 589 935 l 222 935 l 232 996 m 439 772 q 464 828 439 804 q 519 851 489 851 q 561 835 544 851 q 578 794 578 818 q 553 739 578 763 q 497 715 528 715 q 456 732 472 715 q 439 772 439 749 m 183 772 q 208 828 183 804 q 264 851 233 851 q 306 835 289 851 q 322 794 322 818 q 297 739 322 763 q 242 715 272 715 q 200 732 217 715 q 183 772 183 749 m 222 467 q 201 419 222 436 q 151 403 181 403 q 115 417 129 403 q 101 456 101 432 q 173 581 101 536 q 357 625 244 625 q 521 576 468 625 q 574 444 574 526 q 568 392 574 428 l 528 147 q 525 117 525 125 q 544 54 525 76 q 596 32 563 32 l 590 0 q 414 51 453 0 q 192 -14 317 -14 q 8 115 8 -14 q 23 181 8 151 q 65 231 38 211 q 124 267 93 251 q 199 294 156 282 q 278 314 242 306 q 360 332 314 322 q 436 350 407 342 q 446 451 446 418 q 415 543 446 511 q 335 575 385 575 q 182 508 211 575 q 222 467 222 508 m 431 319 q 369 303 413 314 q 301 284 325 292 q 241 260 276 276 q 186 226 206 244 q 152 179 167 208 q 138 113 138 150 q 224 33 138 33 q 400 81 319 33 q 397 104 397 94 q 400 133 397 114 l 431 319 z "},"Ǧ":{"ha":863,"x_min":61,"x_max":847,"o":"m 532 861 l 439 1086 l 475 1086 l 583 965 l 733 1086 l 769 1086 l 601 861 l 532 861 m 568 779 q 316 635 428 779 q 204 299 204 490 q 269 99 204 164 q 424 33 335 33 q 575 60 500 33 l 624 344 q 540 372 615 372 l 544 401 l 847 401 l 843 372 q 751 344 767 372 l 711 111 q 602 26 681 67 q 413 -14 524 -14 q 154 83 247 -14 q 61 324 61 181 q 109 533 61 436 q 233 693 157 631 q 398 791 308 756 q 575 826 488 826 q 672 806 617 826 q 736 785 728 785 q 757 813 753 785 l 789 813 l 774 636 l 743 636 q 697 736 743 693 q 568 779 651 779 z "},"ǧ":{"ha":718,"x_min":14,"x_max":660,"o":"m 404 715 l 311 940 l 347 940 l 456 819 l 606 940 l 642 940 l 474 715 l 404 715 m 142 -124 q 96 -190 142 -174 q 250 -228 128 -228 q 367 -169 318 -228 q 449 28 417 -111 q 278 -14 378 -14 q 199 -2 238 -14 q 124 35 161 10 q 65 110 88 60 q 42 226 42 160 q 150 519 42 413 q 415 625 258 625 q 513 615 468 625 q 584 592 558 606 q 628 566 610 579 q 653 543 646 553 l 660 533 l 578 40 q 471 -190 554 -103 q 256 -278 388 -278 q 78 -241 143 -278 q 14 -161 14 -204 q 36 -106 14 -128 q 86 -83 58 -83 q 142 -124 142 -83 m 458 74 l 539 556 q 417 578 479 578 q 249 475 326 578 q 172 219 172 372 q 206 83 172 133 q 300 33 240 33 q 458 74 392 33 z "},"Ǫ":{"ha":894,"x_min":65,"x_max":847,"o":"m 528 826 l 526 826 q 760 730 674 826 q 847 486 847 633 q 727 156 847 299 q 439 -10 607 14 q 392 -114 392 -67 q 492 -231 392 -231 q 512 -225 500 -231 q 531 -214 524 -219 l 539 -208 l 550 -233 q 433 -278 515 -278 q 314 -175 314 -278 q 394 -14 314 -92 l 386 -14 q 151 82 238 -14 q 65 325 65 178 q 203 678 65 531 q 528 826 342 826 m 203 318 q 251 115 203 197 q 399 33 300 33 q 565 106 492 33 q 672 281 638 178 q 707 490 707 383 q 688 631 707 568 q 624 736 669 693 q 513 779 579 779 q 347 706 419 779 q 238 530 274 633 q 203 318 203 426 z "},"ǫ":{"ha":761,"x_min":44,"x_max":703,"o":"m 179 244 q 224 81 179 135 q 350 28 269 28 q 508 133 447 28 q 568 379 568 238 q 392 582 568 582 q 238 479 297 582 q 179 244 179 376 m 339 -14 l 336 -12 q 293 -112 293 -68 q 393 -229 293 -229 q 413 -224 401 -229 q 433 -212 425 -218 l 440 -207 l 451 -232 q 335 -276 417 -276 q 215 -174 215 -276 q 297 -12 215 -87 q 110 63 175 -6 q 44 244 44 132 q 143 518 44 411 q 422 625 242 625 q 633 560 563 625 q 703 378 703 494 q 608 101 703 211 q 339 -14 514 -8 z "},"Ǹ":{"ha":893,"x_min":3,"x_max":919,"o":"m 501 1086 l 567 861 l 531 861 l 354 1086 l 501 1086 m 3 0 l 8 29 q 100 57 85 29 l 217 756 q 133 783 208 783 l 139 813 l 325 813 l 689 244 l 775 756 q 692 783 767 783 l 697 813 l 919 813 l 914 783 q 822 756 838 783 l 696 0 l 683 0 l 253 690 l 147 57 q 231 29 156 29 l 225 0 l 3 0 z "},"ǹ":{"ha":764,"x_min":60,"x_max":688,"o":"m 399 935 l 464 710 l 428 710 l 251 935 l 399 935 m 272 524 q 493 626 356 626 q 671 479 671 626 q 667 428 671 456 l 619 147 q 617 117 617 125 q 635 54 617 76 q 688 32 654 32 l 682 0 q 537 25 585 0 q 489 106 489 50 q 492 133 489 114 l 543 438 q 546 478 546 451 q 439 578 546 578 q 260 446 340 578 l 185 0 l 60 0 l 147 526 q 115 529 135 528 q 83 532 96 531 q 61 533 71 533 l 67 565 q 175 595 93 565 q 289 625 257 625 l 272 524 z "},"Ǿ":{"ha":894,"x_min":64,"x_max":847,"o":"m 654 1086 l 801 1086 l 550 861 l 514 861 l 654 1086 m 221 -39 l 181 -14 l 210 32 q 101 152 139 75 q 64 325 64 229 q 202 678 64 531 q 526 826 340 826 q 683 790 615 826 l 721 850 l 761 825 l 724 764 q 847 486 847 669 q 708 134 847 282 q 385 -14 569 -14 q 251 11 310 -14 l 221 -39 m 669 678 l 289 71 q 399 33 333 33 q 565 106 492 33 q 672 281 638 178 q 707 490 707 383 q 669 678 707 603 m 640 721 q 513 779 590 779 q 347 706 419 779 q 238 530 274 633 q 203 318 203 426 q 257 107 203 185 l 640 721 z "},"ǿ":{"ha":760,"x_min":44,"x_max":713,"o":"m 565 940 l 713 940 l 461 715 l 425 715 l 565 940 m 161 -49 l 124 -21 l 157 26 q 44 244 44 92 q 143 518 44 411 q 422 625 242 625 q 560 603 500 625 l 600 660 l 638 632 l 603 582 q 703 378 703 521 q 604 97 703 208 q 325 -14 506 -14 q 200 6 256 -14 l 161 -49 m 544 500 l 240 65 q 350 28 282 28 q 508 133 447 28 q 568 379 568 238 q 544 500 568 453 m 517 540 q 392 582 475 582 q 238 479 297 582 q 179 244 179 376 q 210 103 179 157 l 517 540 z "},"Ș":{"ha":665,"x_min":14,"x_max":611,"o":"m 179 -125 q 206 -69 179 -85 q 256 -53 233 -53 q 333 -79 303 -53 q 364 -151 364 -106 q 340 -233 364 -196 q 278 -292 317 -269 q 215 -325 240 -314 q 161 -344 189 -336 l 168 -306 q 246 -267 204 -301 q 296 -190 288 -233 q 299 -160 300 -164 q 288 -156 297 -156 q 270 -165 283 -156 q 242 -174 257 -174 q 179 -125 179 -174 m 286 -14 q 151 7 218 -14 q 81 28 83 28 q 60 19 72 28 q 46 0 47 11 l 14 0 l 46 193 l 76 193 q 139 72 78 110 q 286 33 200 33 q 422 72 365 33 q 478 186 478 110 q 466 235 478 213 q 431 276 454 257 q 387 310 408 296 q 332 343 365 324 q 281 375 299 363 q 221 417 238 404 q 173 460 204 431 q 128 519 142 489 q 115 583 115 549 q 206 752 115 678 q 397 826 297 826 q 494 806 439 826 q 558 785 550 785 q 579 813 575 785 l 611 813 l 596 636 l 565 636 q 520 738 565 697 q 390 779 475 779 q 275 734 322 779 q 228 640 228 689 q 239 597 228 617 q 273 558 250 576 q 317 526 296 539 q 371 493 338 513 q 422 461 404 474 q 476 424 463 433 q 521 389 489 415 q 565 344 553 363 q 588 298 576 326 q 600 239 600 269 q 548 98 600 158 q 426 12 496 38 q 286 -14 357 -14 z "},"ș":{"ha":567,"x_min":17,"x_max":514,"o":"m 97 -125 q 124 -69 97 -85 q 174 -53 151 -53 q 251 -79 221 -53 q 282 -151 282 -106 q 258 -233 282 -196 q 197 -292 235 -269 q 133 -325 158 -314 q 79 -344 107 -336 l 86 -306 q 164 -267 122 -301 q 214 -190 206 -233 q 217 -165 217 -172 q 215 -157 217 -158 q 206 -156 213 -156 q 188 -165 201 -156 q 160 -174 175 -174 q 97 -125 97 -174 m 310 578 q 220 552 263 578 q 178 492 178 526 q 210 429 178 457 q 288 381 242 401 q 379 338 333 360 q 457 279 425 315 q 489 197 489 243 q 410 43 489 100 q 222 -14 331 -14 q 124 7 172 -14 q 71 28 76 28 q 50 0 54 28 l 17 0 l 32 176 l 63 176 q 122 81 63 121 q 243 42 181 42 q 294 47 268 42 q 348 77 321 53 q 375 142 375 101 q 345 201 375 175 q 272 247 315 228 q 185 286 228 265 q 112 343 142 307 q 82 428 82 379 q 148 573 82 521 q 313 625 214 625 q 406 604 360 625 q 460 583 453 583 q 482 611 478 583 l 514 611 l 497 435 l 467 435 q 419 535 467 492 q 310 578 372 578 z "},"Ț":{"ha":740,"x_min":74,"x_max":793,"o":"m 214 -125 q 241 -69 214 -85 q 290 -53 268 -53 q 368 -79 338 -53 q 399 -151 399 -106 q 375 -233 399 -196 q 313 -292 351 -269 q 249 -325 275 -314 q 196 -344 224 -336 l 203 -306 q 281 -267 239 -301 q 331 -190 322 -233 q 333 -165 333 -172 q 331 -157 333 -158 q 322 -156 329 -156 q 305 -165 318 -156 q 276 -174 292 -174 q 214 -125 214 -174 m 96 813 l 793 813 l 771 678 l 742 678 q 746 725 746 707 q 728 765 746 757 l 500 765 l 382 57 q 465 29 390 29 l 460 0 l 157 0 l 163 29 q 254 57 239 29 l 372 765 l 144 765 q 103 678 115 754 l 74 678 l 96 813 z "},"ț":{"ha":463,"x_min":57,"x_max":414,"o":"m 101 -125 q 128 -69 101 -85 q 178 -53 156 -53 q 256 -79 225 -53 q 286 -151 286 -106 q 263 -233 286 -196 q 201 -292 239 -269 q 137 -325 163 -314 q 83 -344 111 -336 l 90 -306 q 168 -267 126 -301 q 218 -190 210 -233 q 221 -160 222 -164 q 210 -156 219 -156 q 192 -165 206 -156 q 164 -174 179 -174 q 101 -125 101 -174 m 328 813 l 294 611 l 414 611 l 407 569 l 288 569 l 213 128 q 210 96 210 106 q 271 39 210 39 q 326 63 296 39 q 372 131 356 88 l 403 114 q 214 -14 351 -14 q 78 100 78 -14 q 82 139 78 118 l 154 569 l 57 569 l 64 611 q 205 672 144 611 q 278 813 265 732 l 328 813 z "},"Ȩ":{"ha":706,"x_min":3,"x_max":699,"o":"m 188 -246 q 273 -224 246 -246 q 300 -168 300 -201 q 225 -119 300 -119 l 279 0 l 3 0 l 8 29 q 100 57 85 29 l 217 756 q 133 783 208 783 l 139 813 l 699 813 l 676 678 l 647 678 q 651 725 651 707 q 633 765 651 757 l 346 765 l 293 446 l 488 446 q 529 533 517 457 l 558 533 l 521 311 l 492 311 q 497 358 497 350 q 479 399 497 390 l 285 399 l 226 47 l 543 47 q 619 135 579 61 l 647 135 l 592 0 l 332 0 l 299 -76 q 381 -97 339 -76 q 422 -157 422 -117 q 381 -242 422 -207 q 251 -276 340 -276 q 150 -267 204 -276 l 154 -243 q 188 -246 179 -246 z "},"ȩ":{"ha":681,"x_min":44,"x_max":639,"o":"m 188 -246 l 189 -246 q 274 -224 247 -246 q 301 -168 301 -201 q 226 -119 301 -119 l 274 -14 q 111 52 178 -8 q 44 243 44 113 q 136 517 44 408 q 388 625 228 625 q 578 567 517 625 q 639 439 639 510 q 603 369 639 396 q 450 325 568 342 l 182 289 q 230 112 182 185 q 351 39 278 39 q 561 131 474 39 l 592 114 q 326 -12 500 -6 l 299 -76 q 381 -97 339 -76 q 422 -157 422 -117 q 381 -242 422 -207 q 251 -276 340 -276 q 150 -267 204 -276 l 154 -243 q 188 -246 179 -246 m 186 332 l 393 360 q 484 392 453 369 q 515 458 515 414 q 483 544 515 506 q 376 583 450 583 q 262 513 319 583 q 186 332 204 442 z "},"Ȫ":{"ha":894,"x_min":64,"x_max":847,"o":"m 390 1113 l 757 1113 l 747 1051 l 381 1051 l 390 1113 m 601 918 q 626 974 601 950 q 682 997 651 997 q 724 981 707 997 q 740 940 740 964 q 715 885 740 908 q 660 861 690 861 q 618 878 635 861 q 601 918 601 894 m 346 918 q 371 974 346 950 q 426 997 396 997 q 468 981 451 997 q 485 940 485 964 q 460 885 485 908 q 404 861 435 861 q 363 878 379 861 q 346 918 346 894 m 203 318 q 251 115 203 197 q 399 33 300 33 q 565 106 492 33 q 672 281 638 178 q 707 490 707 383 q 688 631 707 568 q 624 736 669 693 q 513 779 579 779 q 347 706 419 779 q 238 530 274 633 q 203 318 203 426 m 526 826 q 760 730 674 826 q 847 486 847 633 q 708 134 847 282 q 385 -14 569 -14 q 150 82 236 -14 q 64 325 64 178 q 202 678 64 531 q 526 826 340 826 z "},"ȫ":{"ha":760,"x_min":44,"x_max":703,"o":"m 306 996 l 672 996 l 663 935 l 296 935 l 306 996 m 513 772 q 538 828 513 804 q 593 851 563 851 q 635 835 618 851 q 651 794 651 818 q 626 739 651 763 q 571 715 601 715 q 529 732 546 715 q 513 772 513 749 m 257 772 q 282 828 257 804 q 338 851 307 851 q 379 835 363 851 q 396 794 396 818 q 371 739 396 763 q 315 715 346 715 q 274 732 290 715 q 257 772 257 749 m 179 244 q 224 81 179 135 q 350 28 269 28 q 508 133 447 28 q 568 379 568 238 q 392 582 568 582 q 238 479 297 582 q 179 244 179 376 m 325 -14 q 117 56 189 -14 q 44 244 44 125 q 143 518 44 411 q 422 625 242 625 q 633 560 563 625 q 703 378 703 494 q 604 97 703 208 q 325 -14 506 -14 z "},"ȷ":{"ha":335,"x_min":-211,"x_max":286,"o":"m 146 528 q 58 535 146 528 l 64 567 q 172 597 90 567 q 286 626 254 626 l 172 -60 q 92 -225 153 -174 q -47 -276 32 -276 q -211 -179 -211 -276 q -190 -122 -211 -143 q -140 -100 -169 -100 q -108 -112 -121 -100 q -94 -144 -94 -124 q -115 -187 -94 -169 l -115 -196 q -54 -235 -115 -235 q 2 -194 -26 -235 q 43 -79 31 -153 l 146 528 z "},"Ɂ":{"ha":626,"x_min":83,"x_max":622,"o":"m 204 624 q 183 576 204 593 q 132 560 161 560 q 97 574 110 560 q 83 613 83 589 q 85 629 83 624 q 172 769 99 711 q 371 826 244 826 q 560 771 499 826 q 622 639 622 715 q 595 521 622 575 q 529 431 568 467 q 450 364 490 394 q 378 300 410 333 q 342 233 347 267 l 313 57 q 396 29 321 29 l 390 0 l 88 0 l 93 29 q 185 57 169 29 l 203 164 q 249 280 214 229 q 324 365 283 331 q 405 434 365 399 q 471 523 444 469 q 497 647 497 576 q 350 785 497 785 q 164 665 215 785 q 204 624 204 665 z "},"ɂ":{"ha":556,"x_min":47,"x_max":528,"o":"m 168 422 q 147 375 168 392 q 96 358 125 358 q 60 373 74 358 q 47 411 47 388 q 124 560 47 496 q 311 625 201 625 q 474 570 421 625 q 528 442 528 515 q 506 347 528 389 q 451 279 483 306 q 386 230 419 253 q 327 180 353 207 q 296 121 301 153 l 285 57 q 368 29 293 29 l 363 0 l 69 0 l 75 29 q 167 57 151 29 q 207 162 178 119 q 268 226 236 204 q 331 270 300 247 q 381 334 361 293 q 401 440 401 375 q 372 544 401 506 q 290 583 343 583 q 190 548 232 583 q 128 464 149 513 q 168 422 168 464 z "},"Ƀ":{"ha":782,"x_min":4,"x_max":715,"o":"m 4 0 l 10 29 q 101 57 86 29 l 125 196 l 42 196 l 50 243 l 132 243 l 218 756 q 135 783 210 783 l 140 813 l 396 813 q 636 763 557 813 q 715 642 715 714 q 667 510 715 565 q 535 429 618 456 q 669 361 625 407 q 713 260 713 315 q 610 72 713 144 q 338 0 508 0 l 4 0 m 347 765 l 293 443 l 350 443 q 517 497 458 443 q 576 647 576 551 q 388 765 576 765 l 347 765 m 253 196 l 228 47 l 346 47 q 515 107 457 47 q 574 265 574 167 q 531 363 574 324 q 389 403 489 403 l 288 403 l 261 243 l 417 243 l 408 196 l 253 196 z "},"Ʉ":{"ha":860,"x_min":94,"x_max":899,"o":"m 414 33 q 583 111 507 33 q 681 317 660 189 l 703 447 l 264 447 l 243 325 q 236 244 236 276 q 284 88 236 143 q 414 33 332 33 m 272 494 l 711 494 l 754 756 q 671 783 746 783 l 676 813 l 899 813 l 893 783 q 801 756 817 783 l 758 494 l 808 494 l 800 447 l 750 447 l 733 344 q 608 75 703 164 q 392 -14 514 -14 q 110 244 110 -14 q 119 344 110 281 l 136 447 l 94 447 l 103 494 l 144 494 l 188 756 q 104 783 179 783 l 110 813 l 413 813 l 407 783 q 315 756 331 783 l 272 494 z "},"Ʌ":{"ha":754,"x_min":-65,"x_max":722,"o":"m 413 0 l 418 29 q 501 46 483 29 l 386 628 l 86 54 q 168 29 96 29 l 163 0 l -65 0 l -60 29 q 28 51 15 29 l 428 813 l 494 813 l 638 58 q 722 29 644 29 l 717 0 l 413 0 z "},"Ɋ":{"ha":846,"x_min":58,"x_max":893,"o":"m 679 -81 q 672 -151 672 -126 q 715 -236 672 -236 q 738 -231 729 -236 q 753 -219 747 -225 q 769 -194 758 -212 q 843 -133 813 -133 q 878 -147 864 -133 q 893 -178 893 -160 q 828 -251 893 -225 q 694 -278 763 -278 q 551 -128 551 -278 q 558 -61 551 -103 l 572 24 q 371 -14 475 -14 q 280 -1 326 -14 q 180 42 233 11 q 92 140 126 74 q 58 301 58 207 q 92 508 58 415 q 179 659 126 601 q 299 756 232 717 q 426 810 365 794 q 543 826 488 826 q 726 788 624 826 q 832 826 797 826 l 679 -81 m 579 68 l 694 753 q 543 779 615 779 q 472 766 513 779 q 381 717 432 753 q 289 631 331 682 q 219 492 247 579 q 190 299 190 406 q 213 167 190 222 q 269 84 235 111 q 334 45 303 57 q 393 33 365 33 q 579 68 490 33 z "},"ɋ":{"ha":721,"x_min":42,"x_max":775,"o":"m 561 -81 q 554 -151 554 -126 q 597 -236 554 -236 q 620 -231 611 -236 q 635 -219 629 -225 q 651 -194 640 -212 q 725 -133 694 -133 q 760 -147 746 -133 q 775 -178 775 -160 q 710 -251 775 -225 q 576 -278 644 -278 q 433 -128 433 -278 q 440 -61 433 -103 l 456 32 q 278 -14 382 -14 q 199 -2 238 -14 q 124 35 161 10 q 65 110 88 60 q 42 226 42 160 q 150 519 42 413 q 415 625 258 625 q 509 610 465 625 q 578 574 553 596 q 623 531 604 553 q 649 494 642 510 l 656 481 l 561 -81 m 463 76 l 540 539 q 417 578 482 578 q 249 475 326 578 q 172 219 172 372 q 206 83 172 133 q 300 33 240 33 q 463 76 397 33 z "},"Ɍ":{"ha":810,"x_min":3,"x_max":769,"o":"m 3 0 l 8 29 q 100 57 85 29 l 153 369 l 32 369 l 39 417 l 160 417 l 217 756 q 133 783 208 783 l 139 813 l 453 813 q 691 758 613 813 q 769 629 769 704 q 710 481 769 544 q 550 389 650 417 l 679 58 q 767 29 689 29 l 761 0 l 701 0 q 577 11 604 0 q 529 72 550 22 l 411 369 l 281 369 l 228 57 q 311 29 236 29 l 306 0 l 3 0 m 403 417 q 576 472 521 417 q 632 644 632 526 q 590 734 632 703 q 444 765 547 765 l 346 765 l 288 417 l 403 417 z "},"ɍ":{"ha":538,"x_min":21,"x_max":563,"o":"m 499 499 q 468 511 479 499 q 453 538 457 524 q 437 565 449 553 q 406 578 425 578 q 251 392 361 578 l 242 336 l 396 336 l 388 289 l 235 289 l 186 0 l 61 0 l 110 289 l 21 289 l 29 336 l 117 336 l 149 526 q 117 529 136 528 q 85 532 97 531 q 63 533 72 533 l 68 565 q 176 595 94 565 q 290 625 258 625 l 268 489 q 428 625 364 625 q 524 603 486 625 q 563 554 563 582 q 543 513 563 528 q 499 499 524 499 z "},"ɑ":{"ha":750,"x_min":42,"x_max":668,"o":"m 544 563 q 417 578 483 578 q 249 475 326 578 q 172 219 172 372 q 206 83 172 133 q 300 33 240 33 q 472 83 406 33 q 469 106 469 97 q 472 133 469 114 l 544 563 m 485 53 q 278 -14 407 -14 q 199 -2 238 -14 q 124 35 161 10 q 65 110 88 60 q 42 226 42 160 q 150 519 42 413 q 415 625 258 625 q 517 617 471 625 q 590 596 564 608 q 635 571 617 583 q 658 550 653 558 l 665 542 l 600 147 q 597 117 597 125 q 616 54 597 76 q 668 32 635 32 l 663 0 q 485 53 522 0 z "},"ɓ":{"ha":743,"x_min":42,"x_max":688,"o":"m 518 790 q 497 749 518 767 q 450 731 475 731 q 396 792 417 731 q 389 810 390 807 q 383 822 388 814 q 372 832 378 831 q 356 833 365 833 q 306 794 329 833 q 269 678 282 754 l 243 522 q 451 631 338 631 q 529 619 490 631 q 605 581 568 607 q 665 504 642 554 q 688 386 688 454 q 578 93 688 200 q 313 -14 469 -14 q 158 7 225 -14 q 67 49 90 28 l 42 69 l 140 658 q 349 875 178 875 q 465 852 411 875 q 518 790 518 829 m 231 451 l 164 53 q 313 33 229 33 q 481 136 404 33 q 557 393 557 239 q 523 532 557 481 q 429 583 489 583 q 231 451 326 583 z "},"ɔ":{"ha":679,"x_min":14,"x_max":625,"o":"m 143 203 q 124 154 143 171 q 85 138 104 138 q 135 62 88 96 q 244 28 182 28 q 413 124 336 28 q 490 372 490 221 q 447 515 490 457 q 332 572 403 572 q 125 481 213 572 l 94 497 q 214 594 146 564 q 388 625 282 625 q 554 567 483 625 q 625 393 625 508 q 517 99 625 213 q 251 -14 408 -14 q 76 33 138 -14 q 14 149 14 79 q 34 217 14 190 q 88 243 54 243 q 143 203 143 243 z "},"ɖ":{"ha":725,"x_min":42,"x_max":783,"o":"m 547 597 l 578 776 q 490 783 492 783 l 496 815 q 604 845 522 815 q 718 875 686 875 l 569 -19 q 563 -90 563 -65 q 604 -175 563 -175 q 627 -169 618 -175 q 642 -158 636 -164 q 658 -133 647 -151 q 732 -72 701 -72 q 768 -85 753 -72 q 783 -117 783 -99 q 717 -190 783 -164 q 583 -217 651 -217 q 442 -67 442 -217 q 447 0 442 -33 l 453 32 q 278 -14 379 -14 q 200 -2 239 -14 q 124 36 161 10 q 65 113 88 63 q 42 231 42 163 q 151 524 42 417 q 417 631 260 631 q 547 597 496 631 m 460 78 l 540 553 q 417 583 493 583 q 256 492 335 583 q 178 261 178 401 q 212 94 178 156 q 300 33 246 33 q 460 78 394 33 z "},"ɗ":{"ha":749,"x_min":42,"x_max":935,"o":"m 935 790 q 913 749 935 767 q 867 731 892 731 q 813 792 833 731 q 806 810 807 807 q 799 822 804 814 q 788 832 794 831 q 772 833 782 833 q 722 794 746 833 q 686 678 699 754 l 597 147 q 594 117 594 125 q 613 54 594 76 q 665 32 632 32 l 660 0 q 482 53 519 0 q 278 -14 401 -14 q 200 -2 239 -14 q 124 36 161 10 q 65 113 88 63 q 42 231 42 163 q 151 524 42 417 q 417 631 260 631 q 547 597 496 631 l 557 658 q 765 875 594 875 q 881 852 828 875 q 935 790 935 829 m 469 85 q 467 106 467 99 q 469 133 467 114 l 540 553 q 417 583 493 583 q 256 492 335 583 q 178 261 178 401 q 214 98 178 163 q 300 33 250 33 q 469 85 401 33 z "},"ə":{"ha":679,"x_min":26,"x_max":621,"o":"m 481 279 l 274 251 q 182 221 213 243 q 151 153 151 199 q 184 67 151 106 q 290 28 217 28 q 405 99 347 28 q 481 279 463 169 m 26 172 q 62 242 26 215 q 215 286 97 269 l 483 322 q 435 499 483 426 q 314 572 388 572 q 104 481 192 572 l 74 497 q 194 594 125 563 q 371 625 264 625 q 547 565 472 625 q 621 368 621 506 q 529 94 621 203 q 278 -14 438 -14 q 88 44 149 -14 q 26 172 26 101 z "},"ɛ":{"ha":632,"x_min":24,"x_max":596,"o":"m 596 508 q 574 452 596 474 q 518 431 553 431 q 487 442 499 431 q 475 475 475 454 q 514 531 475 517 q 474 570 497 557 q 401 583 451 583 q 271 546 318 583 q 224 440 224 508 q 266 371 224 397 q 383 344 308 344 l 374 292 q 156 138 156 292 q 205 65 156 90 q 329 39 254 39 q 526 131 439 39 l 557 114 q 444 17 506 47 q 288 -14 383 -14 q 24 131 24 -14 q 188 319 24 268 q 90 432 90 358 q 172 573 90 521 q 394 625 253 625 q 542 592 489 625 q 596 508 596 560 z "},"ɠ":{"ha":728,"x_min":14,"x_max":918,"o":"m 542 546 q 417 578 496 578 q 249 475 326 578 q 172 219 172 372 q 206 83 172 133 q 300 33 240 33 q 463 76 396 33 l 542 546 m 142 -124 q 96 -190 142 -174 q 246 -228 128 -228 q 374 -169 324 -228 q 454 32 424 -111 q 278 -14 381 -14 q 199 -2 238 -14 q 124 35 161 10 q 65 110 88 60 q 42 226 42 160 q 150 519 42 413 q 415 625 258 625 q 550 589 494 625 q 750 764 597 764 q 865 741 813 764 q 918 679 918 718 q 897 638 918 656 q 851 619 876 619 q 797 681 818 619 q 790 699 792 696 q 784 711 789 703 q 773 721 779 719 q 757 722 767 722 q 706 682 731 722 q 669 567 682 642 l 582 40 q 471 -190 558 -101 q 251 -278 383 -278 q 74 -242 135 -278 q 14 -162 14 -207 q 36 -106 14 -128 q 86 -83 58 -83 q 142 -124 142 -83 z "},"ɣ":{"ha":703,"x_min":24,"x_max":750,"o":"m 328 611 l 322 582 q 243 568 263 582 l 344 246 q 351 218 344 246 l 606 565 q 528 582 592 582 l 533 611 l 750 611 l 744 582 q 653 554 671 582 l 365 161 q 396 -72 396 18 q 359 -220 396 -162 q 247 -278 322 -278 q 143 -176 143 -278 q 162 -86 143 -135 q 197 -11 181 -37 q 253 78 213 15 q 215 226 246 111 l 107 554 q 24 582 96 582 l 29 611 l 328 611 m 265 10 q 229 -53 238 -37 q 212 -99 221 -69 q 203 -164 203 -129 q 225 -212 203 -212 q 262 -174 247 -212 q 276 -101 276 -136 q 265 10 276 -54 z "},"ɦ":{"ha":740,"x_min":36,"x_max":664,"o":"m 524 790 q 502 749 524 767 q 456 731 481 731 q 401 792 422 731 q 394 810 396 807 q 388 822 393 814 q 377 832 383 831 q 361 833 371 833 q 311 794 335 833 q 275 678 288 754 l 247 514 q 431 625 331 625 q 597 593 546 625 q 649 486 649 561 q 643 433 649 472 l 596 147 q 593 117 593 125 q 612 54 593 76 q 664 32 631 32 l 658 0 q 513 25 561 0 q 465 106 465 50 q 468 133 465 114 l 519 443 q 524 482 524 464 q 415 578 524 578 q 231 414 321 578 l 161 0 l 36 0 l 146 658 q 354 875 183 875 q 470 852 417 875 q 524 790 524 829 z "},"ɨ":{"ha":413,"x_min":26,"x_max":400,"o":"m 364 807 q 338 742 364 769 q 276 714 313 714 q 231 733 249 714 q 213 781 213 751 q 238 847 213 818 q 299 875 263 875 q 345 856 326 875 q 364 807 364 836 m 99 0 l 156 338 l 26 338 l 33 385 l 163 385 l 186 526 q 154 529 174 528 q 122 532 135 531 q 100 533 110 533 l 106 565 q 214 595 132 565 q 328 625 296 625 l 288 385 l 400 385 l 393 338 l 281 338 l 224 0 l 99 0 z "}}}
